<svg width="127" height="127" viewBox="0 0 127 127" fill="none" xmlns="http://www.w3.org/2000/svg">
<rect width="127" height="127" rx="63.5" fill="#AFD300" fill-opacity="0.5"/>
<g clip-path="url(#clip0_292_2793)">
<path d="M40.6714 103.193L40.6784 103.115C40.6889 102.985 40.6701 103.034 40.6689 102.96C40.661 102.458 40.6403 101.782 40.6692 101.286C40.9505 100.94 40.6623 100.772 40.6907 100.4C40.7182 100.039 41.0291 99.8996 40.7766 99.5306C40.7723 99.3349 40.8143 99.2868 40.9037 99.1035C40.9008 99.0907 40.8272 98.8004 40.8257 98.8116C40.8505 98.6221 40.9484 98.4109 41.0174 98.2326C41.0183 98.2302 40.9657 97.8833 40.9635 97.8884C41.0137 97.7655 41.1061 97.5686 41.1341 97.4364C41.1691 97.2713 41.0772 97.1973 41.1381 97.0279L41.2531 96.9267C41.2455 96.7946 41.2346 96.7752 41.1973 96.6512C41.2541 96.5403 41.3303 96.4361 41.3085 96.3283C41.2736 96.2985 41.2037 96.257 41.2189 96.2209C41.4675 95.6314 41.4891 95.4202 41.4444 94.7961L41.528 94.738C41.4918 94.5329 41.2729 94.676 41.562 94.4101C41.6665 94.0643 41.5477 93.6074 41.8251 93.2888C41.8622 93.2461 41.6644 92.8492 41.7995 92.7729C42.0101 92.5043 41.8572 91.9771 41.9129 91.6566C41.9215 91.6074 42.098 91.3891 42.1553 91.2981C41.9924 91.0395 42.0073 91.1461 42.0512 90.8225C42.0758 90.6415 42.1793 90.588 42.3247 90.4965C42.274 90.3791 42.2555 90.3674 42.1748 90.2705C42.1457 90.1291 42.1538 90.1314 42.2025 90.0012C42.2928 89.9302 42.3232 89.9112 42.4233 89.8539L42.4348 89.7973L42.3101 89.7C42.2983 89.5411 42.4398 89.1791 42.4735 89.0159C42.4875 88.9484 42.317 88.9093 42.4075 88.7302C42.5395 88.6574 42.5983 88.6601 42.6314 88.555L42.4932 88.4163C42.5852 88.231 42.5936 88.4729 42.6309 88.2678L42.6572 88.1232C42.8227 87.2039 43.1755 86.3539 43.4859 85.4829C43.5085 85.4198 43.4762 85.0783 43.4656 84.9887C43.525 84.855 43.5909 84.8077 43.6955 84.707L43.7112 84.6465L43.6387 84.5659C43.7197 84.2135 43.9246 83.9523 43.969 83.5779C44.027 83.088 44.2563 83.0504 44.3878 82.6771C44.4432 82.5197 44.4324 82.3147 44.4661 82.1488C44.5249 81.8585 44.6331 81.5531 44.7397 81.2763C44.8679 80.9438 45.2855 80.1837 45.2803 79.8732C45.2749 79.5461 46.1144 77.7914 46.0947 77.7108C46.0877 77.6821 46.0574 77.5864 46.0628 77.5554C46.1126 77.2728 46.4277 76.7953 46.5527 76.5019C46.7255 76.0957 46.8634 75.6755 47.035 75.2701C47.4265 74.3453 47.9898 73.2034 48.2493 72.2492C48.3364 71.929 48.5884 71.7151 48.7245 71.422C48.9376 70.9631 49.1112 70.4724 49.3165 70.0069C49.5271 69.5294 49.7836 69.0724 49.9892 68.5945C50.248 67.9922 50.4511 67.3697 50.6699 66.753C50.8958 66.1162 51.6876 64.2356 51.376 63.617C51.3664 63.5976 51.3578 63.5778 51.3483 63.5585C51.0104 62.8685 50.5163 62.2547 50.076 61.6301C49.7756 61.204 49.5244 60.7454 49.2238 60.3207C48.9924 59.9937 48.7302 59.6878 48.4941 59.3639C47.8092 58.4244 47.1714 57.4651 46.6337 56.4344C46.3506 55.8917 46.0904 55.3611 45.9645 54.7546C45.8313 54.1128 45.8669 53.4944 46.0724 52.8745C46.5798 51.3443 47.3777 49.7346 48.2182 48.3588C48.4793 47.9315 48.7727 47.5255 49.0467 47.1066C49.3084 46.7068 49.5448 46.288 49.8199 45.8974C50.3434 45.1541 50.9482 44.4527 51.5628 43.784C51.8007 43.5201 52.0452 43.2623 52.2962 43.0108C52.493 42.8166 53.661 41.7696 53.7283 41.6427C53.8395 41.4329 54.2309 41.2335 54.4268 41.0914C55.478 40.3285 56.5061 39.6045 57.6639 39.0085C57.9138 38.8799 58.1767 38.7218 58.4413 38.6286C58.5905 38.6962 58.5541 38.7101 58.6679 38.6718C58.9046 38.592 59.1621 38.4338 59.378 38.3434C59.5769 38.2601 60.0049 38.2292 60.2456 38.1292C60.828 37.8873 61.4516 37.7616 62.0447 37.5447C62.0754 37.5335 62.2149 37.5987 62.2454 37.612C62.6525 37.5223 63.0684 37.3694 63.478 37.3096C63.7939 37.2635 64.0711 37.4412 64.385 37.308C64.8261 37.121 66.3005 37.2865 66.5428 37.1215C66.5691 37.1037 66.5959 37.0829 66.6277 37.0759C66.7672 37.0453 66.9478 37.0742 67.0947 37.0601C67.4509 37.0259 67.837 36.9294 68.1893 36.9234C68.4044 36.9197 68.6215 36.9628 68.8362 36.9397C69.5668 36.8609 70.275 36.706 71.0153 36.6841C71.5633 36.6679 72.1467 36.6842 72.6862 36.789C73.4486 36.9372 74.2102 37.187 74.975 37.2956C75.311 37.3434 75.6451 37.5507 75.9773 37.6431C77.0711 37.9476 78.2246 38.2312 79.1746 38.8882C79.513 39.1222 79.8157 39.4189 80.1312 39.6829C80.6994 40.1579 81.2645 40.6891 81.7064 41.2862C82.0668 41.7734 82.3851 42.291 82.7141 42.7996C82.9358 43.1418 83.1928 43.4905 83.3754 43.8542C84.0327 45.1613 84.6591 48.0162 84.6614 49.4709C84.6622 49.9048 84.5533 50.3216 84.5254 50.7507C84.5126 50.9449 84.6544 51.1652 84.6362 51.3341C84.6339 51.3572 84.625 51.3792 84.6192 51.4017L84.4928 51.4733C84.4886 51.7626 84.5296 52.1692 84.461 52.4388C84.2889 53.1161 83.8851 53.9622 83.8835 54.6512C83.6037 54.9351 83.4936 55.6685 83.2831 56.1411L83.3347 56.2723C83.1591 56.5569 82.987 56.8686 82.7265 57.0791C82.7296 57.0698 82.6901 57.2938 82.7401 57.2224C82.544 57.5027 82.4114 57.8915 82.2362 58.1639C81.9882 58.55 81.6292 58.9392 81.3444 59.3014C81.3281 59.3223 81.3634 59.4561 81.3707 59.4819C81.1823 59.7359 80.5525 60.5314 80.4382 60.8071C80.4649 60.9222 80.5079 60.9699 80.4246 61.07C79.7378 61.8948 79.0773 62.772 78.4951 63.6705C78.2699 64.0178 77.6463 64.4527 77.5037 64.9092C77.5006 64.9166 77.5246 65.0309 77.5257 65.0368C77.4428 65.1778 77.4471 65.122 77.363 65.181C76.8498 65.5403 76.6626 66.2627 76.1153 66.5748C76.0025 66.8116 75.9389 67.0058 75.742 67.1674C75.6486 67.2437 75.3684 67.4635 75.3517 67.5573L75.3819 67.6364C75.0812 68.0507 74.3498 68.6604 74.1874 68.8934L74.2525 68.96C74.1614 69.1372 73.8897 69.2472 73.7564 69.3914C73.3668 69.8131 73.0009 70.2821 72.6199 70.7077C72.504 70.8376 72.1451 70.8724 71.9812 71.1007C72.0071 71.1763 72.016 71.2019 72.0064 71.2813C71.9083 71.3961 71.7517 71.5294 71.7416 71.6786C71.7083 72.1771 71.7885 72.71 71.8381 73.2081C71.875 73.5794 72.042 73.7255 71.9641 74.1356C72.0223 74.2279 72.0374 74.2298 72.1242 74.2992C72.2033 74.5651 72.2141 74.6027 72.3955 74.8221L72.3781 74.891C72.3695 74.9244 72.342 75.0678 72.3533 75.0856C72.6513 75.5531 72.7323 75.9403 72.8676 76.4651L72.9505 76.4407C72.9963 76.6523 72.8583 76.686 72.9095 76.7825C73.0215 76.9926 73.23 77.2205 73.3711 77.4193C73.4017 77.4624 73.3389 77.5759 73.3145 77.6279L73.3362 77.6953C73.437 77.7302 73.4389 77.7248 73.5234 77.7891C73.5254 77.9767 73.4261 77.9682 73.4188 78.019C73.4013 78.1321 73.8467 78.8639 73.8409 78.8833C73.7409 79.2232 73.6145 79.0174 73.9947 79.3864C74.1703 79.5566 74.2463 80.3174 74.2397 80.5569C74.4788 80.7081 74.7978 81.5465 74.8788 81.8477C75.0219 81.9659 75.0819 81.9887 75.1478 82.1604C75.2723 82.4856 75.3455 82.8205 75.4102 83.1601C75.4575 83.4097 75.4726 83.6461 75.5924 83.8697C75.642 83.9624 75.6804 84.0643 75.7316 84.1566C75.7912 84.1794 75.8505 84.2023 75.9102 84.2252C76.1025 84.8926 76.3552 85.5477 76.5943 86.1992C76.6715 86.4101 76.8153 86.6446 76.9199 86.8403C76.9292 86.8577 76.8509 87.081 76.8827 87.1356C77.0037 87.3438 77.1881 87.5174 77.3331 87.7163C77.4296 87.8484 77.2971 88.0043 77.3145 88.0391C77.4742 88.3554 77.6785 88.7143 77.8219 89.0356C77.942 89.3054 77.968 89.6105 78.0195 89.8969C78.035 89.9841 78.061 90.2201 78.1141 90.293C78.13 90.3151 78.3513 90.3395 78.3025 90.4791C78.2746 90.5585 78.2622 90.5585 78.206 90.6205C78.2444 90.757 78.3746 90.8112 78.3792 90.838C78.5137 91.6085 78.8521 92.2357 79.1203 92.9477C79.1769 93.0977 79.0219 93.4171 79.1664 93.6837C79.2455 93.8318 79.3285 93.9779 79.4145 94.1225C79.2199 94.6097 79.5544 94.8446 79.6308 95.305C79.6734 95.5612 79.6723 95.8919 79.6808 96.1562C79.7467 96.2539 79.7242 96.2198 79.8405 96.2845C79.9428 96.4539 79.787 96.6853 79.7947 96.8705C79.8083 97.1942 80.2622 97.9818 80.2711 98.2333C80.2913 98.8217 80.1835 98.8527 80.5281 99.4198C80.549 99.4547 80.6754 100.331 80.7025 100.465L81.0746 102.227C81.1331 102.496 81.2963 102.943 81.199 103.193H78.6843C78.6932 103.116 78.6707 102.907 78.6436 102.837C78.5475 102.591 78.5389 102.185 78.3285 102.047L78.3378 101.979C78.6947 101.626 78.3571 101.615 78.2277 101.203C78.2215 101.184 78.1017 101.178 78.0467 101.076L78.0905 101.03C78.1893 101.047 78.156 101.047 78.2595 101.036C78.2626 100.897 78.2467 100.927 78.1319 100.785C78.0978 100.638 78.1424 100.568 78.1692 100.466C78.2079 100.316 77.9122 99.9039 77.8393 99.7237C77.7579 99.5221 77.9424 99.5225 77.9288 99.4706C77.8699 99.243 77.7482 98.9473 77.7141 98.7136C77.7068 98.6651 77.756 98.6465 77.813 98.5977C77.7723 98.4779 77.6792 98.4023 77.5882 98.3043C77.6207 97.9934 77.4412 97.712 77.3792 97.3957C77.3281 97.1368 77.354 96.8395 77.3025 96.6008L77.2331 96.6504L77.1955 96.624C77.3726 96.0826 77.0331 96.3895 77.0591 96.0256C77.0893 95.6012 76.8602 95.1477 76.7071 94.7547C76.7385 94.7112 76.7843 94.6585 76.804 94.6093C76.8746 94.4326 76.2971 93.0484 76.1982 92.7891C76.2323 92.7372 76.3316 92.5957 76.3149 92.5589C76.254 92.4229 75.9397 92.0178 75.8525 91.8981C76.0761 91.1698 75.4203 91.3477 75.5827 90.824C75.7269 90.3589 75.2552 90.3488 75.2571 90.1302C75.2626 89.4806 75.0087 89.1515 74.7482 88.5895C74.7013 88.4833 74.2796 87.5856 74.273 87.5515L74.4757 87.374C74.4234 87.1957 73.9963 86.7535 73.9909 86.6752C73.9451 85.9911 73.6029 85.4907 73.3288 84.8802C73.2843 84.7802 73.3207 84.6717 73.273 84.5473L73.0889 84.4682C73.0137 84.3566 73.0199 84.4132 73.0401 84.2988L73.2044 84.2124L73.2129 84.1573C73.1436 84.1194 73.0754 84.0791 73.0087 84.0372C72.9928 83.9329 72.9777 83.8287 72.9629 83.7244C72.6978 83.5008 72.7781 83.4558 72.6881 83.1794C72.5552 82.7504 72.4335 82.3333 72.2757 81.9112C72.137 81.5395 71.7556 81.0868 71.6691 80.7147C71.6207 80.5062 71.3478 80.0329 71.3428 79.9287C71.3269 79.586 71.4265 79.5659 71.1238 79.2399C71.068 79.1767 71.161 79.0476 71.1971 78.9736C71.1629 78.7744 70.992 78.7469 70.9354 78.5957C70.7757 78.1674 70.5633 77.048 70.3881 76.7069C70.0091 76.4631 70.1629 76.5546 70.1649 76.1783L70.0436 76.1422L69.8804 75.6965L69.9773 75.5752C69.9025 75.3628 69.8552 75.4728 69.7517 75.2868C69.7908 75.2205 69.8195 75.1767 69.8618 75.1135L69.8389 75.0217L69.6819 74.9662C69.6505 74.8988 69.6339 74.8438 69.6812 74.76C69.885 74.4003 69.3598 73.7775 69.3614 73.5271C69.4319 73.5372 69.3967 73.5372 69.4676 73.5263C69.4548 73.1643 69.2936 72.6992 69.2881 72.3531L69.4172 72.1662C69.3986 72.0015 69.3242 71.7864 69.3579 71.6271C69.7141 71.3341 69.4242 71.4062 69.3703 71.2178C69.4548 70.9612 69.6296 70.3639 69.7854 70.1864C69.8819 70.1666 69.9343 70.1538 70.0281 70.1244C70.1067 70.0189 70.0955 70.0755 70.0932 69.9593C69.7269 69.6162 70.2323 69.5465 70.3641 69.181C70.3428 68.9965 70.2509 68.8782 70.1583 68.7124C70.3253 68.5197 70.5626 68.498 70.6226 68.3817C70.5595 68.2767 70.4645 68.2775 70.3164 68.193L70.3281 68.1279C70.8467 68.0697 70.9571 68.5065 71.1672 67.667C71.4354 67.5608 71.5393 67.6054 71.4916 67.3042C71.5757 67.1248 71.6141 67.324 71.7788 67.1267C71.7769 66.9395 71.7343 66.9782 71.6215 66.7798C71.7222 66.6344 71.8188 66.8023 71.8571 66.6903C71.923 66.498 71.8412 66.5844 72.011 66.4379C72.0517 66.2841 72.099 66.2368 72.1932 66.1034C72.2808 66.1879 72.3052 66.224 72.4296 66.2519C72.5536 66.1957 72.5366 66.1779 72.5994 66.0104L72.618 65.9596C72.7381 65.8918 72.7502 65.8965 72.8819 65.8709C72.7982 65.7996 72.8195 65.8189 72.7153 65.772C72.7703 65.6395 72.7362 65.7015 72.8707 65.5941C73.0316 65.5651 73.085 65.562 73.2486 65.5623C73.1847 65.3585 73.0335 65.2895 73.0079 65.0976L73.0486 65.0216C73.1602 65.0368 73.1195 65.0244 73.2168 65.0864C73.3614 64.9879 73.5409 64.8476 73.5095 64.653L73.4091 64.5945L73.4567 64.5333C73.5606 64.5705 73.5223 64.5546 73.606 64.6468L73.6974 64.6623L73.7575 64.6127C73.742 64.5046 73.756 64.5437 73.6878 64.4534L73.7095 64.4143C73.9044 64.4027 74.0785 64.379 74.268 64.4205C74.375 64.1926 74.7277 64.2534 74.6389 64.0596C74.5878 63.9472 74.4858 63.8922 74.4428 63.71L74.4947 63.631C74.6548 63.6205 74.6463 63.6185 74.7827 63.703C74.868 63.6403 74.8397 63.667 74.8982 63.5755C75.0269 63.5666 75.0405 63.5391 75.1354 63.4604L75.1726 63.3662L75.1378 63.3445C74.9955 63.4054 74.9769 63.4472 74.8734 63.4061C74.8719 63.1046 75.1292 63.2499 74.9544 62.9457L74.8052 62.8651C74.8901 62.7802 74.8909 62.7941 75.006 62.7399C75.144 62.8623 75.2219 62.9527 75.3967 63.0108C75.6796 62.9546 75.6529 62.6747 75.6525 62.4374C75.7924 62.3498 75.8226 62.382 75.9862 62.4389L76.0002 62.3741C75.9106 62.2656 75.8436 62.2402 75.7215 62.1725L75.7114 62.1178C75.856 61.9706 75.987 62.034 76.185 62.0678C76.2889 61.9606 76.2595 62.0222 76.2823 61.8792C76.2378 61.7938 76.242 61.794 76.1835 61.7194C76.28 61.5944 76.304 61.618 76.4719 61.6121C76.6304 61.4592 76.537 61.0189 76.6839 60.9618C76.8618 60.9974 76.794 61.0196 76.9102 60.945L76.9044 60.8819L76.7928 60.8089L76.7916 60.7531C76.868 60.6999 76.8661 60.7009 76.9544 60.6717C76.9851 60.5756 76.9905 60.5802 76.9734 60.4824C77.311 60.378 77.3618 60.5989 77.6405 60.1546C77.7552 59.9721 77.9606 59.7383 78.0393 59.5356L77.975 59.4547C78.0796 59.1846 78.7637 58.9592 78.8715 58.3137L78.8385 58.2529L78.6695 58.21C78.7095 58.1241 78.6796 58.1615 78.7851 58.1159C78.975 58.1788 78.9482 58.2043 79.1025 58.1565C79.2529 57.9111 79.1521 57.8276 79.2893 57.6332C79.3901 57.6521 79.363 57.644 79.454 57.6837L79.5211 57.6311C79.4781 57.5361 79.4874 57.5643 79.4033 57.4865C79.3792 57.3795 79.3672 57.424 79.4153 57.3445L79.5645 57.3362L79.5796 57.2797L79.5304 57.1955C79.6552 57.0948 79.8091 56.9903 79.8882 56.8555C79.8626 56.7686 79.8529 56.7433 79.8149 56.6611C80.0052 56.3487 80.3529 56.4811 80.3645 55.9059C80.5552 55.6679 80.7428 55.4273 80.9246 55.1839C81.194 54.8232 81.2459 54.7619 81.2521 54.3158C81.2932 54.2238 81.3575 54.1959 81.4428 54.1391C81.5292 53.9453 81.6126 53.75 81.6924 53.5533L81.623 53.4295C81.6874 53.34 82.0634 52.9131 82.049 52.8762C81.9161 52.5357 82.363 52.3667 82.2823 52.1262C82.1777 51.8131 82.4432 51.8777 82.4885 51.6645C82.4831 51.6539 82.4781 51.6434 82.473 51.6328C82.4211 50.9419 82.8715 50.2355 82.7816 49.4995C82.7734 49.4335 82.9029 49.2183 82.9308 49.1455C82.9079 48.8007 82.8874 48.4553 82.863 48.1105C82.8564 47.9811 82.9816 48.0477 82.944 47.8699C82.6343 46.4006 82.6417 44.9057 81.7889 43.5891C80.8389 42.1225 79.7467 40.3833 78.1599 39.5359C78.0037 39.4524 77.9444 39.4826 77.8506 39.3083C77.3106 39.1377 76.8033 38.9045 76.2773 38.6995C75.9591 38.5755 75.5161 38.5194 75.2079 38.4023C74.2548 38.04 72.4769 37.6114 71.4699 37.7312C71.4401 37.7111 71.3668 37.6477 71.3362 37.6413C71.0668 37.5853 69.9529 37.8319 69.6238 37.8771C68.1083 38.0854 66.5881 38.2244 65.0835 38.5163C64.7846 38.5742 63.1246 38.8071 63.0156 38.9256C62.9749 38.97 62.9342 39.0088 62.8889 39.0482C62.8153 39.0501 62.7734 39.0489 62.7048 39.0227C62.4961 38.9432 62.2039 39.2066 62.0119 39.2516C61.7582 39.3111 61.5027 39.3461 61.2458 39.4299C59.7869 39.9047 58.3912 40.5556 57.0896 41.3678C56.1773 41.9368 55.2611 42.6885 54.472 43.4196C54.1371 43.7299 53.855 44.1563 53.4542 44.4633C53.2438 44.6244 52.905 45.2488 52.6717 45.4513C52.3173 45.9065 51.9325 46.3191 51.5734 46.761C51.5197 47.0903 50.6075 48.0194 50.3565 48.3807C50.1798 48.6349 49.9743 48.9115 49.8405 49.1904C49.7421 49.3954 49.6886 49.6231 49.5805 49.8228C49.3319 50.2821 49.035 50.7227 48.7813 51.183C48.3243 52.0119 47.7527 52.9905 47.615 53.9351C47.3843 55.5174 48.7684 57.1827 49.6235 58.3916C49.9112 58.7983 50.1701 59.226 50.4603 59.6295C50.8798 60.2128 51.3461 60.7627 51.7333 61.3694C51.9585 61.7221 52.1173 62.1154 52.2916 62.4948C52.6501 63.2751 53.0536 63.941 52.9198 64.8434C52.7901 65.7182 52.4809 66.462 52.225 67.2906C52.1574 67.5092 52.2052 67.7251 52.0972 67.9356C51.9916 68.1418 51.4605 69.3092 51.4291 69.4701C51.4143 69.5465 51.4233 69.6139 51.4442 69.6872C51.3712 69.8709 51.2427 69.8903 51.1762 70.0577L51.1838 70.0972C51.2519 70.4728 50.9888 70.6527 50.8548 71C50.5268 71.8503 50.1405 72.6748 49.7766 73.5093C49.6489 73.8023 49.7122 74.2775 49.4779 74.4732C49.3028 74.6298 49.3361 75.1174 49.2514 75.3379C49.077 75.7736 48.8785 76.2089 48.7073 76.6445C48.7633 77.1318 48.5222 77.0108 48.3227 77.498C48.0436 78.179 47.8394 79.1914 47.5467 79.8298L47.4887 79.9589C47.5292 80.0341 47.5481 80.0674 47.5731 80.1496C47.4878 80.3097 47.2659 80.669 47.2825 80.8267L47.3581 80.898C47.0941 81.2562 47.0247 81.2349 47.0553 81.6178C46.9805 81.7539 46.7549 82.0756 46.7467 82.2042C46.8357 82.3465 46.8212 82.2713 46.7872 82.4391C46.6763 82.5054 46.6128 82.5256 46.5579 82.6496C46.5865 82.7321 46.6007 82.7666 46.6391 82.8449C46.5546 83.0391 46.4124 83.0977 46.3522 83.2608C46.3302 83.3205 46.4714 83.5833 46.4513 83.6713C46.3889 83.9384 46.2077 84.169 46.0424 84.3806C46.0327 84.393 46.0518 84.6492 46.0578 84.6864C46.0868 84.8643 45.9912 84.981 45.8727 85.1446C45.7072 85.3728 45.8391 85.5081 45.8385 85.7659C45.8383 85.8562 45.633 86.1205 45.6011 86.2151C45.6312 86.2604 45.6614 86.3058 45.6915 86.3515C45.5531 86.7694 45.2384 87.2655 45.305 87.7209C45.3196 87.8213 45.3059 88.0535 45.3129 88.1353C45.321 88.2287 44.9012 88.5411 45.0972 88.6116C45.0919 88.6097 45.1869 88.6787 45.1828 88.6756C45.2001 88.7938 45.1533 88.9508 45.1261 89.0736L45.0733 89.0965C45.0177 89.1213 44.9882 89.1357 44.9362 89.1639L44.9277 89.2178C44.8979 89.3965 44.7023 89.9957 44.7327 90.0872C44.8615 90.474 44.9172 90.4046 44.7102 90.8128C44.738 90.9562 44.7605 91.0543 44.7669 91.1996C44.674 91.2977 44.5103 91.4411 44.483 91.5624L44.5372 91.6008C44.6111 91.6543 44.5829 91.6306 44.6436 91.6911C44.5664 92.0116 44.1969 91.7779 44.4608 92.2601C44.4538 92.338 44.4729 92.3457 44.4229 92.4019C44.2119 92.6391 44.3217 93.1077 44.2763 93.4364C44.2294 93.7775 44.1517 94.0946 44.1051 94.4279L44.1459 94.4554L44.2055 94.4384C44.208 94.6105 44.0162 94.8919 44.0359 94.9698C44.1267 95.3275 44.2725 95.2345 43.9424 95.5767C44.1367 96.0314 44.0089 95.9271 43.842 96.3376C43.7994 96.4426 43.8947 96.881 43.8728 97.0186C43.8602 97.1229 43.7343 97.2659 43.7456 97.4174L43.8436 97.4973C43.7924 97.7225 43.7091 97.6349 43.6367 97.8217L43.7709 98.3205C43.6993 98.3915 43.7312 98.3694 43.6316 98.4016C43.6133 98.514 43.5118 99 43.5662 99.064C43.5837 99.0845 43.6457 99.1682 43.6684 99.1957C43.6655 99.4019 43.5973 99.3178 43.538 99.5109C43.5905 99.5965 43.6013 99.6113 43.6681 99.6864L43.653 99.7837L43.6084 99.8132C43.5534 99.85 43.5282 99.8698 43.4783 99.9112L43.4852 99.9853L43.6056 100.044C43.5378 100.126 43.5175 100.131 43.4281 100.192C43.4231 100.376 43.526 100.971 43.5619 101.166C43.5041 101.213 43.4663 101.241 43.4045 101.283C43.3657 101.512 43.5999 101.417 43.3634 101.842L43.3354 101.893C43.3296 101.903 43.3237 101.913 43.3179 101.923L43.3478 101.978L43.4698 101.977C43.5513 102.159 43.395 102.294 43.2929 102.43C43.3522 102.601 43.6111 102.45 43.3862 102.941C43.3736 102.969 43.3051 103.154 43.291 103.193H40.6714Z" fill="#030304"/>
<path d="M72.011 66.438C72.0517 66.2841 72.099 66.2368 72.1932 66.1035C72.2304 66.2275 72.2257 66.2225 72.218 66.3535L72.2835 66.4496C72.342 66.4431 72.387 66.4372 72.4466 66.4279C72.4226 66.54 72.2676 66.7543 72.1691 66.8113C72.0664 66.712 72.0687 66.5888 72.011 66.438Z" fill="#F2F0F1"/>
<path d="M50.0437 103.192L50.0615 103.115C50.1872 102.554 50.1583 101.482 50.2598 100.879C50.2937 100.678 50.1492 100.667 50.2666 100.269C50.3721 99.9113 50.3986 99.8784 50.254 99.5652C50.3932 99.416 50.4437 99.4179 50.4311 99.2393C50.4192 99.0699 50.3575 98.8807 50.3512 98.711C50.3512 98.711 50.4601 98.5799 50.4814 98.5544C50.5188 98.509 50.3839 98.4183 50.3833 98.4017C50.3709 98.0896 50.3936 97.7563 50.3984 97.4451L50.5174 97.2892C50.5412 97.1544 50.2571 97.0838 50.3662 96.9389C50.3915 96.9024 50.4409 96.828 50.4448 96.7842C50.4575 96.6408 50.4406 96.5307 50.4532 96.383C50.4966 95.8784 50.6678 95.3451 50.6392 94.8427C50.6363 94.8299 50.6335 94.8175 50.6307 94.8051C50.5669 94.5497 50.7264 94.2714 50.764 94.0148C50.8213 93.6233 50.8819 93.235 50.9406 92.8435C50.9835 92.5578 51.0017 92.2675 51.0467 91.9823C51.0684 91.8447 51.1811 91.6392 51.1974 91.4857C51.319 90.9869 51.3421 90.3978 51.5799 89.9458C51.599 89.9094 51.6442 89.8613 51.6708 89.8326C52.117 89.764 52.4753 89.5947 52.919 89.7842C53.3379 89.9633 53.1516 90.6009 53.1356 90.9683C53.1122 91.504 53.0898 92.0129 52.9452 92.5311C52.9407 92.5462 53.0253 92.6671 53.0395 92.6865C52.9025 93.4807 52.8012 93.8272 52.8033 94.6745C52.8047 95.2571 52.5385 95.8474 52.7354 96.509C52.8016 96.7315 52.4225 97.0958 52.7354 97.321L52.7379 97.4001C52.6737 97.4606 52.6673 97.4648 52.5916 97.5106C52.631 97.5486 52.6676 97.5877 52.7032 97.6292C52.679 97.8168 52.5935 98.0687 52.5784 98.2253C52.561 98.4059 52.7809 98.3792 52.5836 98.6656C52.5603 98.6284 52.7026 98.833 52.6978 98.7625C52.7315 99.254 52.5684 99.8679 52.5576 100.33C52.5445 100.895 52.7838 100.705 52.4583 101.353C52.5839 101.898 52.4657 102.399 52.4415 102.956C52.4383 103.03 52.4656 103.115 52.4674 103.192H50.0437Z" fill="#030304"/>
<path d="M71.2022 103.193L71.2196 103.144C71.2766 102.981 71.2963 102.845 71.3277 102.677L71.2971 102.634C70.9928 102.2 71.3715 102.143 71.313 101.783L71.1894 101.681C71.1801 101.558 71.251 101.443 71.2487 101.425C71.2219 101.233 71.1502 101.014 71.1157 100.821C71.075 100.632 71.2239 100.694 71.2022 100.513C71.1711 100.25 71.0177 99.8996 71.0084 99.6437C70.9928 99.2081 71.1808 99.2061 70.9146 98.8011C70.9254 98.7182 70.9332 98.6856 70.9785 98.6185C71.0564 98.5038 71.0076 98.2488 70.9897 98.0984L70.8549 98.0135C70.8518 97.8077 70.8401 97.1658 70.8518 96.9216C70.8231 96.8837 70.794 96.8461 70.7653 96.8081C70.6262 95.8201 70.5963 94.8259 70.4835 93.8391C70.458 93.6147 70.4146 93.3864 70.4146 93.1608C70.4173 93.0523 70.4576 93.01 70.5246 92.9306C70.8262 92.6131 71.2405 92.841 71.5843 92.7108C71.6808 92.674 72.17 92.8255 72.268 92.8767C72.3126 92.9926 72.358 93.1174 72.4087 93.2298C72.3626 93.4263 72.568 93.8418 72.6304 94.0852C73.0506 95.7174 73.256 97.3937 73.4781 99.0608C73.4971 99.203 73.6483 99.3527 73.6677 99.474C73.7227 99.8186 73.5948 100.333 73.7239 100.649C73.8568 100.975 73.7719 101.288 73.82 101.634C73.8506 102.077 73.9429 102.548 73.9204 102.989C73.9161 103.079 73.9266 103.109 73.9487 103.193H71.2022Z" fill="#030304"/>
<path d="M64.3102 64.4385C64.4485 64.4571 65.1512 64.7827 65.3109 64.8885C66.1958 65.4718 67.24 66.3889 67.6369 67.397C67.7869 67.7784 67.4276 67.9141 67.1136 67.9749C66.6582 67.7497 66.49 67.5528 66.2404 67.1206C65.9164 67.5168 64.8074 69.3183 64.9036 69.7765C65.1966 70.0059 67.5683 70.3125 67.6202 70.7571C67.816 72.4462 65.2605 71.2811 64.59 70.8474L64.5416 70.8745C64.4245 71.123 64.3892 72.861 64.4505 73.1606C64.5594 73.2517 67.3342 73.0094 67.6605 73.6691C68.4877 75.3404 65.3605 74.5718 64.6617 74.4249C64.7927 74.9276 65.235 76.549 65.5388 76.8714C65.6997 76.8889 65.8078 76.7079 65.9551 76.6935C66.6268 76.6288 68.333 75.9373 68.5726 76.9249C68.7857 77.8036 67.9121 77.8726 67.2613 77.9389C66.7497 78.0307 66.6923 78.0447 66.1799 77.9962C66.8276 79.1618 67.6109 79.8552 68.1191 81.2916C68.7419 80.7342 69.6602 80.3319 70.371 80.9734C70.3943 81.0656 70.4199 81.1633 70.4381 81.2563C70.483 81.4796 70.4311 81.7114 70.2954 81.8939C70.0102 82.2777 69.3055 82.4505 68.8536 82.5164C69.2854 83.3474 68.9284 83.5199 68.0904 83.4947C67.7342 83.156 66.8547 81.3277 66.5253 80.8056C65.2392 78.7652 63.9954 77.3366 63.4722 74.8982C62.9338 72.3881 63.0493 70.0869 64.3698 67.8044C64.6842 67.2613 64.9958 66.8191 65.3997 66.3377C65.4443 66.285 65.4078 66.18 65.3621 66.1296C65.078 65.8133 63.8423 65.0939 64.0737 64.5958C64.1636 64.5412 64.2253 64.4989 64.3102 64.4385Z" fill="#030304"/>
<path d="M70.3315 84.4123C70.4986 84.379 70.8149 84.4701 70.9494 84.5573C71.311 84.7918 71.3951 85.1228 71.4986 85.498C71.3125 85.9073 70.9652 86.46 70.4265 86.2635C70.1932 86.3538 69.7904 86.2073 69.6358 86.0228C69.1296 85.4174 69.1536 85.0282 69.6823 84.5484C69.9048 84.5073 70.1129 84.4728 70.3315 84.4123Z" fill="#030304"/>
</g>
<defs>
<clipPath id="clip0_292_2793">
<rect width="79.38" height="79.38" fill="white" transform="translate(23.8125 23.8125)"/>
</clipPath>
</defs>
</svg>
