<svg width="127" height="127" viewBox="0 0 127 127" fill="none" xmlns="http://www.w3.org/2000/svg">
<rect width="127" height="127" rx="63.5" fill="#AFD300" fill-opacity="0.5"/>
<g clip-path="url(#clip0_292_3063)">
<path d="M58.0547 28.1718C58.793 28.0423 60.181 28.4545 60.8408 28.8151C61.1289 28.9725 61.2685 29.2394 61.6195 29.2385C61.7345 29.3226 61.9637 29.5563 62.0341 29.6735C62.2171 29.9788 62.4601 29.9368 62.6092 30.1659C62.5875 30.285 62.5856 30.2462 62.5992 30.3633C62.7891 30.4453 62.9317 30.4515 62.8728 30.6713C63.4294 30.9202 62.9972 31.0415 63.4763 31.3942L63.522 31.4271C63.6398 31.8101 63.9797 32.2901 64.1169 32.6823C64.2324 33.0132 64.2448 33.088 64.4824 33.3583C64.4475 34.0556 65.1711 34.9789 65.2044 35.9299C65.5668 36.2195 65.9548 38.3983 66.3207 38.8551C66.3796 38.9287 67.9256 38.7328 68.0752 38.7154C72.7865 38.1673 77.6572 37.8316 82.2976 39.0273C82.4828 39.075 82.8243 39.2801 83.013 39.3684C83.6471 39.6649 84.2289 40.0218 84.7567 40.4914C85.1176 40.8125 84.6719 40.7822 85.304 40.9997C85.3714 41.023 86.1016 42.4527 86.126 42.6056C86.1353 42.7257 86.0667 43.251 86.0559 43.3739C86.1315 43.4786 86.145 43.5028 86.2008 43.6128C86.2152 43.8092 86.0865 43.8268 86.0559 44.0676C85.9167 45.1552 85.3904 46.2195 85.0505 47.2606C85.0253 47.3378 84.8459 47.5788 84.7947 47.6494C84.8393 48.2608 83.9304 49.4065 83.775 50.0759C83.7696 50.0983 83.4359 50.4685 83.3723 50.5736C83.415 50.6606 83.3983 50.617 83.4243 50.7039C83.0906 51.1162 82.8689 51.5039 82.5731 51.9372C82.2329 52.4357 81.8639 52.8998 81.4771 53.362C81.4383 53.4084 81.3364 53.5518 81.3081 53.6054C81.2856 53.6475 81.362 53.739 81.274 53.8293C81.2686 53.8346 81.0732 53.9149 81.0713 53.9176C80.7101 54.4384 80.2276 55.0357 79.8318 55.5105C80.4252 56.1795 81.1294 57.3918 81.4752 58.2155C81.5507 58.3881 81.7879 58.629 81.8441 58.7976C81.9817 59.2103 82.1456 59.5758 82.3053 59.9793C82.7476 61.0989 82.5371 62.7121 82.0875 63.7946C81.8147 64.4516 81.2523 65.1531 80.5826 65.3957C80.8791 66.0391 80.6244 67.0599 80.5178 67.7289C80.4547 68.1261 80.3721 68.0335 80.295 68.2649C80.6233 68.6366 80.2849 68.7025 80.157 69.0827C80.2419 69.3032 80.1958 69.371 80.0795 69.5842C79.9388 69.8427 79.9749 70.1376 79.9272 70.4314C79.8415 70.507 79.826 70.5167 79.7598 70.6078C79.8787 70.8132 79.628 71.069 79.4974 71.2798C79.5706 71.469 79.6036 71.3849 79.5667 71.586C79.3784 71.7937 79.4028 71.7674 79.5133 72.0057C79.373 72.2414 79.164 72.727 79.0889 72.9968C79.0385 73.1793 79.0873 73.303 78.992 73.5638C78.9009 73.6289 78.8668 73.6382 78.8245 73.7397C78.8776 73.827 78.89 73.8293 78.8989 73.9281C78.8249 74.0266 78.7807 74.0723 78.697 74.1587C78.6838 74.2824 78.7152 74.2796 78.797 74.4134L78.7769 74.4913C78.5036 74.6982 78.5606 74.7482 78.4939 75.1443C78.4362 75.18 78.4052 75.2017 78.3513 75.2431C78.423 75.3823 78.4405 75.3637 78.4346 75.4982C78.3591 75.5823 78.3067 75.6265 78.2695 75.7342C78.2815 75.7489 78.2936 75.7637 78.3056 75.7784C78.4753 75.9586 78.0056 76.8624 77.9761 77.1275C77.9413 77.2961 78.0808 77.5353 78.0517 77.6942C78.0254 77.8399 77.9106 77.8038 77.875 78.0174C77.9223 78.1174 77.9475 78.1465 77.9475 78.2565C77.7161 78.5484 77.7878 78.5282 77.8544 78.8739C77.7583 79.0201 77.692 79.0856 77.6986 79.2487L77.8122 79.2914C77.8618 79.4022 77.7789 79.4037 77.7126 79.603C77.7591 79.6712 77.7948 79.7266 77.837 79.7975C77.7913 80.1487 77.5727 80.1227 77.8335 80.4176C77.8637 80.5913 77.8219 80.5982 77.763 80.7936C77.7893 80.937 77.868 81.035 77.9478 81.1583C77.8351 81.5761 78.0773 82.5078 78.1521 82.9578C77.9618 83.3442 78.2866 83.362 78.3157 83.7322C78.3532 84.2077 78.5211 84.2701 78.3668 84.7038C78.4164 84.8116 78.492 84.848 78.5932 84.9298C78.5858 84.9712 78.5501 85.1778 78.5559 85.2026C78.6377 85.5619 78.5625 85.8522 78.816 86.1355C78.8211 86.2677 78.8269 86.2196 78.7168 86.3502C78.7032 86.5351 78.9086 86.8033 78.9501 86.9858C79.0129 87.2626 78.8974 87.6831 79.0997 87.8924C79.2327 88.03 79.1191 88.1625 79.1017 88.2834C79.0978 88.311 79.2338 88.3424 79.2982 88.5563C79.1621 89.016 79.4322 89.0725 79.5144 89.4659C79.6198 89.9694 79.8128 90.5465 79.8229 91.0554C80.109 91.3061 80.0059 91.2371 79.9946 91.5697C79.9923 91.6371 80.1919 92.0007 80.2341 92.1003C80.1911 92.1983 80.1683 92.2262 80.1702 92.3328C80.564 92.7343 80.0861 93.008 80.5396 93.3389C80.6194 93.3975 80.5264 93.7897 80.5593 93.8947C80.7733 94.5718 80.9225 95.2737 81.1093 95.9597C81.2248 96.4353 81.0938 96.7891 81.3503 97.274C81.2786 97.4918 81.21 97.772 81.1484 97.998C80.9004 98.1018 80.7585 98.1778 80.5233 98.3088C79.3055 98.322 78.0606 98.2747 76.8324 98.3088C75.4492 98.3468 74.0667 98.3863 72.6827 98.3786C71.837 98.3824 70.9917 98.4096 70.1475 98.4607C69.822 98.4828 69.4829 98.5386 69.1585 98.5448C66.1625 98.6026 63.0933 98.8433 60.1015 98.7797C59.9332 98.6247 59.8896 98.5503 59.7912 98.3452C59.7671 98.2948 59.1212 98.3828 59.044 98.3824C56.9436 98.365 54.8431 98.3739 52.7428 98.4088C51.505 98.4282 50.2244 98.4824 48.9856 98.4371C48.6146 98.4231 48.3188 98.3216 47.9722 98.1937C47.8701 97.1372 48.0356 97.5972 48.2373 96.755L48.2512 96.6953C48.7675 96.5504 48.865 96.3709 49.3093 96.1194C49.6713 95.9148 50.0164 95.6919 50.376 95.4888C50.6409 95.3396 51.0292 95.2419 51.3067 95.1036C51.4295 95.0447 51.7268 94.7768 51.9081 94.6633C51.9356 94.6683 52.1578 94.7067 52.165 94.7028C53.0749 94.2385 54.0222 93.9098 54.9228 93.4215C54.9181 93.2514 54.6872 93.001 54.66 92.8417C54.5772 92.3568 54.8178 91.9495 54.4907 91.5735C54.536 91.6259 54.4901 90.9263 54.3904 90.6589L54.3699 90.605C54.5466 90.4027 54.3921 90.3957 54.3527 90.1244L54.4341 90.0291C54.4657 89.8535 54.2602 89.6291 54.2425 89.4562C54.2334 89.3679 54.2941 89.1276 54.2767 89.0559C54.1197 88.4063 54.1081 87.7587 54.0783 87.0944C54.0683 86.8719 54.0075 86.6444 54.0019 86.4196L54.1152 86.3274L54.121 86.2514C54.0439 86.1533 54.021 86.132 53.9659 86.0181C53.9934 85.9789 54.0138 85.951 54.0444 85.9138L54.0695 85.8836C53.8405 85.4941 54.019 85.6534 54.023 85.4542C54.0316 85.0398 53.7967 83.993 53.9214 83.6322C54.0816 83.1682 53.8217 82.3726 53.8892 81.9722C54.0071 81.273 54.0549 81.5273 53.8959 80.8103C53.9695 80.67 54.0034 80.6304 54.0086 80.4731C54.0334 79.7146 54.1384 77.9736 54.3502 77.2868C54.3317 77.236 54.3118 77.1775 54.2972 77.1264C54.262 77.0031 54.428 76.893 54.4314 76.8593C54.4688 76.4861 54.5233 76.1082 54.5487 75.7327C54.5925 75.6865 54.63 75.647 54.6611 75.6144C54.8758 74.6498 55.0738 73.6983 55.3728 72.7499C55.5308 72.2491 55.6356 72.2433 55.6549 71.6887L55.8385 71.5391C55.929 70.8558 56.103 70.426 56.3688 69.8055C56.433 69.6559 56.4848 69.3819 56.5503 69.2346C56.6284 69.0594 56.7029 69.0036 56.782 68.8071C56.6253 68.4897 57.0147 68.3742 57.0547 68.0502C57.1563 67.2305 58.8892 63.4791 59.3224 62.5734C59.0823 62.3395 58.8008 61.6455 58.6464 61.2945C58.3084 60.5266 57.9668 59.817 57.558 59.0823C57.224 58.4822 56.9599 57.8046 56.6234 57.1965C56.1134 56.2747 55.6303 55.3396 55.1413 54.4071C55.0107 54.1548 54.8377 53.9362 54.6788 53.6481C54.433 53.2029 54.2007 52.5483 53.8871 52.1637C53.8495 52.1177 53.7919 52.1225 53.7647 52.001C53.6725 51.5882 53.4698 51.4029 53.2745 51.0524C52.9698 50.5056 52.6615 49.962 52.3379 49.424C52.2362 49.2549 52.3404 49.2022 52.2528 49.0835C51.9286 48.6441 51.7285 48.1524 51.4203 47.7047C51.426 47.6562 51.4316 47.6077 51.4373 47.5592C50.864 46.7633 50.2184 44.8566 49.8674 43.8788C49.8366 43.7932 49.673 43.4699 49.6845 43.4316C49.751 43.1606 49.5038 42.9622 49.4276 42.6931C49.0547 41.3746 48.9333 40.1425 48.7612 38.7975C48.9908 38.3925 48.8073 38.445 48.7883 38.047C48.7638 37.5306 49.1229 36.522 49.0888 36.1091L49.0834 36.051C49.1653 35.946 49.1917 35.9246 49.2301 35.7979C49.6742 34.3333 50.5513 32.9934 51.5767 31.8856C53.097 30.2433 54.6038 28.7284 56.8884 28.2765C57.2624 28.2026 57.6772 28.1886 58.0547 28.1718Z" fill="#02192B"/>
<path d="M57.1914 28.9777C59.2072 28.7224 60.7978 30.3852 61.4943 32.0837C61.5395 32.1939 61.7848 32.393 61.816 32.5098C61.8496 32.6351 61.743 32.6386 61.8028 32.8303C62.0462 33.0455 61.9861 33.0521 61.9853 33.3642C62.2395 33.6838 62.2548 33.8592 62.3667 34.2414L62.4924 34.3075C62.4939 34.4415 62.4715 34.9731 62.5226 35.0139C62.8326 35.2617 62.6931 35.6451 62.8163 35.991C62.8737 36.1511 63.0469 36.3246 63.0989 36.5249C62.957 36.7996 63.002 36.7915 63.2055 37.0184C63.2651 37.4273 63.4031 38.0311 63.583 38.3958C63.6659 38.5642 63.8791 38.5369 63.7008 38.8099C63.7143 38.9971 64.017 39.4262 64.1217 39.6362L64.0465 39.788C64.0973 39.9566 64.3721 40.1187 64.5468 40.138C64.9042 40.1772 65.1743 40.0625 65.5231 40.0038C66.0561 39.9116 66.5901 39.8227 67.1246 39.7373C67.8094 39.6334 68.7443 39.558 69.4582 39.4863C72.8514 39.1456 76.6717 38.8954 80.0223 39.5783C80.5261 39.682 81.0175 39.8378 81.4892 40.0432C81.7342 40.1525 81.8497 40.2753 82.1345 40.3668C82.4868 40.48 83.0085 40.9738 83.2887 41.2402C83.2887 41.2402 83.2949 41.4026 83.3848 41.5147C83.5034 41.526 83.5081 41.5181 83.6108 41.5731L83.6329 41.6594C83.4329 42.0039 83.762 41.9568 83.805 42.3648C83.81 42.4146 83.6612 42.5404 83.6104 42.5913L83.6217 42.6453C83.7488 42.7292 83.8693 42.7745 83.843 42.9389C83.7565 43.0164 83.743 43.0276 83.6732 43.1195C83.6953 43.267 83.7162 43.2475 83.8306 43.3834C83.824 43.557 83.7085 43.5385 83.7007 43.5895C83.6802 43.7292 83.7507 43.6246 83.6162 43.7957C83.555 43.8159 83.5023 43.8224 83.4379 43.8266C83.4852 43.9799 83.5375 43.8451 83.6744 44.0027C83.605 44.1365 83.5348 44.2698 83.4705 44.4061L83.5565 44.5438L83.5375 44.5993L83.3814 44.666L83.3697 44.718C83.4217 44.8003 83.4744 44.8822 83.5275 44.9637C83.4627 45.0371 83.3097 45.1388 83.2798 45.2064C83.1837 45.4239 83.2038 45.5666 83.0953 45.802C82.986 45.8607 83.0081 45.8281 82.9484 45.9188L83.0535 46.0202C83.0725 46.2031 83.0236 45.9864 82.9147 46.1753C82.974 46.2628 82.9794 46.2563 82.9763 46.3598C82.8946 46.4133 82.8306 46.4512 82.7465 46.4991L82.7341 46.5817L82.8147 46.6759C82.7953 46.814 82.5016 46.8622 82.5081 47.0813L82.6419 47.1457C82.6333 47.2804 82.4566 47.4856 82.3647 47.6191C82.4589 47.9356 82.3291 47.9889 82.0714 48.0839C81.9718 48.2852 82.1105 48.0743 82.1686 48.2824C82.0617 48.5317 81.9493 48.5148 81.8458 48.6961C81.9039 48.7646 81.8876 48.7406 81.9245 48.832L81.8845 48.9158C81.764 48.974 81.7582 48.9579 81.6892 49.0594L81.747 49.2007C81.6179 49.3673 81.4361 49.2445 81.3505 49.4794L81.4133 49.5712C81.3923 49.7169 81.1737 49.7052 81.1776 49.9245C81.252 49.9981 81.2811 50.0105 81.316 50.1059C81.1555 50.2583 80.8951 50.4472 80.7928 50.6138C80.8362 50.6978 80.8943 50.7357 80.9664 50.7971C80.8129 50.9162 80.668 50.7925 80.5776 50.9576C80.6462 51.056 80.6319 51.016 80.659 51.1276L80.5102 51.2705C80.4769 51.395 80.4788 51.4131 80.4079 51.5241C80.3246 51.5522 80.2916 51.5625 80.2064 51.5752L80.1389 51.5849L80.1242 51.6549L80.2269 51.7853C80.247 52.0044 79.7862 51.8828 79.9335 52.217C79.9711 52.3019 79.642 52.4203 79.5827 52.5507C79.6471 52.6547 79.6405 52.6111 79.6428 52.72C79.43 52.8536 79.3312 52.8543 79.3269 53.1132C79.0103 53.5237 78.0096 54.9934 77.8484 55.4955C77.8177 55.8959 78.2972 56.3285 78.4379 56.6006C79.425 58.5096 80.7257 60.7646 80.3374 62.9933C80.3036 63.1875 80.1083 63.7324 79.961 63.8308C79.7308 63.6855 79.4331 63.0076 79.2781 62.7204C78.2902 60.8892 77.0159 59.0855 75.6167 57.5496C75.264 57.1621 74.3501 57.5697 74.4416 58.2084C74.4993 58.6137 74.5625 60.2496 74.235 60.4751C73.8622 60.3889 73.0564 58.0768 72.9564 57.632C72.7855 56.8734 72.4735 56.0925 72.8622 55.3559C73.2843 54.5563 73.7176 53.7717 74.1067 52.9558L76.8988 46.9743C76.6376 46.7036 76.6124 46.5945 76.2535 46.5734C75.8609 46.5504 75.5218 46.6005 75.1384 46.6138C73.8432 46.6588 72.5739 46.781 71.2875 46.9233C70.3756 47.0155 69.464 47.0791 68.5571 47.2196C68.1827 47.2776 67.3781 47.213 67.4133 47.7855C67.4347 48.1365 67.6583 48.3898 67.909 48.6144C68.423 48.6698 69.1791 48.5569 69.7043 48.4844C69.9221 48.7922 70.6941 50.0589 70.8972 50.1945C71.0984 50.3289 70.9635 50.3347 71.0368 50.4879C71.1445 50.7139 71.4135 50.8794 71.534 51.1131C71.8363 51.6977 72.2072 52.3379 72.5913 52.8703C72.3561 53.2957 71.4604 55.0353 71.3333 55.4491C70.9596 56.6627 72.1169 59.1408 72.6409 60.2667C72.8882 60.7971 73.3688 61.4867 73.9436 61.665C74.4102 61.8097 74.7268 61.6504 75.1257 61.4563C75.6531 60.6919 75.652 60.0439 75.5249 59.1484C75.7694 59.4067 75.9892 59.7372 76.2062 60.0167C77.1949 61.2877 78.0379 62.6379 78.6685 64.1211C78.6685 64.1211 78.6285 64.2653 78.6247 64.2789C79.5502 66.7198 77.6507 71.5753 77.0988 74.0721C77.11 74.0213 76.6539 75.7414 76.7337 75.6588C76.3876 76.0169 76.7387 75.8526 76.6663 76.1204L76.5415 76.1545C76.4775 76.358 76.6263 76.2444 76.576 76.5088C76.2101 76.8936 76.5205 76.7405 76.4608 77.0002C76.3434 77.5137 76.2853 78.0183 76.2159 78.5389C76.3287 78.7954 76.3504 78.7699 76.1597 78.9396C76.1446 79.0989 76.2213 79.0578 76.2748 79.2714C76.2054 79.3729 76.183 79.3869 76.1667 79.5086C76.2097 79.6113 76.2299 79.6446 76.2473 79.7551C76.0128 79.995 76.2558 79.9159 76.2892 80.1767C76.2132 80.2717 76.1624 80.3182 76.133 80.4364C76.1733 80.7027 76.407 80.6961 76.2481 80.8879C76.1089 81.0565 76.3287 81.4158 76.3756 81.6371C76.1946 81.9894 76.4752 81.9693 76.4969 82.3506L76.3919 82.4549C76.4054 82.6696 76.55 83.0556 76.6178 83.2839L76.5298 83.3955C76.5136 83.5851 76.6182 83.4951 76.6876 83.7118C76.6527 83.7711 76.6364 83.8033 76.6077 83.8661C76.7287 84.2013 76.729 84.2494 76.7135 84.6067C76.955 84.928 76.8418 85.3501 76.9488 85.7427C76.9806 85.8582 77.1042 85.8508 77.105 85.9543C77.0833 85.9702 76.9507 86.1264 76.9953 86.1609C77.2716 86.376 77.1403 86.5438 77.1658 86.9108C77.2244 86.9903 77.2422 87.0159 77.2879 87.1027L77.2317 87.2593C77.2744 87.3825 77.3317 87.4465 77.4081 87.5507C77.3887 87.6224 77.3689 87.6871 77.3465 87.7581C77.6302 88.5537 77.7627 89.8161 78.0747 90.6246C78.2193 90.9986 78.0336 91.2861 78.2735 91.4334C78.3317 91.5423 78.315 91.8249 78.3196 91.9721C78.3534 92.0024 78.441 92.0919 78.4522 92.1295C78.5599 92.4783 78.5979 92.8655 78.6262 93.224C78.6394 93.3864 78.8747 93.905 78.9343 94.079C78.9212 94.1286 78.9084 94.1778 78.8952 94.2271C79.1208 94.9158 79.4196 96.4475 79.4599 97.159C78.9491 97.1912 78.4173 97.1377 77.915 97.1742C76.4027 97.2842 74.8036 97.1869 73.3083 97.2986C70.0667 97.2571 66.8103 97.4249 63.5698 97.4737C63.1221 97.4807 62.5401 97.5563 62.1087 97.5117L62.1002 97.4683C62.2326 97.3253 62.4036 97.316 62.5171 97.2141C63.1171 96.6738 67.5067 94.7076 67.7025 94.2011C67.9474 93.5666 67.1913 91.1098 67.1413 90.3343C67.2533 90.1091 67.0355 90.0889 67.0099 89.9653C66.913 89.4967 66.4739 86.8364 66.2398 86.6194C66.2084 85.7466 65.8886 84.516 65.7003 83.6498C65.6627 83.4754 65.7568 83.4343 65.7266 83.3017C65.7076 83.2184 65.584 83.1769 65.5627 83.0812C65.5286 82.9886 65.651 82.6975 65.62 82.6278C65.3697 82.0631 65.4057 81.5499 65.3801 80.9507C65.3794 80.9313 65.2278 80.855 65.2344 80.7484C65.2608 80.3155 65.2921 79.9628 65.1177 79.5547C65.077 79.4512 65.0635 79.3636 65.1088 79.2559C65.2146 79.0047 65.06 78.7481 64.9937 78.4424C65.0418 78.3346 65.0705 78.3028 65.0553 78.1885C64.7817 77.8846 65.055 77.9087 65.0224 77.7548C64.9255 77.3025 64.9329 76.8343 64.8519 76.3863C64.7837 76.0103 64.8774 75.751 64.874 75.3739C64.8697 75.2123 64.7464 74.8658 64.7546 74.7561C64.7697 74.5457 64.8395 74.3748 64.8437 74.1384C64.5496 73.7074 64.9588 73.3167 64.7856 72.8167C64.7449 72.6997 64.6968 72.5791 64.7538 72.4605C64.9809 71.8435 64.7205 71.1998 64.8736 70.518C64.9712 70.0816 65.2092 67.3868 65.0069 67.1419C64.7852 67.0702 64.3 67.0473 64.0469 67.0252C63.9112 67.1035 63.7938 67.1725 63.7093 67.3097C63.5279 67.6054 63.4783 67.9585 63.445 68.2984C63.3934 68.8294 63.3244 69.3611 63.3155 69.8952C63.283 69.9278 63.2504 69.9603 63.2179 69.9929C63.1946 70.0518 63.1934 70.0774 63.2093 70.1394C63.3132 70.5362 63.1582 71.068 63.1155 71.4831C63.0853 71.7757 62.9349 73.7868 62.9969 73.9341C63.0942 74.1655 62.9838 74.2732 62.95 74.5042C63.1931 74.8856 62.9272 75.3883 63.0055 75.7456C63.1555 76.4308 63.102 77.0386 63.1628 77.7257C63.2764 79.007 63.333 80.2953 63.5674 81.5639C63.5969 81.7232 63.4791 81.9018 63.4973 82.1034C63.7318 82.4088 63.65 82.751 63.7074 83.1308C63.7763 83.5847 63.8221 84.0467 63.8729 84.5036C63.9322 85.0388 64.1321 85.5047 64.0845 86.0508C64.3193 86.4322 64.3577 87.0728 64.4503 87.5286L65.1061 90.6997C65.2429 91.3361 65.4592 91.9613 65.4883 92.614C65.4918 92.6973 65.8088 93.5907 65.6832 93.6465C64.1759 94.317 60.7774 96.113 59.872 97.249C59.2272 97.097 58.579 97.199 57.9194 97.1796C55.827 97.1191 53.7317 97.2265 51.6392 97.254C51.2866 97.2586 50.8954 97.3009 50.5471 97.271C50.7177 96.9432 55.6551 94.6123 56.3545 94.2918C57.7313 93.6604 56.9603 93.4938 56.8873 92.1508C56.6119 91.7353 57.1441 91.1644 56.4802 90.7846C56.587 90.6381 56.7144 90.4827 56.8272 90.3385C56.7693 90.1374 56.5583 89.3382 56.6321 89.1735C56.7594 88.8898 56.5601 89.0022 56.5241 88.7898C56.5202 88.7669 56.6374 88.6165 56.6311 88.4592C56.3462 88.1305 56.59 87.8042 56.5002 87.4337C56.3502 86.8147 56.3475 86.2489 56.3235 85.6128C56.3064 85.5861 56.1943 85.4082 56.1951 85.397C56.2146 85.1458 56.3651 84.3951 56.1917 84.1854C56.0197 83.9777 56.2334 83.8339 56.2482 83.7106C56.2653 83.5692 56.1338 82.9913 56.1164 82.8169C56.1025 82.6774 56.2512 82.5595 56.2437 82.4165C56.2354 82.2553 56.1362 81.8266 56.1407 81.6922C56.1495 81.4224 56.2448 81.0267 56.2748 80.743C56.2983 80.5217 56.1434 80.4589 56.1836 80.3616C56.2685 80.1566 56.3956 80.0566 56.3227 79.8116C56.2991 79.7322 56.2893 79.6648 56.3107 79.5779C56.4324 79.4338 56.4999 79.3865 56.5158 79.2101C56.437 79.1357 56.4294 79.1326 56.3719 79.0427C56.4468 78.9408 56.4568 78.9427 56.4844 78.8226C56.4778 78.8047 56.4712 78.7865 56.4646 78.7683L56.44 78.697C56.3255 78.3726 56.5844 78.1288 56.6341 77.8187C56.6519 77.7075 56.5534 77.3068 56.5733 77.1684C56.5831 77.1002 56.618 77.106 56.7078 77.0463C56.76 76.8514 56.6159 76.9432 56.6228 76.7068C56.7133 76.6208 56.8263 76.5425 56.8434 76.4293C56.7938 76.3746 56.7794 76.3557 56.7382 76.2944L56.8294 76.0727C56.7281 75.5138 57.0144 75.217 57.1469 74.7104C57.1709 74.6186 57.1326 74.6073 57.0627 74.5034C57.0546 74.331 57.0977 74.4046 57.1841 74.2608C57.502 73.7314 57.3246 73.1202 57.7216 72.5388L57.6569 72.3695C57.8025 72.078 58.0302 71.404 58.1449 71.0726L58.0853 70.9568C58.1234 70.7541 58.4206 70.3634 58.5045 70.1502C58.553 70.0274 58.5182 70.027 58.4449 69.8863C58.4683 69.7394 58.7537 69.2689 58.8354 69.0623L58.7793 68.9456C58.8023 68.8251 59.1378 68.1166 59.212 67.9302C59.1372 67.6283 59.2607 67.7682 59.391 67.5318L59.3378 67.3965C59.4319 67.1523 59.5225 66.9706 59.6387 66.7369C59.5916 66.3094 59.7966 66.3039 59.926 65.9024C59.9319 65.8501 60.1191 65.3997 60.1191 65.3997C59.9808 65.1835 60.2525 64.9498 60.3293 64.7025C60.388 64.5134 60.5143 64.2382 60.5803 64.0273C60.6921 63.6708 61.1151 62.9987 61.1318 62.6441C61.0643 62.5863 61.0354 62.5646 60.9796 62.4961C61.0574 62.1394 61.0112 62.1545 60.8602 61.8368C60.1652 60.3741 59.4013 58.9716 58.6126 57.558C57.2436 55.1044 55.9696 52.599 54.5528 50.17C54.3849 49.8822 54.2896 49.5312 54.1523 49.2277C53.6063 48.3908 53.2965 47.469 52.8221 46.5935C52.8411 46.49 52.8453 46.4901 52.8321 46.3873C52.4399 46.0587 51.814 43.934 51.6237 43.3713C51.1565 41.9893 50.8263 40.4741 50.6531 39.0251C50.6466 38.9707 50.7033 38.7228 50.7082 38.6171C50.4499 38.1556 50.7655 37.9889 50.7412 37.4723C50.5239 37.1442 50.7344 37.1756 50.7777 36.8416C50.8232 36.4908 50.875 36.1559 50.961 35.8116C51.6451 33.0733 53.3993 30.3641 56.0842 29.2555C56.4086 29.1216 56.8475 29.0411 57.1914 28.9777Z" fill="#D0E568"/>
<path d="M74.8969 47.9396C74.9236 47.9361 74.9504 47.949 74.9767 47.9554L74.9822 48.0236C74.7857 48.4627 74.4221 49.1348 74.2609 49.5747C74.1853 49.7807 73.5121 51.1958 73.4761 51.234C73.1854 51.1891 72.9106 50.3974 72.5994 50.1416C72.3102 49.7 71.6886 48.6561 71.2971 48.3284C72.2901 48.1392 73.8524 48.0567 74.8969 47.9396Z" fill="#D1E66B"/>
</g>
<defs>
<clipPath id="clip0_292_3063">
<rect width="79.375" height="79.375" fill="white" transform="translate(23.8125 23.8125)"/>
</clipPath>
</defs>
</svg>
