<svg width="127" height="127" viewBox="0 0 127 127" fill="none" xmlns="http://www.w3.org/2000/svg">
<rect width="127" height="127" rx="63.5" fill="#AFD300" fill-opacity="0.5"/>
<g clip-path="url(#clip0_292_2958)">
<path d="M55.2925 75.5524C54.7421 75.5505 54.1586 75.5125 53.6111 75.5253C52.4113 75.5528 51.1348 75.6714 49.9281 75.5745C48.1489 75.4311 46.2031 75.3404 44.473 74.9292C43.7308 74.7528 43.0676 74.3082 42.5403 73.7892C42.0027 73.2675 41.4021 71.9815 41.2294 71.2761C40.7743 69.4175 40.5962 66.8001 40.6058 64.8954C40.6018 63.6923 40.6184 62.4892 40.6557 61.2868C40.6608 61.1139 40.7147 60.915 40.709 60.7472C40.6417 58.7486 40.7153 56.7245 40.8663 54.731C40.8884 54.4396 40.8023 54.0561 40.8219 53.7528C40.809 53.1061 40.8466 52.5422 40.8838 51.9001C41.1063 48.0655 42.4442 44.9331 45.1921 42.2188C46.7711 40.6591 48.393 39.7255 50.424 38.8409C51.8556 38.2174 53.2836 37.937 54.7758 37.5298C56.343 37.1022 57.9195 36.6321 59.5089 36.2785C59.9803 36.1737 60.5245 36.1778 61.057 36.0697C61.6957 35.94 62.4932 35.8258 63.1452 35.7573C63.3666 35.7341 63.6828 35.8479 63.9049 35.7189C64.0972 35.6073 64.6394 35.6137 64.8887 35.5947C65.3697 35.558 65.9631 35.4828 66.4383 35.4844C68.0863 35.4899 69.6968 35.617 71.3313 35.8214C72.26 35.9375 73.548 36.0568 74.4232 36.3361C74.8034 36.4574 76.0402 36.8535 76.3449 37.0063C77.5069 37.5887 79.396 38.5769 80.4259 39.3707C81.5119 40.2078 82.8158 41.6265 83.6724 42.6959C84.0046 43.1107 84.8243 44.1642 85.0619 44.6183C85.8732 46.1706 86.5666 47.7455 87.0511 49.4342C87.1682 49.841 87.2333 50.4433 87.2922 50.8673C87.3344 51.1706 87.0596 51.1171 87.3604 51.5141C87.3976 51.9534 87.3837 52.6063 87.465 53.0761C87.3337 53.2751 87.3802 53.2708 87.4317 53.4768C87.5209 53.834 87.4309 54.2567 87.4399 54.6336C87.4616 55.5251 87.3026 56.4116 87.1941 57.2937C87.1662 57.5201 87.1782 57.753 87.1461 57.9774C86.7499 59.4082 86.3457 61.0172 85.6445 62.3202C84.4476 64.5446 82.8833 66.4807 80.7154 67.814C80.1681 68.1543 79.8286 68.4586 79.1817 68.6792C79.2057 68.997 79.2809 70.2935 79.1995 70.5179C79.2526 70.6691 79.3115 70.8276 79.3581 70.9799C79.1371 71.6078 79.9569 74.8582 80.2286 75.5912C80.3488 75.9156 80.6336 76.4602 80.6511 76.7761C81.124 77.2943 81.1433 78.0513 81.6313 78.6036C83.986 81.2699 86.2674 83.9939 88.1174 87.0486C89.012 88.5261 89.8457 90.4319 90.4674 92.0552C90.8038 92.9335 91.943 94.9827 90.9527 95.7769C90.543 96.1052 89.8558 96.1711 89.6108 95.6738C89.0321 94.8474 88.7015 93.8528 88.1259 93.0556C88.1697 93.0164 88.205 92.9839 88.248 92.9424L88.215 92.9044C87.9259 92.5656 87.4224 91.6234 87.167 91.1854C87.2445 90.7199 86.8957 90.6478 86.6875 90.2443C86.7054 90.1373 86.6918 90.1773 86.7585 90.0854C86.6941 89.999 86.5546 89.9404 86.5588 89.9482C86.1379 89.1404 85.736 88.3249 85.2724 87.54C85.2468 87.4966 85.1627 87.4614 85.1189 87.442C84.272 85.7986 82.9922 84.2819 81.9732 82.7358C81.5666 82.1187 80.9875 81.5811 80.6499 80.935C80.4891 80.4772 80.1135 80.4563 79.8154 80.0528C78.7077 78.5548 78.0449 76.7547 77.4437 75.0063C77.3999 74.878 77.1553 73.5594 77.1344 73.3877C76.9681 72.0237 76.7387 70.173 76.9298 68.8249C76.9367 68.7776 76.9449 68.7303 76.9546 68.6838C75.6476 68.9416 73.822 68.8136 72.4937 68.6047C72.0235 68.5307 71.4999 68.3656 71.0208 68.2939C70.5538 68.833 70.5329 69.1648 70.4759 69.8543C71.998 71.1381 73.6026 69.34 74.4553 71.6826C73.5526 74.3904 71.2088 72.0978 70.3739 72.3702C70.3305 72.4253 70.2627 72.5086 70.2867 72.5861C70.3883 72.9129 70.3728 74.1637 70.4387 74.3819C70.5321 74.4137 72.3875 74.2175 72.6658 74.3292C72.7003 74.3427 72.8631 74.2451 72.91 74.216C73.2146 74.2024 73.6472 74.3834 74.0026 74.4051C75.1425 75.4672 74.136 76.1365 73.0216 75.7478C72.665 75.623 71.9894 75.6644 71.6751 75.5427C71.3724 75.6268 71.0937 75.6927 70.8084 75.8257L70.6468 75.9009C70.7321 76.2389 71.0038 77.5272 71.0863 77.7125C71.2716 77.6672 71.6363 77.5113 71.822 77.435C72.0437 77.3443 73.2142 77.3602 73.2937 77.3237C74.1817 76.9168 74.6224 77.0462 75.3379 77.7218C75.446 78.2594 75.3933 78.3431 74.9305 78.6792L74.8705 78.6799C74.1553 78.6823 73.4646 78.4156 72.7495 78.5986C72.3681 78.6962 72.0015 78.8354 71.6418 78.9943C71.5142 79.2319 71.8546 80.0094 72.0084 80.216C72.1286 80.3772 72.1836 80.6869 72.303 80.8048C72.4941 80.7334 72.7011 80.6082 72.8767 80.5517C73.4867 80.3551 74.1666 80.352 74.8003 80.3377C75.0294 80.2912 75.1174 80.1458 75.3604 80.1551C75.9042 80.1761 76.505 80.1997 76.905 80.6276C77.0693 80.8036 77.3092 81.2292 77.0561 81.4362C76.927 81.5416 76.7569 81.6691 76.6143 81.7548C76.1739 81.79 76.0224 81.6997 75.5972 81.6164C74.3565 81.3737 73.9728 81.4842 72.9228 82.0106C73.0693 82.2501 73.2918 82.6044 73.4712 82.8187C74.7038 84.2904 72.7984 84.8222 72.0154 83.297C70.577 84.204 68.1398 85.111 66.46 85.5885C66.2053 85.6606 65.7088 85.6478 65.4437 85.6362C64.6782 85.0796 64.2305 84.7377 64.0642 83.7354C63.9491 83.042 64.0545 82.5796 64.3092 81.9346C63.748 81.5935 63.3972 81.2896 63.2204 80.6044C63.0654 80.0028 63.1991 79.083 63.5212 78.5528C63.0677 78.2106 62.7433 77.8513 62.6693 77.2606C62.5672 76.4462 62.6588 75.8195 63.0305 75.0982C62.6731 74.666 62.5011 74.5253 62.5014 73.9454C62.2447 73.9737 61.9388 73.9989 61.6919 74.0578C61.5657 74.0117 61.408 73.9664 61.3349 73.8439C61.1286 73.4978 61.7871 73.2803 62.0164 73.192C62.5559 72.9838 63.1355 72.8338 63.6146 72.4947C64.8398 71.6512 65.4631 70.3098 66.1755 69.059C66.22 68.9811 66.284 68.9226 66.3689 68.8912C67.4313 68.9458 66.9092 69.7047 66.6332 70.2861C65.9228 71.7815 65.0375 73.0319 63.4611 73.6718C63.639 73.923 63.8398 74.1947 64.0096 74.4493C64.3297 74.454 65.0456 74.3563 65.4154 74.2358C66.334 73.9358 67.8007 73.5311 68.5732 72.9664C68.6565 72.9055 68.6352 72.6551 68.6356 72.5466C68.6367 72.0489 68.5611 71.395 68.6049 70.9094C68.7015 69.8443 69.0181 68.6489 69.7716 67.8512C70.058 67.5478 70.5534 67.2354 70.977 67.2435C71.6615 67.2571 72.3825 67.5237 73.0677 67.6136C73.2049 67.6315 73.6379 67.7067 73.7402 67.7047C74.2736 67.6939 76.841 67.7423 77.1829 67.5489C77.7813 67.2105 79.3507 65.9303 79.884 65.371C80.1267 65.1167 80.6964 64.3039 80.9631 63.9904C80.967 63.9462 80.9709 63.9024 80.9747 63.8586C81.0011 63.8059 81.3116 63.7423 81.3116 63.7423C81.5406 63.4524 81.3364 63.3904 81.6798 63.2272C81.8286 62.9001 81.4119 62.7656 81.7809 62.6489C82.2022 62.5156 82.234 62.229 82.4414 61.8948C82.4581 61.868 82.3313 61.5767 82.4147 61.45L82.5895 61.444L82.636 61.37L82.5988 61.2175L82.6472 61.142C82.8174 61.1105 82.8274 61.1395 82.9185 61.0391C82.8604 60.8647 82.7654 60.7779 82.7968 60.6639L82.9201 60.6482C82.9042 60.4699 82.8588 60.3483 82.9344 60.1996C82.9988 60.1566 83.048 60.1258 83.115 60.0874C83.1457 59.9566 83.1271 59.9829 83.0635 59.8294C82.9763 59.9281 83.0274 59.8998 82.9158 59.9342L82.8526 59.8734C82.8581 59.7531 82.8674 59.7578 82.9344 59.654L82.9627 59.6525C83.0333 59.5959 83.0472 59.5901 83.1286 59.5484C83.2166 59.4154 83.348 59.3904 83.4848 59.298C83.4767 59.2129 83.4724 59.2058 83.4395 59.1297C83.524 59.0805 83.536 59.074 83.6088 59.0096C83.6123 58.779 83.5302 58.9936 83.3813 58.7748L83.4015 58.6865C83.5251 58.6058 83.4968 58.6324 83.672 58.6313C83.7395 58.5646 83.7147 58.6037 83.7302 58.5026L83.6329 58.38L83.6774 58.317C83.8011 58.2791 83.8042 58.2828 83.9104 58.2126C83.9197 58.0655 83.8212 58.1044 83.7391 57.8982C83.8945 57.7817 83.8879 57.636 83.9542 57.4708C84.0635 57.1976 84.0294 57.1237 83.9371 56.8777L83.9181 56.8252C83.7868 56.6881 83.5414 56.569 83.672 56.3103C83.8054 56.2199 83.9026 56.2328 84.0716 56.221C84.2054 56.1116 84.2267 56.1342 84.2507 56.0056C84.1992 55.9384 84.1484 55.8706 84.0984 55.8024C84.117 55.691 84.141 55.6698 84.2007 55.5739C84.1573 55.3351 84.0368 55.4847 84.134 55.3077C84.2154 55.1603 84.2592 55.2173 84.2577 55.0636L84.1313 54.9694L84.1243 54.8983C84.2057 54.8057 84.2286 54.7925 84.3247 54.7195L84.3352 54.6633C84.2809 54.5986 84.2337 54.5402 84.1825 54.473C84.2224 54.3241 84.4402 53.8399 84.4088 53.7949C84.1612 53.4365 84.4534 53.2656 84.4588 52.8997C84.3635 52.7517 84.2019 52.5473 84.1794 52.3883C84.2185 52.3026 84.2236 52.3099 84.3065 52.2607C84.4313 51.8608 84.1984 51.5592 84.1914 51.1686C84.1906 51.1247 84.3515 51.0114 84.3492 51.0005C84.2577 50.5852 84.0554 50.1814 83.9794 49.7578C83.9782 49.7504 84.0592 49.6515 84.0767 49.6302C84.0406 49.2277 83.6883 48.3903 83.6976 48.0964C83.6992 48.0456 83.7697 47.9709 83.7697 47.9209C83.7705 47.6057 83.0693 46.6178 83.1716 46.4115C83.198 46.3584 83.2189 46.3077 83.2387 46.2521C83.1871 46.1501 83.1274 46.1289 83.0286 46.0698C82.9108 45.8197 82.8716 45.5448 82.7635 45.2919C82.603 44.9167 82.1526 44.4294 82.1073 44.0564C82.0732 43.7774 81.7604 43.463 81.5999 43.2309C80.5391 41.696 79.6546 40.6536 78.1472 39.5087C77.1375 38.742 75.9119 37.9823 74.7243 37.5268C74.0096 37.2528 73.2642 37.1047 72.5181 36.9489C69.748 36.3705 66.8627 36.0845 64.0445 36.4698C63.4774 36.5474 62.9045 36.5971 62.3396 36.6864C61.8405 36.7653 61.3473 36.8788 60.8487 36.9596C60.5639 37.0057 60.2736 37.0249 59.9909 37.082C59.312 37.2192 58.5834 37.3673 57.9245 37.578C57.4556 37.7279 57.0069 37.9346 56.5371 38.0841C55.7413 38.3376 54.9311 38.5653 54.1513 38.865C51.1192 40.0305 48.2785 41.8958 46.3064 44.5128C45.2276 45.9444 44.3185 47.7155 43.8838 49.4558C43.6854 50.2499 43.6023 51.054 43.5225 51.8663C43.3493 53.6302 43.3062 55.3944 43.2717 57.1639C43.2637 57.5766 43.2261 57.988 43.2193 58.4015C43.2002 59.5643 43.2349 60.7319 43.2508 61.895C43.2828 64.2319 43.3322 66.5776 43.6687 68.895C43.8379 70.0602 44.2007 72.5551 45.1654 73.2927C45.3528 73.4357 45.5894 73.5222 45.8174 73.5765C46.2464 73.6784 46.7079 73.6958 47.1457 73.7482C47.9977 73.8501 48.8285 73.928 49.6843 73.985C49.992 74.0055 50.2982 74.0528 50.6066 74.0602C51.6449 74.0846 52.6783 73.9985 53.7151 74.0125C54.024 74.0164 54.324 74.1009 54.6311 74.1059C55.2898 74.116 56.0865 74.0059 56.7232 74.166C57.1494 74.2733 57.4826 74.5326 57.7569 74.8679C58.1073 75.2962 58.625 77.8079 58.7982 78.4575C59.1284 79.6958 59.6114 81.1675 59.8169 82.4024C60.0087 83.5552 59.4338 84.0707 58.8107 84.9303C58.37 85.5381 57.8479 86.0738 57.3854 86.6629C56.227 88.1524 55.0784 89.6497 53.9397 91.1544C53.2554 92.0664 52.5841 92.9881 51.926 93.9195C51.5499 94.4548 51.034 95.2722 50.6175 95.7203C50.3519 95.6935 49.9982 95.7164 49.8175 95.4928C49.712 95.3621 49.671 95.1947 49.6845 95.0292C49.7606 94.092 54.7399 86.4745 55.5553 85.299C55.8231 84.9129 57.0444 83.459 57.1057 83.1614C57.1259 83.0637 56.7062 81.8858 56.6358 81.6327C56.4626 81.0113 56.2782 80.3792 56.1367 79.7497C55.9745 79.028 55.8534 78.2966 55.696 77.5753C55.5501 76.9067 55.3179 76.2423 55.2925 75.5524Z" fill="black"/>
<path d="M83.9181 56.8249C83.7867 56.6878 83.5413 56.5687 83.6719 56.31C83.8053 56.2196 83.9026 56.2325 84.0716 56.2207C83.9088 56.5106 84.1665 56.5333 83.9181 56.8249Z" fill="#E9E8E8"/>
<path d="M83.0634 59.8288C82.9762 59.9275 83.0273 59.8992 82.9157 59.9337L82.8525 59.8729C82.858 59.7525 82.8673 59.7572 82.9343 59.6534L82.9626 59.6519C83.0332 59.5954 83.0471 59.5896 83.1285 59.5479C83.2037 59.6741 83.1971 59.6117 83.1727 59.7375L83.0634 59.8288Z" fill="#E9E8E8"/>
<path d="M70.1882 80.3164C70.2448 80.3338 70.2944 80.3563 70.3184 80.4207C70.6111 81.2056 71.1243 82.2133 71.7212 82.8071C70.6719 83.1482 69.4708 83.7618 68.3905 84.128C67.6936 84.3641 67.2351 84.4366 66.5711 84.5974L66.5456 84.6168C66.3626 84.6238 66.187 84.6664 66.0072 84.7025C65.8952 84.5939 65.5804 84.1761 65.5475 84.0125C65.4304 83.4315 65.2735 82.8036 65.2754 82.211C65.2762 82.0432 65.687 82.0873 65.8122 82.0358C66.8905 81.887 69.2712 81.0052 70.1425 80.3513L70.1882 80.3164Z" fill="#D3E773"/>
<path d="M69.2671 77.2969L69.3264 77.317C69.3695 77.3818 69.3753 77.3841 69.3749 77.462C69.371 78.1349 69.7082 78.9589 69.9788 79.5713C69.2071 79.9946 68.1257 80.5872 67.2811 80.8C66.6811 80.9515 65.8001 81.0407 65.1695 81.1384C64.9167 81.0422 64.7613 80.9387 64.5311 80.7984C64.3958 80.1694 64.2826 79.5988 64.3962 78.9477C64.4369 78.7128 64.8904 78.7934 65.0931 78.7519C66.3319 78.4988 68.14 77.9725 69.2167 77.3275L69.2671 77.2969Z" fill="#D3E773"/>
<path d="M68.723 73.7695C68.7555 73.806 68.7772 73.8513 68.7854 73.8994C68.8098 74.0389 68.7575 74.3486 68.7749 74.5168C68.8513 75.2378 68.8082 75.8684 69.1714 76.5102C68.1094 76.9637 65.5865 77.9575 64.4819 77.7036C64.3315 77.6726 64.3261 77.6362 64.2319 77.5192C64.221 77.5048 64.2106 77.4905 64.2001 77.4765C64.0439 77.2343 63.8772 75.3451 64.1764 75.3091C64.2687 75.2978 65.0168 75.2292 65.1927 75.1769C66.3819 74.823 67.6342 74.4676 68.6865 73.8005C68.6985 73.7901 68.7109 73.7796 68.723 73.7695Z" fill="#D3E773"/>
<path d="M70.282 70.6279C70.7033 70.8194 70.9564 70.9023 71.4052 71.0109C71.7886 71.1035 72.8149 71.1686 73.0657 71.4264C73.1192 71.5601 73.101 71.5822 73.063 71.714C73.0076 71.9066 73.0231 71.857 72.8355 71.9535C72.8312 71.9694 72.7975 72.0182 72.787 72.0345L72.6459 71.9648C72.2227 72.0093 71.9324 71.7384 71.5304 71.6128C71.3211 71.5473 71.1211 71.5039 70.9161 71.4461C70.7273 71.3927 70.4056 71.4299 70.2897 71.3341C70.294 71.0903 70.2897 70.8713 70.282 70.6279Z" fill="#D3E773"/>
<path d="M61.9921 73.4551C62.0101 73.4644 62.0928 73.526 62.1123 73.54L62.1228 73.626C62.0461 73.7547 61.9947 73.7725 61.8688 73.8508L61.7783 73.821C61.7002 73.7372 61.7158 73.7865 61.716 73.6752C61.7956 73.5504 61.8634 73.5279 61.9921 73.4551Z" fill="#2A1906"/>
<path d="M63.9246 29.5687C64.4235 29.4667 64.8526 29.7868 64.8995 30.2923C65.0277 31.6673 65.1243 33.0655 65.2165 34.4434C65.2405 34.8015 64.6246 34.8864 64.3456 34.8461C64.1758 34.8935 63.8971 34.6929 63.8642 34.5451C63.6502 33.5897 63.6122 32.5493 63.5025 31.5792C63.4436 31.0575 63.4917 30.4638 63.3789 29.9754C63.744 29.4068 63.7363 29.7279 63.9246 29.5687Z" fill="black"/>
<path d="M66.2793 63.8073C66.4362 63.8011 66.7769 63.8437 66.9494 63.8611C67.0207 63.9142 67.4382 64.2239 67.494 64.3452C67.7537 64.9073 68.3064 66.0526 68.28 66.6635C68.275 66.7743 67.9359 66.9483 67.8328 67.0053C66.8161 66.9011 65.8444 65.3107 65.7002 64.3964C65.8963 64.0379 65.9122 63.97 66.2793 63.8073Z" fill="black"/>
</g>
<defs>
<clipPath id="clip0_292_2958">
<rect width="79.38" height="79.38" fill="white" transform="translate(23.8125 23.8125)"/>
</clipPath>
</defs>
</svg>
