<svg width="855" height="74" viewBox="0 0 855 74" fill="none" xmlns="http://www.w3.org/2000/svg">
<path d="M0 0H83.9403V73.9809C83.9403 73.9809 62.9552 76.1568 46.3119 34.0892C33.4195 1.50244 0 0 0 0Z" fill="#FCFEF3"/>
<rect width="687" height="74" transform="translate(83.9402)" fill="#FCFEF3"/>
<path d="M128.884 31.14H129.828L134.548 42.5H133.364L131.892 38.948H126.788L125.332 42.5H124.132L128.884 31.14ZM131.636 38.068L129.348 32.452L127.028 38.068H131.636ZM140.033 42.66C139.382 42.66 138.779 42.4947 138.225 42.164C137.67 41.8227 137.238 41.396 136.929 40.884V42.5H135.953V30.82H137.041V35.908C137.414 35.3427 137.862 34.8893 138.385 34.548C138.907 34.196 139.515 34.02 140.209 34.02C140.795 34.02 141.318 34.1427 141.777 34.388C142.246 34.6333 142.646 34.964 142.977 35.38C143.307 35.7853 143.558 36.2493 143.729 36.772C143.899 37.284 143.985 37.812 143.985 38.356C143.985 38.9427 143.883 39.492 143.681 40.004C143.489 40.516 143.211 40.9747 142.849 41.38C142.486 41.7747 142.065 42.0893 141.585 42.324C141.115 42.548 140.598 42.66 140.033 42.66ZM139.777 41.7C140.225 41.7 140.641 41.6093 141.025 41.428C141.409 41.2467 141.739 40.996 142.017 40.676C142.294 40.356 142.507 39.9987 142.657 39.604C142.806 39.1987 142.881 38.7827 142.881 38.356C142.881 37.7693 142.753 37.22 142.497 36.708C142.251 36.1853 141.905 35.7693 141.457 35.46C141.019 35.14 140.502 34.98 139.905 34.98C139.478 34.98 139.078 35.076 138.705 35.268C138.342 35.46 138.017 35.716 137.729 36.036C137.451 36.3453 137.222 36.6867 137.041 37.06V39.652C137.083 39.94 137.195 40.212 137.377 40.468C137.558 40.7133 137.782 40.9267 138.049 41.108C138.326 41.2893 138.614 41.4333 138.913 41.54C139.211 41.6467 139.499 41.7 139.777 41.7ZM149.38 42.66C148.782 42.66 148.228 42.548 147.716 42.324C147.214 42.0893 146.777 41.7747 146.404 41.38C146.041 40.9747 145.758 40.516 145.556 40.004C145.353 39.4813 145.252 38.932 145.252 38.356C145.252 37.7587 145.353 37.204 145.556 36.692C145.758 36.1693 146.046 35.7107 146.42 35.316C146.793 34.9107 147.23 34.596 147.732 34.372C148.244 34.1373 148.798 34.02 149.396 34.02C149.993 34.02 150.542 34.1373 151.044 34.372C151.545 34.596 151.982 34.9107 152.356 35.316C152.729 35.7107 153.017 36.1693 153.22 36.692C153.422 37.204 153.524 37.7587 153.524 38.356C153.524 38.932 153.422 39.4813 153.22 40.004C153.017 40.516 152.729 40.9747 152.356 41.38C151.993 41.7747 151.556 42.0893 151.044 42.324C150.542 42.548 149.988 42.66 149.38 42.66ZM146.356 38.372C146.356 38.9907 146.489 39.556 146.756 40.068C147.033 40.5693 147.401 40.9693 147.86 41.268C148.318 41.556 148.825 41.7 149.38 41.7C149.934 41.7 150.441 41.5507 150.9 41.252C151.358 40.9533 151.726 40.548 152.004 40.036C152.281 39.5133 152.42 38.948 152.42 38.34C152.42 37.7213 152.281 37.156 152.004 36.644C151.726 36.132 151.358 35.7267 150.9 35.428C150.441 35.1293 149.934 34.98 149.38 34.98C148.825 34.98 148.318 35.1347 147.86 35.444C147.412 35.7533 147.049 36.164 146.772 36.676C146.494 37.1773 146.356 37.7427 146.356 38.372ZM155.263 39.06V34.164H156.351V38.868C156.351 39.8173 156.511 40.5267 156.831 40.996C157.162 41.4653 157.647 41.7 158.287 41.7C158.714 41.7 159.125 41.6093 159.519 41.428C159.925 41.236 160.282 40.9693 160.591 40.628C160.901 40.276 161.135 39.8707 161.295 39.412V34.164H162.383V41.188C162.383 41.3373 162.415 41.4493 162.479 41.524C162.543 41.588 162.639 41.6253 162.767 41.636V42.5C162.639 42.5107 162.538 42.516 162.463 42.516C162.389 42.5267 162.319 42.532 162.255 42.532C162.042 42.5107 161.855 42.4253 161.695 42.276C161.546 42.1267 161.466 41.9453 161.455 41.732L161.423 40.612C161.061 41.252 160.565 41.7533 159.935 42.116C159.317 42.4787 158.645 42.66 157.919 42.66C157.045 42.66 156.383 42.356 155.935 41.748C155.487 41.14 155.263 40.244 155.263 39.06ZM168.843 42.1C168.758 42.132 168.625 42.1907 168.443 42.276C168.262 42.3613 168.043 42.436 167.787 42.5C167.531 42.564 167.254 42.596 166.955 42.596C166.646 42.596 166.353 42.5373 166.075 42.42C165.809 42.3027 165.595 42.1267 165.435 41.892C165.275 41.6467 165.195 41.348 165.195 40.996V35.028H164.043V34.164H165.195V31.348H166.283V34.164H168.203V35.028H166.283V40.692C166.305 40.9907 166.411 41.2147 166.603 41.364C166.806 41.5133 167.035 41.588 167.291 41.588C167.59 41.588 167.862 41.54 168.107 41.444C168.353 41.3373 168.502 41.2627 168.555 41.22L168.843 42.1Z" fill="white"/>
<path d="M223.004 33.268C222.844 33.0867 222.658 32.9267 222.444 32.788C222.231 32.6387 221.991 32.5107 221.724 32.404C221.458 32.2973 221.17 32.212 220.86 32.148C220.562 32.084 220.242 32.052 219.9 32.052C218.908 32.052 218.178 32.244 217.708 32.628C217.25 33.0013 217.02 33.5133 217.02 34.164C217.02 34.612 217.127 34.964 217.34 35.22C217.564 35.476 217.911 35.684 218.38 35.844C218.85 36.004 219.447 36.1693 220.172 36.34C220.983 36.5107 221.682 36.7133 222.268 36.948C222.855 37.1827 223.308 37.5027 223.628 37.908C223.948 38.3027 224.108 38.8413 224.108 39.524C224.108 40.0467 224.007 40.5 223.804 40.884C223.602 41.268 223.319 41.588 222.956 41.844C222.594 42.1 222.162 42.292 221.66 42.42C221.159 42.5373 220.61 42.596 220.012 42.596C219.426 42.596 218.86 42.5373 218.316 42.42C217.783 42.292 217.276 42.1107 216.796 41.876C216.316 41.6307 215.868 41.3213 215.452 40.948L216.012 40.036C216.215 40.2493 216.455 40.452 216.732 40.644C217.02 40.8253 217.335 40.9907 217.676 41.14C218.028 41.2893 218.402 41.4067 218.796 41.492C219.202 41.5667 219.618 41.604 220.044 41.604C220.951 41.604 221.655 41.4387 222.156 41.108C222.668 40.7773 222.924 40.2867 222.924 39.636C222.924 39.1667 222.796 38.7933 222.54 38.516C222.284 38.228 221.9 37.9933 221.388 37.812C220.876 37.6307 220.247 37.4547 219.5 37.284C218.711 37.1027 218.044 36.9 217.5 36.676C216.956 36.452 216.546 36.1587 216.268 35.796C216.002 35.4227 215.868 34.932 215.868 34.324C215.868 33.62 216.039 33.028 216.38 32.548C216.732 32.0573 217.212 31.6893 217.82 31.444C218.428 31.188 219.127 31.06 219.916 31.06C220.418 31.06 220.882 31.1133 221.308 31.22C221.746 31.316 222.146 31.46 222.508 31.652C222.882 31.844 223.228 32.084 223.548 32.372L223.004 33.268ZM230.115 42.66C229.422 42.66 228.798 42.4787 228.243 42.116C227.699 41.7533 227.267 41.3053 226.947 40.772V45.908H225.859V34.164H226.835V35.78C227.166 35.2573 227.608 34.836 228.163 34.516C228.718 34.1853 229.31 34.02 229.939 34.02C230.515 34.02 231.043 34.1427 231.523 34.388C232.003 34.6227 232.419 34.9427 232.771 35.348C233.123 35.7533 233.395 36.2173 233.587 36.74C233.79 37.252 233.891 37.7853 233.891 38.34C233.891 39.1187 233.731 39.8387 233.411 40.5C233.102 41.1507 232.664 41.6733 232.099 42.068C231.534 42.4627 230.872 42.66 230.115 42.66ZM229.811 41.7C230.27 41.7 230.68 41.6093 231.043 41.428C231.406 41.236 231.715 40.98 231.971 40.66C232.238 40.34 232.44 39.9827 232.579 39.588C232.718 39.1827 232.787 38.7667 232.787 38.34C232.787 37.892 232.707 37.4653 232.547 37.06C232.398 36.6547 232.179 36.2973 231.891 35.988C231.603 35.6787 231.272 35.4333 230.899 35.252C230.526 35.0707 230.12 34.98 229.683 34.98C229.406 34.98 229.118 35.0333 228.819 35.14C228.52 35.2467 228.232 35.4013 227.955 35.604C227.688 35.796 227.464 36.0147 227.283 36.26C227.102 36.5053 226.99 36.7667 226.947 37.044V39.604C227.118 39.9987 227.347 40.356 227.635 40.676C227.923 40.9853 228.254 41.236 228.627 41.428C229.011 41.6093 229.406 41.7 229.811 41.7ZM235.734 42.5V34.164H236.822V42.5H235.734ZM235.734 32.42V30.82H236.822V32.42H235.734ZM246.226 42.5H245.138V37.844C245.138 36.8627 244.994 36.148 244.706 35.7C244.418 35.2413 243.965 35.012 243.346 35.012C242.92 35.012 242.498 35.1187 242.082 35.332C241.666 35.5347 241.298 35.8173 240.978 36.18C240.669 36.532 240.445 36.9373 240.306 37.396V42.5H239.218V34.164H240.21V36.052C240.434 35.6467 240.728 35.2947 241.09 34.996C241.453 34.6867 241.864 34.4467 242.322 34.276C242.781 34.1053 243.256 34.02 243.746 34.02C244.205 34.02 244.594 34.1053 244.914 34.276C245.234 34.4467 245.49 34.692 245.682 35.012C245.874 35.3213 246.013 35.7 246.098 36.148C246.184 36.5853 246.226 37.076 246.226 37.62V42.5ZM252.146 42.66C251.549 42.66 250.994 42.548 250.482 42.324C249.97 42.0893 249.528 41.7747 249.154 41.38C248.781 40.9747 248.488 40.5107 248.274 39.988C248.072 39.4653 247.97 38.9053 247.97 38.308C247.97 37.5293 248.146 36.8147 248.498 36.164C248.861 35.5133 249.357 34.996 249.986 34.612C250.616 34.2173 251.33 34.02 252.13 34.02C252.952 34.02 253.666 34.2173 254.274 34.612C254.893 35.0067 255.378 35.5293 255.73 36.18C256.082 36.82 256.258 37.524 256.258 38.292C256.258 38.3773 256.258 38.4627 256.258 38.548C256.258 38.6227 256.253 38.6813 256.242 38.724H249.106C249.16 39.3213 249.325 39.8547 249.602 40.324C249.89 40.7827 250.258 41.1507 250.706 41.428C251.165 41.6947 251.661 41.828 252.194 41.828C252.738 41.828 253.25 41.6893 253.73 41.412C254.221 41.1347 254.562 40.772 254.754 40.324L255.698 40.58C255.528 40.9747 255.266 41.332 254.914 41.652C254.562 41.972 254.146 42.2227 253.666 42.404C253.197 42.5747 252.69 42.66 252.146 42.66ZM249.074 37.94H255.234C255.192 37.332 255.026 36.7987 254.738 36.34C254.461 35.8813 254.093 35.524 253.634 35.268C253.186 35.0013 252.69 34.868 252.146 34.868C251.602 34.868 251.106 35.0013 250.658 35.268C250.21 35.524 249.842 35.8867 249.554 36.356C249.277 36.8147 249.117 37.3427 249.074 37.94ZM261.487 36.74C261.487 36.0467 261.605 35.3693 261.839 34.708C262.085 34.036 262.437 33.428 262.895 32.884C263.354 32.3293 263.919 31.892 264.591 31.572C265.263 31.2413 266.026 31.076 266.879 31.076C267.893 31.076 268.757 31.3107 269.471 31.78C270.197 32.2387 270.73 32.8307 271.071 33.556L270.191 34.1C269.946 33.5987 269.637 33.204 269.263 32.916C268.89 32.6173 268.49 32.404 268.063 32.276C267.647 32.148 267.231 32.084 266.815 32.084C266.133 32.084 265.53 32.2227 265.007 32.5C264.485 32.7667 264.042 33.1293 263.679 33.588C263.327 34.036 263.061 34.5427 262.879 35.108C262.698 35.6627 262.607 36.228 262.607 36.804C262.607 37.4333 262.714 38.036 262.927 38.612C263.141 39.188 263.439 39.7 263.823 40.148C264.207 40.5853 264.655 40.9373 265.167 41.204C265.69 41.46 266.255 41.588 266.863 41.588C267.29 41.588 267.727 41.5133 268.175 41.364C268.623 41.2147 269.039 40.9853 269.423 40.676C269.818 40.3667 270.133 39.9667 270.367 39.476L271.295 39.956C271.061 40.5213 270.698 41.0013 270.207 41.396C269.717 41.7907 269.167 42.0893 268.559 42.292C267.962 42.4947 267.375 42.596 266.799 42.596C266.021 42.596 265.306 42.4307 264.655 42.1C264.005 41.7587 263.439 41.3107 262.959 40.756C262.49 40.1907 262.127 39.5613 261.871 38.868C261.615 38.164 261.487 37.4547 261.487 36.74ZM276.536 42.66C275.939 42.66 275.384 42.548 274.872 42.324C274.371 42.0893 273.933 41.7747 273.56 41.38C273.197 40.9747 272.915 40.516 272.712 40.004C272.509 39.4813 272.408 38.932 272.408 38.356C272.408 37.7587 272.509 37.204 272.712 36.692C272.915 36.1693 273.203 35.7107 273.576 35.316C273.949 34.9107 274.387 34.596 274.888 34.372C275.4 34.1373 275.955 34.02 276.552 34.02C277.149 34.02 277.699 34.1373 278.2 34.372C278.701 34.596 279.139 34.9107 279.512 35.316C279.885 35.7107 280.173 36.1693 280.376 36.692C280.579 37.204 280.68 37.7587 280.68 38.356C280.68 38.932 280.579 39.4813 280.376 40.004C280.173 40.516 279.885 40.9747 279.512 41.38C279.149 41.7747 278.712 42.0893 278.2 42.324C277.699 42.548 277.144 42.66 276.536 42.66ZM273.512 38.372C273.512 38.9907 273.645 39.556 273.912 40.068C274.189 40.5693 274.557 40.9693 275.016 41.268C275.475 41.556 275.981 41.7 276.536 41.7C277.091 41.7 277.597 41.5507 278.056 41.252C278.515 40.9533 278.883 40.548 279.16 40.036C279.437 39.5133 279.576 38.948 279.576 38.34C279.576 37.7213 279.437 37.156 279.16 36.644C278.883 36.132 278.515 35.7267 278.056 35.428C277.597 35.1293 277.091 34.98 276.536 34.98C275.981 34.98 275.475 35.1347 275.016 35.444C274.568 35.7533 274.205 36.164 273.928 36.676C273.651 37.1773 273.512 37.7427 273.512 38.372ZM289.508 42.5H288.42V37.844C288.42 36.8627 288.276 36.148 287.988 35.7C287.7 35.2413 287.246 35.012 286.628 35.012C286.201 35.012 285.78 35.1187 285.364 35.332C284.948 35.5347 284.58 35.8173 284.26 36.18C283.95 36.532 283.726 36.9373 283.588 37.396V42.5H282.5V34.164H283.492V36.052C283.716 35.6467 284.009 35.2947 284.372 34.996C284.734 34.6867 285.145 34.4467 285.604 34.276C286.062 34.1053 286.537 34.02 287.028 34.02C287.486 34.02 287.876 34.1053 288.196 34.276C288.516 34.4467 288.772 34.692 288.964 35.012C289.156 35.3213 289.294 35.7 289.38 36.148C289.465 36.5853 289.508 37.076 289.508 37.62V42.5ZM291.268 38.356C291.268 37.5667 291.428 36.8467 291.748 36.196C292.078 35.5347 292.532 35.0067 293.108 34.612C293.684 34.2173 294.34 34.02 295.076 34.02C295.769 34.02 296.388 34.2067 296.932 34.58C297.486 34.9427 297.918 35.3853 298.228 35.908V30.82H299.316V41.188C299.316 41.3373 299.348 41.4493 299.412 41.524C299.476 41.588 299.572 41.6253 299.7 41.636V42.5C299.486 42.532 299.321 42.5427 299.204 42.532C298.98 42.5213 298.782 42.4307 298.612 42.26C298.441 42.0893 298.356 41.9027 298.356 41.7V40.884C298.025 41.428 297.577 41.86 297.012 42.18C296.446 42.5 295.86 42.66 295.252 42.66C294.676 42.66 294.142 42.5427 293.652 42.308C293.172 42.0733 292.75 41.7533 292.388 41.348C292.036 40.9427 291.758 40.484 291.556 39.972C291.364 39.4493 291.268 38.9107 291.268 38.356ZM298.228 39.636V37.06C298.089 36.676 297.865 36.3293 297.556 36.02C297.246 35.7 296.894 35.4493 296.5 35.268C296.116 35.076 295.732 34.98 295.348 34.98C294.9 34.98 294.494 35.076 294.132 35.268C293.769 35.4493 293.454 35.7 293.188 36.02C292.932 36.34 292.734 36.7027 292.596 37.108C292.457 37.5133 292.388 37.9293 292.388 38.356C292.388 38.804 292.462 39.2307 292.612 39.636C292.772 40.0413 292.996 40.404 293.284 40.724C293.572 41.0333 293.902 41.2733 294.276 41.444C294.649 41.6147 295.054 41.7 295.492 41.7C295.769 41.7 296.057 41.6467 296.356 41.54C296.654 41.4333 296.937 41.2893 297.204 41.108C297.481 40.916 297.71 40.692 297.892 40.436C298.073 40.18 298.185 39.9133 298.228 39.636ZM301.781 42.5V34.164H302.869V42.5H301.781ZM301.781 32.42V30.82H302.869V32.42H301.781ZM309.265 42.1C309.18 42.132 309.047 42.1907 308.865 42.276C308.684 42.3613 308.465 42.436 308.209 42.5C307.953 42.564 307.676 42.596 307.377 42.596C307.068 42.596 306.775 42.5373 306.497 42.42C306.231 42.3027 306.017 42.1267 305.857 41.892C305.697 41.6467 305.617 41.348 305.617 40.996V35.028H304.465V34.164H305.617V31.348H306.705V34.164H308.625V35.028H306.705V40.692C306.727 40.9907 306.833 41.2147 307.025 41.364C307.228 41.5133 307.457 41.588 307.713 41.588C308.012 41.588 308.284 41.54 308.529 41.444C308.775 41.3373 308.924 41.2627 308.977 41.22L309.265 42.1ZM310.625 42.5V34.164H311.713V42.5H310.625ZM310.625 32.42V30.82H311.713V32.42H310.625ZM317.661 42.66C317.064 42.66 316.509 42.548 315.997 42.324C315.496 42.0893 315.058 41.7747 314.685 41.38C314.322 40.9747 314.04 40.516 313.837 40.004C313.634 39.4813 313.533 38.932 313.533 38.356C313.533 37.7587 313.634 37.204 313.837 36.692C314.04 36.1693 314.328 35.7107 314.701 35.316C315.074 34.9107 315.512 34.596 316.013 34.372C316.525 34.1373 317.08 34.02 317.677 34.02C318.274 34.02 318.824 34.1373 319.325 34.372C319.826 34.596 320.264 34.9107 320.637 35.316C321.01 35.7107 321.298 36.1693 321.501 36.692C321.704 37.204 321.805 37.7587 321.805 38.356C321.805 38.932 321.704 39.4813 321.501 40.004C321.298 40.516 321.01 40.9747 320.637 41.38C320.274 41.7747 319.837 42.0893 319.325 42.324C318.824 42.548 318.269 42.66 317.661 42.66ZM314.637 38.372C314.637 38.9907 314.77 39.556 315.037 40.068C315.314 40.5693 315.682 40.9693 316.141 41.268C316.6 41.556 317.106 41.7 317.661 41.7C318.216 41.7 318.722 41.5507 319.181 41.252C319.64 40.9533 320.008 40.548 320.285 40.036C320.562 39.5133 320.701 38.948 320.701 38.34C320.701 37.7213 320.562 37.156 320.285 36.644C320.008 36.132 319.64 35.7267 319.181 35.428C318.722 35.1293 318.216 34.98 317.661 34.98C317.106 34.98 316.6 35.1347 316.141 35.444C315.693 35.7533 315.33 36.164 315.053 36.676C314.776 37.1773 314.637 37.7427 314.637 38.372ZM330.633 42.5H329.545V37.844C329.545 36.8627 329.401 36.148 329.113 35.7C328.825 35.2413 328.371 35.012 327.753 35.012C327.326 35.012 326.905 35.1187 326.489 35.332C326.073 35.5347 325.705 35.8173 325.385 36.18C325.075 36.532 324.851 36.9373 324.713 37.396V42.5H323.625V34.164H324.617V36.052C324.841 35.6467 325.134 35.2947 325.497 34.996C325.859 34.6867 326.27 34.4467 326.729 34.276C327.187 34.1053 327.662 34.02 328.153 34.02C328.611 34.02 329.001 34.1053 329.321 34.276C329.641 34.4467 329.897 34.692 330.089 35.012C330.281 35.3213 330.419 35.7 330.505 36.148C330.59 36.5853 330.633 37.076 330.633 37.62V42.5ZM335.689 42.66C335.006 42.66 334.371 42.548 333.785 42.324C333.198 42.1 332.691 41.7587 332.265 41.3L332.713 40.532C333.182 40.9693 333.651 41.2893 334.121 41.492C334.601 41.684 335.107 41.78 335.641 41.78C336.291 41.78 336.819 41.652 337.225 41.396C337.63 41.1293 337.833 40.7507 337.833 40.26C337.833 39.9293 337.731 39.6787 337.529 39.508C337.337 39.3267 337.054 39.1827 336.681 39.076C336.318 38.9587 335.881 38.836 335.369 38.708C334.793 38.548 334.307 38.3827 333.913 38.212C333.529 38.0307 333.235 37.8067 333.033 37.54C332.841 37.2627 332.745 36.9053 332.745 36.468C332.745 35.924 332.878 35.476 333.145 35.124C333.422 34.7613 333.795 34.4893 334.265 34.308C334.745 34.116 335.278 34.02 335.865 34.02C336.505 34.02 337.07 34.1213 337.561 34.324C338.051 34.5267 338.451 34.8093 338.761 35.172L338.233 35.908C337.934 35.5667 337.577 35.316 337.161 35.156C336.755 34.9853 336.302 34.9 335.801 34.9C335.459 34.9 335.134 34.948 334.825 35.044C334.515 35.1293 334.259 35.2787 334.057 35.492C333.865 35.6947 333.769 35.9773 333.769 36.34C333.769 36.6387 333.843 36.8733 333.993 37.044C334.142 37.204 334.366 37.3427 334.665 37.46C334.963 37.5667 335.331 37.684 335.769 37.812C336.398 37.9827 336.947 38.1587 337.417 38.34C337.886 38.5107 338.249 38.7347 338.505 39.012C338.761 39.2893 338.889 39.6787 338.889 40.18C338.889 40.9587 338.595 41.5667 338.009 42.004C337.422 42.4413 336.649 42.66 335.689 42.66Z" fill="white"/>
<path d="M394.428 32.132H390.38V42.5H389.26V32.132H385.212V31.14H394.428V32.132ZM398.628 35.124C397.903 35.1453 397.263 35.348 396.708 35.732C396.164 36.116 395.78 36.644 395.556 37.316V42.5H394.468V34.164H395.492V36.164C395.78 35.5773 396.159 35.1027 396.628 34.74C397.108 34.3773 397.615 34.1747 398.148 34.132C398.255 34.1213 398.346 34.116 398.42 34.116C398.506 34.116 398.575 34.1213 398.628 34.132V35.124ZM403.412 42.66C402.815 42.66 402.26 42.548 401.748 42.324C401.236 42.0893 400.793 41.7747 400.42 41.38C400.047 40.9747 399.753 40.5107 399.54 39.988C399.337 39.4653 399.236 38.9053 399.236 38.308C399.236 37.5293 399.412 36.8147 399.764 36.164C400.127 35.5133 400.623 34.996 401.252 34.612C401.881 34.2173 402.596 34.02 403.396 34.02C404.217 34.02 404.932 34.2173 405.54 34.612C406.159 35.0067 406.644 35.5293 406.996 36.18C407.348 36.82 407.524 37.524 407.524 38.292C407.524 38.3773 407.524 38.4627 407.524 38.548C407.524 38.6227 407.519 38.6813 407.508 38.724H400.372C400.425 39.3213 400.591 39.8547 400.868 40.324C401.156 40.7827 401.524 41.1507 401.972 41.428C402.431 41.6947 402.927 41.828 403.46 41.828C404.004 41.828 404.516 41.6893 404.996 41.412C405.487 41.1347 405.828 40.772 406.02 40.324L406.964 40.58C406.793 40.9747 406.532 41.332 406.18 41.652C405.828 41.972 405.412 42.2227 404.932 42.404C404.463 42.5747 403.956 42.66 403.412 42.66ZM400.34 37.94H406.5C406.457 37.332 406.292 36.7987 406.004 36.34C405.727 35.8813 405.359 35.524 404.9 35.268C404.452 35.0013 403.956 34.868 403.412 34.868C402.868 34.868 402.372 35.0013 401.924 35.268C401.476 35.524 401.108 35.8867 400.82 36.356C400.543 36.8147 400.383 37.3427 400.34 37.94ZM408.531 40.1C408.531 39.5773 408.68 39.1293 408.979 38.756C409.277 38.372 409.688 38.0787 410.211 37.876C410.744 37.6627 411.357 37.556 412.051 37.556C412.456 37.556 412.877 37.588 413.315 37.652C413.752 37.716 414.141 37.812 414.483 37.94V37.236C414.483 36.532 414.275 35.972 413.859 35.556C413.443 35.14 412.867 34.932 412.131 34.932C411.683 34.932 411.24 35.0173 410.803 35.188C410.376 35.348 409.928 35.588 409.459 35.908L409.043 35.14C409.587 34.7667 410.12 34.4893 410.643 34.308C411.165 34.116 411.699 34.02 412.243 34.02C413.267 34.02 414.077 34.3133 414.675 34.9C415.272 35.4867 415.571 36.2973 415.571 37.332V41.188C415.571 41.3373 415.603 41.4493 415.667 41.524C415.731 41.588 415.832 41.6253 415.971 41.636V42.5C415.853 42.5107 415.752 42.5213 415.667 42.532C415.581 42.5427 415.517 42.5427 415.475 42.532C415.208 42.5213 415.005 42.436 414.867 42.276C414.728 42.116 414.653 41.9453 414.643 41.764L414.627 41.156C414.253 41.636 413.768 42.0093 413.171 42.276C412.573 42.532 411.965 42.66 411.347 42.66C410.813 42.66 410.328 42.548 409.891 42.324C409.464 42.0893 409.128 41.78 408.883 41.396C408.648 41.0013 408.531 40.5693 408.531 40.1ZM414.115 40.74C414.232 40.5907 414.323 40.4467 414.387 40.308C414.451 40.1693 414.483 40.0467 414.483 39.94V38.724C414.12 38.5853 413.741 38.4787 413.347 38.404C412.963 38.3293 412.573 38.292 412.179 38.292C411.4 38.292 410.771 38.4467 410.291 38.756C409.811 39.0653 409.571 39.4867 409.571 40.02C409.571 40.3293 409.651 40.6227 409.811 40.9C409.971 41.1667 410.205 41.3907 410.515 41.572C410.824 41.7427 411.187 41.828 411.603 41.828C412.125 41.828 412.611 41.7267 413.059 41.524C413.517 41.3213 413.869 41.06 414.115 40.74ZM421.859 42.1C421.774 42.132 421.64 42.1907 421.459 42.276C421.278 42.3613 421.059 42.436 420.803 42.5C420.547 42.564 420.27 42.596 419.971 42.596C419.662 42.596 419.368 42.5373 419.091 42.42C418.824 42.3027 418.611 42.1267 418.451 41.892C418.291 41.6467 418.211 41.348 418.211 40.996V35.028H417.059V34.164H418.211V31.348H419.299V34.164H421.219V35.028H419.299V40.692C419.32 40.9907 419.427 41.2147 419.619 41.364C419.822 41.5133 420.051 41.588 420.307 41.588C420.606 41.588 420.878 41.54 421.123 41.444C421.368 41.3373 421.518 41.2627 421.571 41.22L421.859 42.1ZM435.618 42.5H434.53V37.844C434.53 36.8733 434.376 36.1587 434.066 35.7C433.757 35.2413 433.298 35.012 432.69 35.012C432.061 35.012 431.496 35.236 430.994 35.684C430.504 36.132 430.157 36.708 429.954 37.412V42.5H428.866V37.844C428.866 36.8627 428.717 36.148 428.418 35.7C428.12 35.2413 427.661 35.012 427.042 35.012C426.424 35.012 425.864 35.2307 425.362 35.668C424.861 36.1053 424.509 36.6813 424.306 37.396V42.5H423.218V34.164H424.21V36.052C424.562 35.4013 425.01 34.9 425.554 34.548C426.109 34.196 426.722 34.02 427.394 34.02C428.088 34.02 428.648 34.2173 429.074 34.612C429.501 35.0067 429.762 35.524 429.858 36.164C430.242 35.46 430.701 34.9267 431.234 34.564C431.778 34.2013 432.392 34.02 433.074 34.02C433.544 34.02 433.938 34.1053 434.258 34.276C434.589 34.4467 434.85 34.692 435.042 35.012C435.245 35.3213 435.389 35.7 435.474 36.148C435.57 36.5853 435.618 37.076 435.618 37.62V42.5ZM441.521 42.66C440.924 42.66 440.369 42.548 439.857 42.324C439.345 42.0893 438.903 41.7747 438.529 41.38C438.156 40.9747 437.863 40.5107 437.649 39.988C437.447 39.4653 437.345 38.9053 437.345 38.308C437.345 37.5293 437.521 36.8147 437.873 36.164C438.236 35.5133 438.732 34.996 439.361 34.612C439.991 34.2173 440.705 34.02 441.505 34.02C442.327 34.02 443.041 34.2173 443.649 34.612C444.268 35.0067 444.753 35.5293 445.105 36.18C445.457 36.82 445.633 37.524 445.633 38.292C445.633 38.3773 445.633 38.4627 445.633 38.548C445.633 38.6227 445.628 38.6813 445.617 38.724H438.481C438.535 39.3213 438.7 39.8547 438.977 40.324C439.265 40.7827 439.633 41.1507 440.081 41.428C440.54 41.6947 441.036 41.828 441.569 41.828C442.113 41.828 442.625 41.6893 443.105 41.412C443.596 41.1347 443.937 40.772 444.129 40.324L445.073 40.58C444.903 40.9747 444.641 41.332 444.289 41.652C443.937 41.972 443.521 42.2227 443.041 42.404C442.572 42.5747 442.065 42.66 441.521 42.66ZM438.449 37.94H444.609C444.567 37.332 444.401 36.7987 444.113 36.34C443.836 35.8813 443.468 35.524 443.009 35.268C442.561 35.0013 442.065 34.868 441.521 34.868C440.977 34.868 440.481 35.0013 440.033 35.268C439.585 35.524 439.217 35.8867 438.929 36.356C438.652 36.8147 438.492 37.3427 438.449 37.94ZM454.32 42.5H453.232V37.844C453.232 36.8627 453.088 36.148 452.8 35.7C452.512 35.2413 452.059 35.012 451.44 35.012C451.013 35.012 450.592 35.1187 450.176 35.332C449.76 35.5347 449.392 35.8173 449.072 36.18C448.763 36.532 448.539 36.9373 448.4 37.396V42.5H447.312V34.164H448.304V36.052C448.528 35.6467 448.821 35.2947 449.184 34.996C449.547 34.6867 449.957 34.4467 450.416 34.276C450.875 34.1053 451.349 34.02 451.84 34.02C452.299 34.02 452.688 34.1053 453.008 34.276C453.328 34.4467 453.584 34.692 453.776 35.012C453.968 35.3213 454.107 35.7 454.192 36.148C454.277 36.5853 454.32 37.076 454.32 37.62V42.5ZM460.562 42.1C460.477 42.132 460.343 42.1907 460.162 42.276C459.981 42.3613 459.762 42.436 459.506 42.5C459.25 42.564 458.973 42.596 458.674 42.596C458.365 42.596 458.071 42.5373 457.794 42.42C457.527 42.3027 457.314 42.1267 457.154 41.892C456.994 41.6467 456.914 41.348 456.914 40.996V35.028H455.762V34.164H456.914V31.348H458.002V34.164H459.922V35.028H458.002V40.692C458.023 40.9907 458.13 41.2147 458.322 41.364C458.525 41.5133 458.754 41.588 459.01 41.588C459.309 41.588 459.581 41.54 459.826 41.444C460.071 41.3373 460.221 41.2627 460.274 41.22L460.562 42.1ZM464.657 42.66C463.975 42.66 463.34 42.548 462.753 42.324C462.167 42.1 461.66 41.7587 461.233 41.3L461.681 40.532C462.151 40.9693 462.62 41.2893 463.089 41.492C463.569 41.684 464.076 41.78 464.609 41.78C465.26 41.78 465.788 41.652 466.193 41.396C466.599 41.1293 466.801 40.7507 466.801 40.26C466.801 39.9293 466.7 39.6787 466.497 39.508C466.305 39.3267 466.023 39.1827 465.649 39.076C465.287 38.9587 464.849 38.836 464.337 38.708C463.761 38.548 463.276 38.3827 462.881 38.212C462.497 38.0307 462.204 37.8067 462.001 37.54C461.809 37.2627 461.713 36.9053 461.713 36.468C461.713 35.924 461.847 35.476 462.113 35.124C462.391 34.7613 462.764 34.4893 463.233 34.308C463.713 34.116 464.247 34.02 464.833 34.02C465.473 34.02 466.039 34.1213 466.529 34.324C467.02 34.5267 467.42 34.8093 467.729 35.172L467.201 35.908C466.903 35.5667 466.545 35.316 466.129 35.156C465.724 34.9853 465.271 34.9 464.769 34.9C464.428 34.9 464.103 34.948 463.793 35.044C463.484 35.1293 463.228 35.2787 463.025 35.492C462.833 35.6947 462.737 35.9773 462.737 36.34C462.737 36.6387 462.812 36.8733 462.961 37.044C463.111 37.204 463.335 37.3427 463.633 37.46C463.932 37.5667 464.3 37.684 464.737 37.812C465.367 37.9827 465.916 38.1587 466.385 38.34C466.855 38.5107 467.217 38.7347 467.473 39.012C467.729 39.2893 467.857 39.6787 467.857 40.18C467.857 40.9587 467.564 41.5667 466.977 42.004C466.391 42.4413 465.617 42.66 464.657 42.66Z" fill="white"/>
<path d="M515.364 42.5V31.14H520.068C520.559 31.14 521.007 31.2413 521.412 31.444C521.828 31.6467 522.186 31.924 522.484 32.276C522.783 32.6173 523.018 33.0013 523.188 33.428C523.359 33.844 523.444 34.2707 523.444 34.708C523.444 35.3267 523.306 35.9133 523.028 36.468C522.762 37.012 522.383 37.4547 521.892 37.796C521.402 38.1373 520.826 38.308 520.164 38.308H516.484V42.5H515.364ZM516.484 37.316H520.116C520.564 37.316 520.954 37.1933 521.284 36.948C521.615 36.7027 521.871 36.3827 522.052 35.988C522.234 35.5933 522.324 35.1667 522.324 34.708C522.324 34.2387 522.218 33.8067 522.004 33.412C521.791 33.0173 521.508 32.708 521.156 32.484C520.815 32.2493 520.436 32.132 520.02 32.132H516.484V37.316ZM524.328 40.1C524.328 39.5773 524.477 39.1293 524.776 38.756C525.074 38.372 525.485 38.0787 526.008 37.876C526.541 37.6627 527.154 37.556 527.848 37.556C528.253 37.556 528.674 37.588 529.112 37.652C529.549 37.716 529.938 37.812 530.28 37.94V37.236C530.28 36.532 530.072 35.972 529.656 35.556C529.24 35.14 528.664 34.932 527.928 34.932C527.48 34.932 527.037 35.0173 526.6 35.188C526.173 35.348 525.725 35.588 525.256 35.908L524.84 35.14C525.384 34.7667 525.917 34.4893 526.44 34.308C526.962 34.116 527.496 34.02 528.04 34.02C529.064 34.02 529.874 34.3133 530.472 34.9C531.069 35.4867 531.368 36.2973 531.368 37.332V41.188C531.368 41.3373 531.4 41.4493 531.464 41.524C531.528 41.588 531.629 41.6253 531.768 41.636V42.5C531.65 42.5107 531.549 42.5213 531.464 42.532C531.378 42.5427 531.314 42.5427 531.272 42.532C531.005 42.5213 530.802 42.436 530.664 42.276C530.525 42.116 530.45 41.9453 530.44 41.764L530.424 41.156C530.05 41.636 529.565 42.0093 528.968 42.276C528.37 42.532 527.762 42.66 527.144 42.66C526.61 42.66 526.125 42.548 525.688 42.324C525.261 42.0893 524.925 41.78 524.68 41.396C524.445 41.0013 524.328 40.5693 524.328 40.1ZM529.912 40.74C530.029 40.5907 530.12 40.4467 530.184 40.308C530.248 40.1693 530.28 40.0467 530.28 39.94V38.724C529.917 38.5853 529.538 38.4787 529.144 38.404C528.76 38.3293 528.37 38.292 527.976 38.292C527.197 38.292 526.568 38.4467 526.088 38.756C525.608 39.0653 525.368 39.4867 525.368 40.02C525.368 40.3293 525.448 40.6227 525.608 40.9C525.768 41.1667 526.002 41.3907 526.312 41.572C526.621 41.7427 526.984 41.828 527.4 41.828C527.922 41.828 528.408 41.7267 528.856 41.524C529.314 41.3213 529.666 41.06 529.912 40.74ZM537.656 42.1C537.571 42.132 537.437 42.1907 537.256 42.276C537.075 42.3613 536.856 42.436 536.6 42.5C536.344 42.564 536.067 42.596 535.768 42.596C535.459 42.596 535.165 42.5373 534.888 42.42C534.621 42.3027 534.408 42.1267 534.248 41.892C534.088 41.6467 534.008 41.348 534.008 40.996V35.028H532.856V34.164H534.008V31.348H535.096V34.164H537.016V35.028H535.096V40.692C535.117 40.9907 535.224 41.2147 535.416 41.364C535.619 41.5133 535.848 41.588 536.104 41.588C536.403 41.588 536.675 41.54 536.92 41.444C537.165 41.3373 537.315 41.2627 537.368 41.22L537.656 42.1ZM539.015 42.5V34.164H540.103V42.5H539.015ZM539.015 32.42V30.82H540.103V32.42H539.015ZM546.1 42.66C545.502 42.66 544.948 42.548 544.436 42.324C543.924 42.0893 543.481 41.7747 543.108 41.38C542.734 40.9747 542.441 40.5107 542.228 39.988C542.025 39.4653 541.924 38.9053 541.924 38.308C541.924 37.5293 542.1 36.8147 542.452 36.164C542.814 35.5133 543.31 34.996 543.94 34.612C544.569 34.2173 545.284 34.02 546.084 34.02C546.905 34.02 547.62 34.2173 548.228 34.612C548.846 35.0067 549.332 35.5293 549.684 36.18C550.036 36.82 550.212 37.524 550.212 38.292C550.212 38.3773 550.212 38.4627 550.212 38.548C550.212 38.6227 550.206 38.6813 550.196 38.724H543.06C543.113 39.3213 543.278 39.8547 543.556 40.324C543.844 40.7827 544.212 41.1507 544.66 41.428C545.118 41.6947 545.614 41.828 546.148 41.828C546.692 41.828 547.204 41.6893 547.684 41.412C548.174 41.1347 548.516 40.772 548.708 40.324L549.652 40.58C549.481 40.9747 549.22 41.332 548.868 41.652C548.516 41.972 548.1 42.2227 547.62 42.404C547.15 42.5747 546.644 42.66 546.1 42.66ZM543.028 37.94H549.188C549.145 37.332 548.98 36.7987 548.692 36.34C548.414 35.8813 548.046 35.524 547.588 35.268C547.14 35.0013 546.644 34.868 546.1 34.868C545.556 34.868 545.06 35.0013 544.612 35.268C544.164 35.524 543.796 35.8867 543.508 36.356C543.23 36.8147 543.07 37.3427 543.028 37.94ZM558.898 42.5H557.81V37.844C557.81 36.8627 557.666 36.148 557.378 35.7C557.09 35.2413 556.637 35.012 556.018 35.012C555.592 35.012 555.17 35.1187 554.754 35.332C554.338 35.5347 553.97 35.8173 553.65 36.18C553.341 36.532 553.117 36.9373 552.978 37.396V42.5H551.89V34.164H552.882V36.052C553.106 35.6467 553.4 35.2947 553.762 34.996C554.125 34.6867 554.536 34.4467 554.994 34.276C555.453 34.1053 555.928 34.02 556.418 34.02C556.877 34.02 557.266 34.1053 557.586 34.276C557.906 34.4467 558.162 34.692 558.354 35.012C558.546 35.3213 558.685 35.7 558.77 36.148C558.856 36.5853 558.898 37.076 558.898 37.62V42.5ZM565.14 42.1C565.055 42.132 564.922 42.1907 564.74 42.276C564.559 42.3613 564.34 42.436 564.084 42.5C563.828 42.564 563.551 42.596 563.252 42.596C562.943 42.596 562.65 42.5373 562.372 42.42C562.106 42.3027 561.892 42.1267 561.732 41.892C561.572 41.6467 561.492 41.348 561.492 40.996V35.028H560.34V34.164H561.492V31.348H562.58V34.164H564.5V35.028H562.58V40.692C562.602 40.9907 562.708 41.2147 562.9 41.364C563.103 41.5133 563.332 41.588 563.588 41.588C563.887 41.588 564.159 41.54 564.404 41.444C564.65 41.3373 564.799 41.2627 564.852 41.22L565.14 42.1ZM569.484 41.076C569.708 41.236 570.002 41.3747 570.364 41.492C570.738 41.6093 571.164 41.668 571.644 41.668C572.199 41.668 572.647 41.5773 572.988 41.396C573.33 41.204 573.591 40.9213 573.772 40.548C573.954 40.164 574.076 39.6893 574.14 39.124C574.204 38.5587 574.236 37.8973 574.236 37.14V31.14H575.356V36.916C575.356 37.7693 575.314 38.548 575.228 39.252C575.143 39.956 574.978 40.564 574.732 41.076C574.487 41.588 574.119 41.9827 573.628 42.26C573.138 42.5373 572.487 42.676 571.676 42.676C571.154 42.676 570.69 42.6173 570.284 42.5C569.879 42.3827 569.506 42.2067 569.164 41.972L569.484 41.076ZM581.255 42.66C580.658 42.66 580.103 42.548 579.591 42.324C579.09 42.0893 578.652 41.7747 578.279 41.38C577.916 40.9747 577.634 40.516 577.431 40.004C577.228 39.4813 577.127 38.932 577.127 38.356C577.127 37.7587 577.228 37.204 577.431 36.692C577.634 36.1693 577.922 35.7107 578.295 35.316C578.668 34.9107 579.106 34.596 579.607 34.372C580.119 34.1373 580.674 34.02 581.271 34.02C581.868 34.02 582.418 34.1373 582.919 34.372C583.42 34.596 583.858 34.9107 584.231 35.316C584.604 35.7107 584.892 36.1693 585.095 36.692C585.298 37.204 585.399 37.7587 585.399 38.356C585.399 38.932 585.298 39.4813 585.095 40.004C584.892 40.516 584.604 40.9747 584.231 41.38C583.868 41.7747 583.431 42.0893 582.919 42.324C582.418 42.548 581.863 42.66 581.255 42.66ZM578.231 38.372C578.231 38.9907 578.364 39.556 578.631 40.068C578.908 40.5693 579.276 40.9693 579.735 41.268C580.194 41.556 580.7 41.7 581.255 41.7C581.81 41.7 582.316 41.5507 582.775 41.252C583.234 40.9533 583.602 40.548 583.879 40.036C584.156 39.5133 584.295 38.948 584.295 38.34C584.295 37.7213 584.156 37.156 583.879 36.644C583.602 36.132 583.234 35.7267 582.775 35.428C582.316 35.1293 581.81 34.98 581.255 34.98C580.7 34.98 580.194 35.1347 579.735 35.444C579.287 35.7533 578.924 36.164 578.647 36.676C578.37 37.1773 578.231 37.7427 578.231 38.372ZM587.139 39.06V34.164H588.227V38.868C588.227 39.8173 588.387 40.5267 588.707 40.996C589.037 41.4653 589.523 41.7 590.163 41.7C590.589 41.7 591 41.6093 591.395 41.428C591.8 41.236 592.157 40.9693 592.467 40.628C592.776 40.276 593.011 39.8707 593.171 39.412V34.164H594.259V41.188C594.259 41.3373 594.291 41.4493 594.355 41.524C594.419 41.588 594.515 41.6253 594.643 41.636V42.5C594.515 42.5107 594.413 42.516 594.339 42.516C594.264 42.5267 594.195 42.532 594.131 42.532C593.917 42.5107 593.731 42.4253 593.571 42.276C593.421 42.1267 593.341 41.9453 593.331 41.732L593.299 40.612C592.936 41.252 592.44 41.7533 591.811 42.116C591.192 42.4787 590.52 42.66 589.795 42.66C588.92 42.66 588.259 42.356 587.811 41.748C587.363 41.14 587.139 40.244 587.139 39.06ZM600.879 35.124C600.153 35.1453 599.513 35.348 598.959 35.732C598.415 36.116 598.031 36.644 597.807 37.316V42.5H596.719V34.164H597.743V36.164C598.031 35.5773 598.409 35.1027 598.879 34.74C599.359 34.3773 599.865 34.1747 600.399 34.132C600.505 34.1213 600.596 34.116 600.671 34.116C600.756 34.116 600.825 34.1213 600.879 34.132V35.124ZM609.336 42.5H608.248V37.844C608.248 36.8627 608.104 36.148 607.816 35.7C607.528 35.2413 607.075 35.012 606.456 35.012C606.029 35.012 605.608 35.1187 605.192 35.332C604.776 35.5347 604.408 35.8173 604.088 36.18C603.779 36.532 603.555 36.9373 603.416 37.396V42.5H602.328V34.164H603.32V36.052C603.544 35.6467 603.837 35.2947 604.2 34.996C604.563 34.6867 604.973 34.4467 605.432 34.276C605.891 34.1053 606.365 34.02 606.856 34.02C607.315 34.02 607.704 34.1053 608.024 34.276C608.344 34.4467 608.6 34.692 608.792 35.012C608.984 35.3213 609.123 35.7 609.208 36.148C609.293 36.5853 609.336 37.076 609.336 37.62V42.5ZM615.256 42.66C614.659 42.66 614.104 42.548 613.592 42.324C613.08 42.0893 612.637 41.7747 612.264 41.38C611.891 40.9747 611.597 40.5107 611.384 39.988C611.181 39.4653 611.08 38.9053 611.08 38.308C611.08 37.5293 611.256 36.8147 611.608 36.164C611.971 35.5133 612.467 34.996 613.096 34.612C613.725 34.2173 614.44 34.02 615.24 34.02C616.061 34.02 616.776 34.2173 617.384 34.612C618.003 35.0067 618.488 35.5293 618.84 36.18C619.192 36.82 619.368 37.524 619.368 38.292C619.368 38.3773 619.368 38.4627 619.368 38.548C619.368 38.6227 619.363 38.6813 619.352 38.724H612.216C612.269 39.3213 612.435 39.8547 612.712 40.324C613 40.7827 613.368 41.1507 613.816 41.428C614.275 41.6947 614.771 41.828 615.304 41.828C615.848 41.828 616.36 41.6893 616.84 41.412C617.331 41.1347 617.672 40.772 617.864 40.324L618.808 40.58C618.637 40.9747 618.376 41.332 618.024 41.652C617.672 41.972 617.256 42.2227 616.776 42.404C616.307 42.5747 615.8 42.66 615.256 42.66ZM612.184 37.94H618.344C618.301 37.332 618.136 36.7987 617.848 36.34C617.571 35.8813 617.203 35.524 616.744 35.268C616.296 35.0013 615.8 34.868 615.256 34.868C614.712 34.868 614.216 35.0013 613.768 35.268C613.32 35.524 612.952 35.8867 612.664 36.356C612.387 36.8147 612.227 37.3427 612.184 37.94ZM621.292 45.06C621.442 45.0707 621.586 45.076 621.724 45.076C621.863 45.0867 621.964 45.0813 622.028 45.06C622.156 45.0387 622.279 44.964 622.396 44.836C622.514 44.708 622.652 44.4627 622.812 44.1C622.972 43.7373 623.196 43.204 623.484 42.5L619.852 34.164H621.004L624.06 41.38L626.876 34.164H627.964L623.644 44.916C623.57 45.1187 623.458 45.3053 623.308 45.476C623.159 45.6573 622.972 45.796 622.748 45.892C622.535 45.9987 622.268 46.0573 621.948 46.068C621.852 46.0787 621.751 46.0787 621.644 46.068C621.548 46.068 621.431 46.0573 621.292 46.036V45.06Z" fill="white"/>
<path d="M675.364 42.5V31.14H676.484V42.5H675.364ZM686.117 42.5H685.029V37.844C685.029 36.8627 684.885 36.148 684.597 35.7C684.309 35.2413 683.856 35.012 683.237 35.012C682.811 35.012 682.389 35.1187 681.973 35.332C681.557 35.5347 681.189 35.8173 680.869 36.18C680.56 36.532 680.336 36.9373 680.197 37.396V42.5H679.109V34.164H680.101V36.052C680.325 35.6467 680.619 35.2947 680.981 34.996C681.344 34.6867 681.755 34.4467 682.213 34.276C682.672 34.1053 683.147 34.02 683.637 34.02C684.096 34.02 684.485 34.1053 684.805 34.276C685.125 34.4467 685.381 34.692 685.573 35.012C685.765 35.3213 685.904 35.7 685.989 36.148C686.075 36.5853 686.117 37.076 686.117 37.62V42.5ZM691.173 42.66C690.491 42.66 689.856 42.548 689.269 42.324C688.683 42.1 688.176 41.7587 687.749 41.3L688.197 40.532C688.667 40.9693 689.136 41.2893 689.605 41.492C690.085 41.684 690.592 41.78 691.125 41.78C691.776 41.78 692.304 41.652 692.709 41.396C693.115 41.1293 693.317 40.7507 693.317 40.26C693.317 39.9293 693.216 39.6787 693.013 39.508C692.821 39.3267 692.539 39.1827 692.165 39.076C691.803 38.9587 691.365 38.836 690.853 38.708C690.277 38.548 689.792 38.3827 689.397 38.212C689.013 38.0307 688.72 37.8067 688.517 37.54C688.325 37.2627 688.229 36.9053 688.229 36.468C688.229 35.924 688.363 35.476 688.629 35.124C688.907 34.7613 689.28 34.4893 689.749 34.308C690.229 34.116 690.763 34.02 691.349 34.02C691.989 34.02 692.555 34.1213 693.045 34.324C693.536 34.5267 693.936 34.8093 694.245 35.172L693.717 35.908C693.419 35.5667 693.061 35.316 692.645 35.156C692.24 34.9853 691.787 34.9 691.285 34.9C690.944 34.9 690.619 34.948 690.309 35.044C690 35.1293 689.744 35.2787 689.541 35.492C689.349 35.6947 689.253 35.9773 689.253 36.34C689.253 36.6387 689.328 36.8733 689.477 37.044C689.627 37.204 689.851 37.3427 690.149 37.46C690.448 37.5667 690.816 37.684 691.253 37.812C691.883 37.9827 692.432 38.1587 692.901 38.34C693.371 38.5107 693.733 38.7347 693.989 39.012C694.245 39.2893 694.373 39.6787 694.373 40.18C694.373 40.9587 694.08 41.5667 693.493 42.004C692.907 42.4413 692.133 42.66 691.173 42.66ZM696.172 42.5V34.164H697.26V42.5H696.172ZM696.172 32.42V30.82H697.26V32.42H696.172ZM703 42.612C702.435 42.612 701.912 42.4947 701.432 42.26C700.952 42.0253 700.536 41.7107 700.184 41.316C699.843 40.9107 699.576 40.452 699.384 39.94C699.192 39.428 699.096 38.9 699.096 38.356C699.096 37.7693 699.187 37.22 699.368 36.708C699.56 36.1853 699.827 35.7213 700.168 35.316C700.52 34.9107 700.931 34.596 701.4 34.372C701.869 34.1373 702.392 34.02 702.968 34.02C703.683 34.02 704.301 34.2013 704.824 34.564C705.357 34.9267 705.805 35.3747 706.168 35.908V34.164H707.144V42.532C707.144 43.3 706.957 43.9453 706.584 44.468C706.221 45.0013 705.725 45.4013 705.096 45.668C704.477 45.9347 703.8 46.068 703.064 46.068C702.115 46.068 701.347 45.8973 700.76 45.556C700.173 45.2147 699.693 44.756 699.32 44.18L699.992 43.652C700.323 44.1747 700.76 44.564 701.304 44.82C701.859 45.076 702.445 45.204 703.064 45.204C703.608 45.204 704.104 45.1027 704.552 44.9C705.011 44.708 705.373 44.4147 705.64 44.02C705.917 43.6253 706.056 43.1293 706.056 42.532V40.884C705.736 41.4067 705.299 41.828 704.744 42.148C704.189 42.4573 703.608 42.612 703 42.612ZM703.304 41.7C703.635 41.7 703.949 41.6413 704.248 41.524C704.557 41.4067 704.84 41.252 705.096 41.06C705.352 40.8573 705.565 40.6333 705.736 40.388C705.907 40.1427 706.013 39.892 706.056 39.636V37.06C705.896 36.6547 705.667 36.2973 705.368 35.988C705.069 35.668 704.728 35.4227 704.344 35.252C703.971 35.0707 703.581 34.98 703.176 34.98C702.707 34.98 702.285 35.0813 701.912 35.284C701.549 35.476 701.24 35.7373 700.984 36.068C700.739 36.388 700.547 36.7507 700.408 37.156C700.269 37.5613 700.2 37.9667 700.2 38.372C700.2 38.82 700.28 39.2467 700.44 39.652C700.6 40.0467 700.819 40.404 701.096 40.724C701.384 41.0333 701.715 41.2733 702.088 41.444C702.472 41.6147 702.877 41.7 703.304 41.7ZM716.555 42.5H715.467V37.844C715.467 36.9053 715.301 36.2013 714.971 35.732C714.64 35.252 714.165 35.012 713.547 35.012C713.141 35.012 712.736 35.1187 712.331 35.332C711.936 35.5347 711.584 35.8173 711.275 36.18C710.976 36.532 710.763 36.9373 710.635 37.396V42.5H709.547V30.82H710.635V36.052C710.965 35.4333 711.424 34.9427 712.011 34.58C712.608 34.2067 713.243 34.02 713.915 34.02C714.395 34.02 714.8 34.1053 715.131 34.276C715.472 34.4467 715.744 34.6973 715.947 35.028C716.16 35.348 716.315 35.7267 716.411 36.164C716.507 36.5907 716.555 37.076 716.555 37.62V42.5ZM722.797 42.1C722.711 42.132 722.578 42.1907 722.397 42.276C722.215 42.3613 721.997 42.436 721.741 42.5C721.485 42.564 721.207 42.596 720.909 42.596C720.599 42.596 720.306 42.5373 720.029 42.42C719.762 42.3027 719.549 42.1267 719.389 41.892C719.229 41.6467 719.149 41.348 719.149 40.996V35.028H717.997V34.164H719.149V31.348H720.237V34.164H722.157V35.028H720.237V40.692C720.258 40.9907 720.365 41.2147 720.557 41.364C720.759 41.5133 720.989 41.588 721.245 41.588C721.543 41.588 721.815 41.54 722.061 41.444C722.306 41.3373 722.455 41.2627 722.509 41.22L722.797 42.1ZM726.892 42.66C726.209 42.66 725.575 42.548 724.988 42.324C724.401 42.1 723.895 41.7587 723.468 41.3L723.916 40.532C724.385 40.9693 724.855 41.2893 725.324 41.492C725.804 41.684 726.311 41.78 726.844 41.78C727.495 41.78 728.023 41.652 728.428 41.396C728.833 41.1293 729.036 40.7507 729.036 40.26C729.036 39.9293 728.935 39.6787 728.732 39.508C728.54 39.3267 728.257 39.1827 727.884 39.076C727.521 38.9587 727.084 38.836 726.572 38.708C725.996 38.548 725.511 38.3827 725.116 38.212C724.732 38.0307 724.439 37.8067 724.236 37.54C724.044 37.2627 723.948 36.9053 723.948 36.468C723.948 35.924 724.081 35.476 724.348 35.124C724.625 34.7613 724.999 34.4893 725.468 34.308C725.948 34.116 726.481 34.02 727.068 34.02C727.708 34.02 728.273 34.1213 728.764 34.324C729.255 34.5267 729.655 34.8093 729.964 35.172L729.436 35.908C729.137 35.5667 728.78 35.316 728.364 35.156C727.959 34.9853 727.505 34.9 727.004 34.9C726.663 34.9 726.337 34.948 726.028 35.044C725.719 35.1293 725.463 35.2787 725.26 35.492C725.068 35.6947 724.972 35.9773 724.972 36.34C724.972 36.6387 725.047 36.8733 725.196 37.044C725.345 37.204 725.569 37.3427 725.868 37.46C726.167 37.5667 726.535 37.684 726.972 37.812C727.601 37.9827 728.151 38.1587 728.62 38.34C729.089 38.5107 729.452 38.7347 729.708 39.012C729.964 39.2893 730.092 39.6787 730.092 40.18C730.092 40.9587 729.799 41.5667 729.212 42.004C728.625 42.4413 727.852 42.66 726.892 42.66Z" fill="white"/>
<path d="M854.881 0H770.941V73.9809C770.941 73.9809 791.926 76.1568 808.569 34.0892C821.461 1.50244 854.881 0 854.881 0Z" fill="#FCFEF3"/>
</svg>
