<svg width="127" height="127" viewBox="0 0 127 127" fill="none" xmlns="http://www.w3.org/2000/svg">
<rect width="127" height="127" rx="63.5" fill="#AFD300" fill-opacity="0.5"/>
<g clip-path="url(#clip0_292_2820)">
<path d="M38.098 46.8873C37.8922 46.4275 37.5441 45.1554 37.478 44.6266C37.4434 44.3499 37.257 44.0356 37.2477 43.914C37.2085 43.4144 37.1219 42.9163 37.083 42.4163C36.8679 39.6504 38.2061 37.3332 39.9563 35.3112C42.079 32.8587 44.9745 31.1325 48.2949 32.075C48.5699 32.153 48.8795 32.186 49.1504 32.2961C53.7421 34.188 55.9897 38.9299 57.8596 43.2077C57.9732 43.4676 58.3653 44.4954 58.544 44.6082C61.1162 44.2424 63.5882 43.8857 66.1952 43.9793C67.6852 44.0328 69.1666 43.9135 70.6716 44.1215C71.8793 44.2883 73.1898 44.3244 74.3933 44.5189C75.5445 44.705 76.6476 45.0382 77.8026 45.2004C79.2069 45.4847 80.8092 46.0219 81.9867 46.8383C82.1208 46.9358 83.0507 47.6662 83.1139 47.7451C83.5588 48.302 83.8329 49.3853 83.9499 50.091C84.167 51.4659 83.7445 52.9972 83.4127 54.3377C83.1301 55.4814 82.5813 56.6611 82.134 57.7415C81.8794 58.3158 81.5305 58.9046 81.2945 59.4373C80.7104 60.7584 80.036 61.9856 79.3208 63.2405C78.7631 64.2188 78.0623 65.1084 77.4914 66.0568C77.8716 66.3487 78.2914 66.6556 78.6487 67.018C79.6825 68.0653 80.891 69.5723 81.1925 71.0483C81.2623 71.3898 81.2084 71.7929 80.9844 72.0456C80.9325 72.1371 80.786 72.2262 80.8112 72.3363C80.9135 72.7851 81.2453 73.2584 81.2363 73.734C81.2232 74.4615 80.4836 74.3572 80.8309 75.1991C81.1185 75.896 81.3976 77.0413 80.529 77.4561C80.5313 77.4425 81.3038 79.1355 81.4019 79.4169C81.9305 80.9316 82.1344 82.4499 82.296 84.0247C82.4712 85.7344 82.26 87.2933 82.0925 88.9871C82.0736 89.1805 81.9608 89.4103 81.9437 89.6096C81.8015 90.2553 81.8026 93.0092 81.5367 93.3565C81.6577 94.0313 81.5193 94.2584 81.4371 94.9045C81.3708 95.4255 81.4414 96.1627 81.3627 96.6615C81.1429 98.0569 81.1782 99.4553 81.1236 100.864C81.1162 101.061 81.0433 101.286 81.0185 101.483C81.0584 101.986 81.0294 102.597 81.0716 103.085L81.0143 103.193H78.8247C78.784 102.6 78.7991 102.079 78.8468 101.486C78.865 101.265 78.7891 100.998 78.81 100.745C78.8278 100.527 78.8995 100.113 78.9371 99.8801C78.7906 99.5712 78.9232 99.503 78.946 99.1542C78.9712 98.7712 78.9759 98.3514 78.9801 97.9596C79.2061 97.7204 78.9677 97.8421 78.9511 97.5964C79.2615 97.2677 78.9325 97.4685 78.9902 97.1445C79.0243 96.9541 79.0933 96.7445 79.1119 96.5468C79.0898 96.5104 79.0677 96.4735 79.0456 96.4371C79.1883 95.7797 79.2158 95.1092 79.3301 94.4472C79.3402 94.3871 79.2716 94.2111 79.2468 94.1576C79.2875 94.0336 79.3363 93.9758 79.4092 93.8696C79.2197 93.6034 79.3863 93.7173 79.3922 93.6464C79.4084 93.4569 79.4046 93.2623 79.4251 93.0658C79.4976 92.4433 79.5646 91.8204 79.627 91.1972C79.6511 90.9421 79.6615 90.6813 79.6732 90.439C79.6747 90.4014 79.803 89.9034 79.8177 89.8437L79.7379 89.7611C79.7232 89.6018 79.8406 89.5793 79.934 89.3685C79.8972 89.3402 79.86 89.3119 79.8232 89.2832C79.8681 88.3999 80.0898 87.4824 80.1515 86.5836C80.1274 86.546 80.1038 86.5088 80.0798 86.4712C80.0813 86.3154 80.1046 86.3359 80.2069 86.1789C80.1763 85.091 80.203 83.9828 80.098 82.8847C80.0309 82.4836 79.9259 82.1092 79.8646 81.7049C79.6898 80.5491 79.3119 79.4053 78.8844 78.3196C78.834 78.1913 78.6763 77.725 78.6092 77.6312C78.4325 77.3832 78.0747 77.1359 77.8825 76.8843C77.5856 76.5762 77.0332 75.7351 76.8344 75.4964C76.2883 74.8398 74.2348 72.3917 73.6065 72.013C73.4914 72.2091 73.8061 74.4851 73.3832 75.1467C73.196 75.4402 72.8825 75.5917 72.5499 75.6553L72.1658 75.7297C72.0499 75.6863 71.8894 75.6343 71.7786 75.5894C71.1976 75.3537 70.7956 74.8355 70.5332 74.289C70.1755 73.5436 69.9239 72.8246 69.7549 72.0181C69.715 71.827 69.7592 71.62 69.7138 71.439C69.6786 71.2987 69.572 71.1401 69.539 70.9948C69.3716 69.9367 69.3088 68.8688 69.303 67.7987C69.3022 67.608 69.358 67.3739 69.3654 67.1661C69.3809 66.9518 69.3588 66.7289 69.3917 66.5169C69.4313 66.2599 69.8472 65.4448 69.7666 65.2293C69.5646 64.6882 69.2212 64.1742 68.9859 63.6421L65.3704 55.6393C65.103 55.5061 60.6546 56.4345 60.0342 56.2787C59.4396 56.3058 59.1127 55.1725 59.7757 55.1337C61.6424 55.0245 63.5305 54.6748 65.3836 54.4154C65.7072 54.3701 66.2855 54.3781 66.4879 54.2352C67.3096 54.2224 70.8371 53.762 71.2914 53.907C71.5274 53.9823 71.8716 53.8921 72.1278 53.8905C72.7681 53.8867 73.4937 53.8943 74.127 53.9789C74.2619 54.0903 74.4856 54.2024 74.5456 54.3752C74.7879 55.0725 73.7266 58.4278 73.4421 59.261C73.341 59.5573 73.1766 59.8459 73.0883 60.1392C73.0387 60.3049 73.0421 60.4771 72.979 60.6418C72.8232 61.0482 72.6317 61.4447 72.4662 61.8478C72.198 62.5015 71.9487 63.163 71.6793 63.8165C71.3499 64.6153 70.8545 65.4099 70.66 66.2545C70.4216 67.2882 70.5375 68.9316 70.7239 69.994C70.8716 70.8347 71.5282 73.9134 72.1468 74.3413C72.5317 74.2266 72.2363 71.3041 72.7728 70.7289C72.8708 70.6239 72.9968 70.5677 73.1406 70.5696C73.8828 70.5785 76.8255 73.5607 77.4414 74.2122C78.1844 74.9987 78.872 75.8336 79.6263 76.6134L79.6763 76.5712C79.7139 75.5747 77.8615 72.9204 77.1332 72.1572C76.8487 71.8591 75.8801 71.1646 76.4491 70.8638C77.3925 70.365 79.4398 73.4033 79.7445 73.4909L79.7716 73.4421C79.767 73.4336 79.7301 73.365 79.722 73.3541C79.5049 73.075 79.4894 72.7215 79.2999 72.4181C78.9611 71.875 78.6697 71.3266 78.3053 70.7956C78.0526 70.4274 77.8022 70.1793 77.5375 69.8336C77.4852 69.7522 77.4406 69.6591 77.4891 69.5665C77.6011 69.3522 77.9511 69.1564 78.1875 69.2711C78.6216 69.4816 79.0259 70.0088 79.3049 70.3983C79.3949 70.5231 79.3429 70.5022 79.4991 70.5987L79.6162 70.5432C79.5964 70.4529 79.5689 70.4053 79.5193 70.3289C79.3677 70.0948 79.2561 69.8328 79.1034 69.5952C78.5185 68.6839 77.772 67.77 76.9472 67.0704C76.7968 66.9429 76.6317 66.7855 76.4623 66.6855C76.2142 66.5394 75.3844 66.2754 75.4425 65.9487C75.5371 65.4188 77.0976 62.8568 77.4615 62.2146C77.7941 61.6273 78.084 61.0056 78.3953 60.4059C79.6038 58.0797 81.0635 55.1707 81.579 52.5966C81.8018 51.4835 81.8654 50.312 81.5457 49.2171C81.4747 48.9736 81.4081 48.6616 81.2755 48.4465C81.1786 48.2897 80.9914 48.1399 80.8546 48.0187C79.5515 46.863 77.5476 46.3201 75.8859 45.9033C75.4805 45.8015 75.0732 45.6796 74.6611 45.6092C73.5092 45.4124 72.3569 45.315 71.196 45.1958C70.2828 45.1022 69.3743 44.9837 68.4576 44.9205C67.927 44.884 67.3844 44.9108 66.8526 44.9035C66.0778 44.8928 65.3053 44.8531 64.5305 44.8879C64.0049 44.9115 63.4832 44.9864 62.9596 45.0346C61.4397 45.1745 59.9381 45.3396 58.4291 45.5735C57.4558 45.7244 55.6313 45.9958 54.7738 46.3759C54.4724 46.1183 54.6025 46.127 54.4242 45.8401C54.5639 45.4049 55.7755 45.3447 56.0512 45.1195C56.0557 45.2669 55.037 42.766 54.9712 42.6132C54.6213 41.8004 54.1653 40.9041 53.8625 40.0153C53.8509 39.981 53.049 38.5311 52.9868 38.4227C52.2307 37.1016 51.2879 35.8964 50.1874 34.8447C49.0016 33.7308 47.5463 32.7581 45.8469 32.7702C44.2492 32.7815 42.6355 33.8098 41.5974 34.9709C40.6952 36.03 39.8371 37.1568 39.2238 38.4109C38.9731 38.9234 38.9056 39.393 38.7456 39.905C38.568 40.4732 38.5746 40.7274 38.6158 41.3311C38.7414 43.1742 39.3107 45.0219 39.9686 46.7403C40.2027 47.3375 40.682 48.1727 40.9892 48.7446C41.0458 48.85 41.0918 49.0742 41.1153 49.1106C41.2067 49.2521 41.3103 49.4155 41.4006 49.561C41.806 50.2143 42.3584 51.2481 42.8183 51.8355C43.2157 52.0275 46.7499 50.2901 47.3645 50.1616C47.5902 50.1144 48.2962 50.4293 48.385 50.6114C48.3612 50.7269 48.3523 50.7664 48.3124 50.8816C48.3591 50.9794 48.5966 51.394 48.63 51.5502C48.9888 53.2281 49.2577 54.9658 49.6543 56.6265C49.6774 56.7233 49.6941 56.6218 49.724 56.6985C49.8271 56.9633 49.8328 57.2838 49.9224 57.5611C50.0823 58.1971 50.3032 58.7543 50.4557 59.3948C50.4988 59.5759 50.6259 59.8472 50.6638 60.0325C50.6857 60.1402 50.619 60.1941 50.6642 60.3528C51.0749 61.8029 51.529 63.2405 52.0256 64.6634C52.2935 65.4421 52.656 66.1483 52.8516 66.9587C52.9784 67.4843 53.3152 67.9971 53.502 68.5029C53.5088 68.5196 53.4835 68.6572 53.4811 68.6712L53.5118 68.7308C53.7026 69.1045 53.805 69.4382 53.9639 69.8188L54.9827 72.327C55.0444 72.482 55.1895 72.5727 55.2354 72.7266C55.7427 74.4258 56.6117 75.9123 57.3581 77.5072C57.5337 77.8824 56.639 78.4894 56.4556 78.6878C54.2378 81.0886 51.8817 83.3685 49.6582 85.7685C49.0168 86.4669 48.3864 87.1755 47.7674 87.8941C47.4836 88.2173 47.1795 88.5255 46.9079 88.8588C46.1201 89.8262 45.4368 90.8665 44.7009 91.8712C43.4134 93.6293 40.0259 97.8654 39.7165 99.8879C39.5407 101.037 40.1805 102.131 40.481 103.193H38.7456C38.736 103.181 38.6235 103.035 38.6235 103.035L38.3407 102.003C38.2139 101.539 38.0379 100.452 38.166 99.9662C38.9953 96.8173 41.3391 94.051 43.117 91.3801C43.27 91.0681 43.7271 90.7034 43.8014 90.3844C43.8052 90.2115 43.9636 90.1018 44.084 89.9538C44.5601 89.3693 44.9181 88.6859 45.3938 88.0933C45.971 87.3739 46.6009 86.6855 47.1197 85.9204C47.1662 85.9037 47.2128 85.8871 47.2593 85.8704C47.3655 85.6782 47.6549 85.2754 47.7764 85.1367C49.188 83.5037 50.6307 81.8975 52.1037 80.3196C52.6337 79.7599 53.2166 79.1964 53.7612 78.6464C54.0426 78.3619 54.4708 78.0289 54.7154 77.7363C54.6489 77.434 53.4492 74.9274 53.2265 74.6006C53.2427 74.4991 53.239 74.4855 53.2386 74.3812C53.1045 74.1836 52.2326 71.913 52.1897 71.6533C52.1759 71.5696 52.169 71.5138 52.1183 71.4409C51.8779 71.0964 51.678 70.4913 51.5501 70.0936C51.5152 69.9855 51.4805 69.7463 51.4213 69.6599C51.3918 69.6165 51.3056 69.5913 51.2754 69.5483C51.1919 69.4289 51.0673 68.7301 50.9992 68.5347C50.9086 68.275 50.7533 68.0448 50.6544 67.7913C50.5633 67.5584 50.6536 67.2537 50.5244 67.0378C50.2935 66.6522 49.8815 65.3897 49.7622 64.9122C49.5869 64.756 49.5932 64.4894 49.5288 64.2533C49.414 63.839 49.2956 63.4262 49.1739 63.0142C49.1144 62.818 49.0385 62.6184 48.9885 62.4218C48.9569 62.2977 48.9763 62.0753 48.9389 61.9582C48.751 61.3698 48.6098 60.7573 48.4575 60.158C48.3919 59.9003 48.388 59.6692 48.3578 59.4156C48.3442 59.3007 48.1357 58.9338 48.1049 58.8076C48.0668 58.6515 48.0913 58.4099 48.0605 58.2455C48.0166 58.0191 47.87 57.8015 47.8507 57.5712C47.823 57.3225 47.7785 57.0714 47.7166 56.8286C47.552 56.1816 47.5407 55.5222 47.4665 54.8573L47.175 52.2788C47.1466 52.0255 47.045 51.7187 47.1071 51.4872L47.0751 51.4588C46.6254 51.5829 46.0669 51.984 45.5762 52.1628C44.3803 52.5986 42.4629 53.8954 41.3405 52.7483C41.229 52.6343 40.8629 52.3491 40.8092 52.2627C39.8889 50.7821 38.8068 48.9687 38.2378 47.3168C38.102 47.0999 38.1851 47.025 38.098 46.8873Z" fill="black"/>
<path d="M79.6161 70.543C79.6901 70.7612 79.8731 70.8511 79.8475 71.0523L79.7851 71.0813C79.6742 70.9197 79.6103 70.7492 79.499 70.5984L79.6161 70.543Z" fill="#FDFDFC"/>
<path d="M72.5021 55.0781C72.7028 55.1722 73.0947 55.0203 73.261 55.1513C73.2075 55.3496 73.0757 55.8487 73.0734 56.0383C73.0687 56.4028 72.973 56.3609 72.8982 56.6468C72.6714 57.5176 72.3773 58.3769 72.1203 59.2407C72.016 59.5917 71.83 59.984 71.7668 60.3414C71.7408 60.489 71.7796 60.5008 71.6513 60.6392C71.4253 60.8833 71.1195 62.1767 70.9121 62.3448L70.8397 62.3207C70.6722 61.6724 70.2296 61.1713 70.0567 60.5909C69.8195 60.3555 68.4594 57.4807 68.2059 56.9845C68.0191 56.6188 67.5048 55.7789 67.3032 55.4072L67.3257 55.3677C68.385 55.0734 70.0765 55.1798 71.1912 55.0885C71.5129 55.0622 72.2521 55.1613 72.5021 55.0781Z" fill="#D3E773"/>
<path d="M56.6875 103.192C56.8254 102.745 57.6695 102.104 58.029 101.787C59.9023 100.137 62.0318 98.5217 64.0719 97.0814C64.4599 96.8074 64.8758 96.5721 65.2672 96.302C65.5843 96.0826 65.8827 95.8334 66.1994 95.6182C66.4986 95.4148 66.8266 95.2617 67.1262 95.0613C67.3723 94.8965 67.5862 94.688 67.8312 94.5221C68.0843 94.3508 68.3688 94.221 68.6293 94.0605C69.4851 93.5326 70.3242 92.9814 71.1851 92.4585C71.6425 92.181 72.0754 91.8655 72.5498 91.6151C72.8944 91.433 73.2971 91.2578 73.6843 91.3923C73.8987 91.4667 74.2235 91.662 74.325 91.8756C74.3692 91.9686 74.3808 92.0365 74.3444 92.1345C74.1634 92.6229 67.589 97.2039 66.6362 97.8865C66.3835 98.0679 65.4273 98.65 65.3413 98.8539C65.2765 99.007 65.7017 102.733 65.7665 103.192H64.1421H59.3826H56.6875Z" fill="black"/>
<path d="M59.3826 103.192L59.4363 103.158C59.8968 102.86 60.3551 102.452 60.7971 102.119C61.6706 101.462 62.525 100.743 63.4342 100.14C63.5773 100.045 63.8625 99.8173 63.9598 99.7607C64.0021 100.243 63.854 101.498 64.1059 101.875C64.0978 102.098 63.9339 102.146 64.0253 102.409C64.0932 102.604 64.0641 103.035 64.142 103.192H59.3826Z" fill="#D3E773"/>
<path d="M83.3754 73.3473C83.1805 73.3144 83.1936 73.3466 83.0623 73.2388C82.8409 72.4748 84.3374 72.7388 84.7142 72.7822C85.5126 72.8748 86.8196 73.3318 86.8378 74.3008L86.9956 74.3675L87.0169 74.4299C86.8902 74.6318 86.8398 75.0679 86.7514 75.3392C86.6355 75.6962 85.8398 76.7962 85.8719 77.0679C86.0169 77.2559 86.2975 77.3764 86.5157 77.476C87.6506 77.9931 88.834 78.4749 88.6902 79.9644C88.5231 81.6946 86.4243 82.6691 87.1099 84.5105C87.2398 84.8594 87.2425 85.1338 87.563 85.3427C87.6057 85.4652 87.5929 85.4163 87.5739 85.5586C87.9429 86.0795 88.6161 86.685 89.0882 87.114C89.0421 87.3028 88.9095 87.5074 88.7603 87.6315L88.684 87.6237C88.615 87.6516 88.4092 87.8094 88.4266 87.8063C87.7611 87.9229 86.4727 86.9431 86.1812 86.4943L86.1971 86.3617C86.1154 86.3078 86.089 86.3039 85.9956 86.271C85.8933 86.1179 85.8045 85.9551 85.713 85.7954C85.7022 85.6904 85.7921 85.6931 85.7018 85.6059C85.3909 85.3043 85.3719 84.8927 85.2863 84.5067C85.0324 83.3632 85.3983 82.3423 86.0615 81.4183C86.4398 80.8915 86.9289 80.3791 87.0095 79.7101C87.0243 79.5877 86.8925 79.3896 86.8177 79.3035C86.0475 78.4163 85.1138 78.7117 84.3747 77.6221L84.3936 77.4125C84.3526 77.3737 84.3173 77.3392 84.2766 77.2985C84.2793 77.0004 84.3452 77.2427 84.3688 77.0915C84.4006 76.8849 84.4026 76.6811 84.4793 76.4772C84.6809 75.9396 85.9661 74.676 85.3991 74.1574C85.0406 73.8295 84.2816 73.6279 83.8057 73.4539C83.6816 73.4051 83.57 73.4338 83.3754 73.3473Z" fill="black"/>
<path d="M83.3755 73.3474C83.6018 73.2586 83.5604 72.9644 83.9057 72.8613C84.0747 72.9369 84.0987 73.0908 84.0309 73.2524C83.9433 73.3241 83.8852 73.371 83.8057 73.454C83.6817 73.4051 83.5701 73.4338 83.3755 73.3474Z" fill="#100603"/>
</g>
<defs>
<clipPath id="clip0_292_2820">
<rect width="79.38" height="79.38" fill="white" transform="translate(23.8125 23.8125)"/>
</clipPath>
</defs>
</svg>
