<svg width="127" height="127" viewBox="0 0 127 127" fill="none" xmlns="http://www.w3.org/2000/svg">
<rect width="127" height="127" rx="63.5" fill="#AFD300" fill-opacity="0.5"/>
<g clip-path="url(#clip0_292_2927)">
<path d="M62.666 34.1018C63.0652 34.0083 66.8187 34.243 67.4648 34.3134C69.0129 34.4926 72.3873 35.0885 73.4989 36.0425C74.8268 37.1827 72.7904 39.477 76.254 38.6628C76.5106 38.6025 76.8117 38.564 77.0652 38.5061C79.3602 37.9818 82.8986 37.7891 83.3745 40.8195C83.7059 42.9315 83.3718 44.6945 81.0827 45.3039C78.5881 46.0918 76.7846 44.9708 74.354 44.7095C73.9826 44.7621 74.1063 45.4723 74.1249 45.6457C74.2416 46.7346 74.4319 47.812 73.3737 48.5124C73.0047 48.7569 73.2334 48.8279 72.6772 48.9764C72.4869 49.1887 72.4303 49.2747 72.278 49.5166C72.8129 49.6665 73.535 49.9942 73.7423 50.627C73.783 50.7508 73.704 51.2008 73.7404 51.428C73.878 51.5321 74.5299 51.3688 74.7501 51.3222C75.6815 51.1245 76.5765 51.0884 77.5234 51.0624C78.1125 51.0462 78.8509 50.9618 79.435 51.0353C80.1986 51.1315 81.1451 51.3499 81.7951 51.7789C82.1513 52.014 82.5028 52.2699 82.7365 52.6348C82.8117 52.7523 82.8226 52.8285 82.8831 52.9374C82.94 53.0404 83.0478 53.0687 83.0749 53.2285C83.1373 53.5942 83.2106 53.9709 83.2517 54.3401C83.2517 54.3402 83.1555 54.5671 83.1555 54.5671C83.1904 54.7564 83.2637 55.0611 83.2199 55.2488C83.0377 56.0303 83.0683 56.7372 82.5269 57.3731C82.2505 57.6972 81.7443 58.184 81.3199 58.2878C79.6776 58.6894 77.7346 58.2551 76.0916 57.9668C75.8075 57.9169 75.5485 57.8938 75.2823 57.8478C74.6691 57.742 74.3528 57.567 73.7257 57.6333C73.702 57.7496 73.8699 57.9515 73.8544 58.0673C73.8458 58.1277 73.8412 58.1633 73.8373 58.2323C74.0369 58.5553 73.9106 58.5958 73.9858 58.8748C74.1575 59.5115 74.2761 60.1906 73.6633 60.6458C73.5547 60.7264 73.3078 60.8892 73.352 61.0487C73.5652 61.1554 73.8962 61.1805 74.1509 61.2505C75.6249 61.6558 75.7904 63.1543 75.6904 64.445C75.6788 64.5907 75.5978 64.5458 75.6772 64.7237C75.8005 64.7775 75.9594 64.7775 76.0908 64.7473C77.9098 64.3299 79.7885 63.5648 81.6842 63.769C82.3986 63.8462 83.2451 64.1179 83.7369 64.6682C84.035 65.0016 84.3486 65.5392 84.4633 65.9826C84.4443 66.1578 84.7552 66.7969 84.7431 66.9206C84.6734 67.6559 84.7873 68.6217 84.5427 69.3148C84.0656 70.6667 83.3501 71.3287 82.0082 71.7221C80.7629 72.0876 79.9501 72.0396 78.6695 71.8473C77.9803 71.7547 75.864 71.1694 75.2939 71.4752C75.1144 71.8632 75.235 72.6907 75.2885 73.0679C75.3373 73.4136 74.9834 73.4714 75.2117 73.9876C75.1466 74.1822 75.1117 74.3504 75.0668 74.5497C74.6706 74.9586 74.352 75.2001 73.8788 75.5175C73.6819 75.6497 73.1687 75.8396 73.071 75.9667C73.1361 76.4981 74.1323 76.4935 74.4892 77.3311C74.8296 78.1295 74.2881 79.0671 74.4191 79.3439C77.1412 78.3501 79.9036 76.7384 82.6668 78.9059C82.9706 79.1442 82.9536 79.3815 83.2098 79.6198C83.2303 79.6303 83.2509 79.6408 83.2714 79.6512C83.5927 80.5346 83.4676 81.616 83.5412 82.5454C83.5831 83.0745 82.9962 84.2202 82.5807 84.5617C82.2377 84.8435 81.1075 85.3726 80.6749 85.435C79.2125 85.6404 77.7187 85.735 76.2423 85.7567C75.8578 85.7625 74.3865 85.4322 74.2513 85.8284C74.373 86.0625 74.3803 86.3935 74.4191 86.6764C74.5218 87.4574 74.9509 88.6578 74.5513 89.3912C73.7889 90.7636 72.2199 90.7807 70.8823 91.1167C69.5346 91.4555 67.9319 91.7423 66.6543 92.2741C65.8582 92.4741 65.1353 92.7489 64.3183 92.8691C63.8943 92.9315 63.6551 92.8621 63.2853 92.883C61.5815 92.9803 59.8754 92.7788 58.189 92.5276C57.0136 92.3524 55.8751 92.2063 54.7408 91.7784C53.8434 91.4334 52.8059 91.1117 52.0816 90.4617C52.127 90.5024 51.5138 89.5167 51.5295 89.5815C51.3197 88.7183 51.8295 87.4822 52.1513 86.6698C51.7818 86.6714 51.3809 86.3822 51.0281 86.2446C50.1497 85.9024 49.4016 86.1291 48.5264 86.1838C47.1186 86.2718 45.6601 86.4299 44.2743 86.0993C43.3795 85.9574 42.3581 85.0869 42.3098 84.121C42.2679 83.2803 42.5329 81.8946 42.769 81.0516C42.8204 80.8683 42.9656 80.4706 43.091 80.3136C43.2425 80.1241 43.2733 80.0551 43.3657 79.8299C43.6146 79.5574 44.0154 79.1753 44.3419 79.0028C45.92 78.1694 47.9405 78.8849 49.5402 79.3191C50.3038 79.5346 51.2233 79.5547 51.9338 79.1481C51.9607 79.0439 51.8033 78.7477 51.7624 78.6028C51.2052 76.626 53.4214 76.7194 54.0039 75.7105L54.031 75.6628C52.4503 75.1291 51.6549 74.0388 52.6671 72.5369C52.7572 72.4031 52.9672 72.0683 52.8786 71.9287C52.3642 71.8826 51.5633 72.0551 51.0371 72.1694C49.8244 72.4334 48.6213 72.7807 47.3603 72.6876C46.4471 72.6206 45.7529 71.9148 45.1591 71.2764C44.8209 70.9124 44.737 70.0741 44.8091 69.5609C44.9763 68.371 45.4016 66.8954 46.3755 66.0985C46.544 65.9605 46.9143 65.8531 47.1119 65.7663C48.5086 65.1508 49.4873 66.0132 50.814 66.1834C51.4329 66.2628 53.0383 66.39 53.5513 65.9869C53.58 65.8531 53.3773 65.0632 53.4032 64.6403L53.4081 64.569C53.4375 64.081 54.0493 63.3853 54.5588 63.3086L54.5693 63.2586C54.2662 62.9431 53.0411 62.7206 52.5765 62.436C51.5875 61.8306 51.5231 61.5065 51.758 60.4061C51.8281 60.0779 51.8761 59.7196 51.9794 59.3896C52.0341 59.2149 52.2082 58.8895 52.1551 58.7262C51.4917 58.4602 48.2555 60.4643 46.126 59.5322C45.4229 59.2244 44.9441 58.6087 44.6717 57.9059C44.581 57.6718 44.4703 57.3449 44.4818 57.0939C44.4884 56.9499 44.5293 56.8077 44.5334 56.664C44.5378 56.514 44.4879 56.3678 44.4953 56.2161C44.518 55.7521 44.7215 55.1381 44.9125 54.7099C45.588 53.1955 47.075 52.9254 48.5729 52.8025C49.3044 52.7424 50.0368 52.7178 50.7697 52.6845C51.2957 52.6605 51.9696 52.653 52.4597 52.4488C52.5176 52.4246 52.5953 52.3818 52.6261 52.3254C52.6898 52.2087 52.3203 51.1139 52.4592 50.6164C52.6696 49.8632 53.8244 49.498 53.9597 49.0086C53.9719 48.9647 53.98 48.9057 53.9426 48.8733C53.8624 48.8038 53.7182 48.7701 53.6193 48.7321C53.1467 48.5507 52.6903 48.3665 52.4471 47.8891C52.1021 47.2116 52.5602 45.9345 52.7926 45.2402C52.3458 45.3674 51.8495 45.4739 51.4256 45.6057C49.7735 46.1192 47.7085 46.9028 46.0447 46.1074C45.4125 45.8579 44.9372 45.2693 44.7246 44.6312C44.5973 44.2494 44.7965 43.451 44.896 43.0661C44.9983 42.6701 45.2065 42.1779 45.3799 41.797C45.5931 41.3284 46.1593 40.7854 46.6464 40.588C47.3156 40.3167 48.1484 40.2433 48.8516 40.0677C49.6459 39.9146 50.3593 39.7065 51.1508 39.5023C51.3542 39.4499 53.2283 39.075 53.2989 38.9194C53.4627 38.5585 52.9289 37.5062 53.0177 37.0597C53.0562 36.8661 53.235 36.5496 53.3239 36.3697C53.7102 36.089 54.2081 35.9909 54.6404 35.7645C57.0943 34.4798 59.9031 34.1715 62.6299 34.1078C62.6419 34.1058 62.6539 34.1038 62.666 34.1018Z" fill="black"/>
<path d="M53.7225 77.3066C53.7555 77.3822 53.7879 77.4535 53.8514 77.509C53.9802 77.621 54.1674 77.6962 54.3278 77.7501C54.627 77.8504 56.4877 78.2737 56.71 78.247C56.9486 78.2179 57.6087 78.4392 57.91 78.49C58.5167 78.5923 59.1151 78.6807 59.7295 78.7221C60.7343 78.7896 61.7379 78.7435 62.7443 78.7376C63.9737 78.7307 65.2086 78.7547 66.4361 78.6795C67.0799 78.64 67.7257 78.5318 68.364 78.4423C69.6047 78.2687 70.8582 78.095 72.0575 77.721C72.3222 77.6384 72.5675 77.464 72.8284 77.3597C73.7807 77.4442 73.3408 78.5152 73.1916 79.0973C73.0734 79.5574 72.7311 80.3202 73.3648 80.5621C73.7075 80.6954 73.8385 80.614 74.14 80.4962C75.8726 79.8187 77.6342 78.9528 79.4877 78.6795C80.1928 78.576 81.3823 79.0861 81.5292 79.8256C81.6292 80.3311 81.6652 80.8911 81.7381 81.4063C81.7381 81.4066 81.6571 81.6059 81.649 81.6256C81.7245 81.8865 81.7331 82.2559 81.7207 82.5276C81.4866 82.8865 81.7218 83.4055 81.4916 83.7129C81.1145 83.8764 81.104 84.1803 80.4726 84.3648C79.2819 84.7121 78.1265 84.7074 76.9051 84.747C76.8044 84.7702 76.802 84.759 76.7028 84.7629C75.6342 84.8024 73.2361 84.3497 72.7912 85.6315C72.7489 85.7528 72.7648 85.9714 72.854 86.0648C73.0373 86.2567 72.878 86.464 72.9059 86.6884C73.0075 87.5171 73.3466 88.5939 72.8881 89.3675L72.8563 89.4198C72.2633 89.6857 72.4059 89.6129 71.79 89.7303L69.6947 90.1474C68.2245 90.4536 66.7629 90.7966 65.2722 91.002C65.1435 91.0198 64.8516 91.1198 64.7664 91.1198C64.2904 91.121 63.8187 91.1753 63.345 91.2016C63.2749 91.2055 63.2381 91.1187 63.0954 91.1229C62.7741 91.1326 62.476 91.154 62.1538 91.1447C60.7527 91.1043 59.4369 90.9245 58.0486 90.7237C57.4722 90.6404 56.8187 90.6571 56.211 90.5357C55.3238 90.3586 53.7851 90.1753 53.1761 89.428C53.0954 89.3291 52.9332 88.7632 52.956 88.6408C53.0058 88.3737 53.1896 87.9605 53.259 87.6931C53.461 86.914 53.8039 86.1001 53.9224 85.3082C54.1293 83.8993 54.2683 82.4357 53.9056 81.0396C53.758 80.4714 53.5785 79.9233 53.3509 79.3842C53.2573 79.1625 53.2731 78.7714 53.1515 78.5508C53.1295 78.5113 53.107 78.4915 53.0797 78.4272C53.1417 78.1718 53.1419 78.1772 53.0332 77.9314L53.0105 77.8811C53.0463 77.6361 53.4981 77.3741 53.7225 77.3066Z" fill="#D3E773"/>
<path d="M66.7188 60.583C66.73 60.5853 66.7413 60.5875 66.7525 60.5898C67.4754 60.8804 68.33 60.9168 69.101 61.0821C70.1777 61.3127 71.237 61.5678 72.3099 61.8232C72.8917 61.9616 73.6134 62.0843 74.1432 62.3639C74.2386 62.4143 74.4203 62.6595 74.4944 62.7552C74.48 63.0831 74.6083 63.3502 74.5963 63.6168C74.5723 64.0804 74.4688 64.5397 74.4196 65.001C74.3676 65.4866 74.3897 65.601 74.7622 65.8897L75.2564 65.9502C75.7308 65.7165 76.5033 65.5413 77.0421 65.4203C78.551 65.0812 80.2986 64.1583 81.8456 64.6479C82.2583 64.7785 82.5397 65.0893 82.6537 65.475C82.8568 65.9157 83.1363 66.8355 82.9378 67.299C82.9901 67.43 83.0401 67.525 83.0246 67.6645C82.9882 67.9944 83.0169 68.2835 82.982 68.6293C82.901 68.7184 82.8634 68.7486 82.818 68.8622L82.8894 68.894C82.9479 69.0525 82.7638 69.1432 82.7952 69.268L82.8549 69.3169L82.8142 69.3983L82.732 69.3401C82.5905 69.4665 82.7413 70.0122 82.0936 70.57C80.9614 71.5448 78.7661 70.9173 77.3874 70.687C76.9296 70.6138 76.4676 70.5684 76.0045 70.5506C75.5607 70.5343 74.8731 70.539 74.5072 70.7595C73.4517 71.1599 74.0696 74.1018 73.5533 74.4235C72.0548 75.3576 67.3029 75.1707 65.8327 75.1188C64.4327 75.1727 62.9719 75.1808 61.5642 75.1971C60.7301 75.2064 59.9049 75.3231 59.0722 75.3235C57.7182 75.3238 56.1099 75.139 54.801 74.7626C54.4941 74.6742 54.1399 74.4262 53.8977 74.2359C53.8924 74.0975 53.858 73.737 53.911 73.6432C55.3618 71.0738 55.8373 67.6723 54.7401 64.8855C54.6486 64.7548 54.8114 64.4114 54.9468 64.3963C55.9142 64.2893 59.1245 65.3897 59.8669 65.1948C60.5204 65.7692 60.3423 66.0223 60.8167 66.6777C61.0828 67.0122 61.5511 67.2506 61.8428 67.532C62.3223 67.9948 61.7013 69.0529 62.2047 69.5704L62.2422 69.5277C62.3421 69.1014 62.4955 68.1684 62.5502 67.7297C62.6002 67.3289 61.8671 66.8397 61.6984 66.6362C61.5271 66.4296 61.1483 65.5296 61.0664 65.2386C61.0959 65.0901 61.1942 64.7331 61.3187 64.6362C61.9589 64.137 62.694 63.7455 63.3436 63.261C64.0149 62.7595 64.6785 62.2228 65.3149 61.6786C65.6792 61.367 66.0238 60.9961 66.4564 60.7752C66.5909 60.7065 66.6064 60.6927 66.7188 60.583Z" fill="#D3E773"/>
<path d="M62.1145 34.8018C62.3708 34.8342 62.7045 34.8132 62.9751 34.8151C63.4119 34.822 63.8487 34.8346 64.2852 34.8529C65.1728 34.8879 65.9421 34.9665 66.8232 35.0604C68.877 35.2791 71.1367 35.6046 72.698 37.0852C72.7794 37.6301 72.7538 38.4394 72.9453 38.9064C73.1205 39.3329 74.5441 39.7112 74.9639 39.7274C76.6774 39.7927 78.3061 38.8991 80.0189 39.1072C80.1073 39.1179 80.9507 39.3475 80.9976 39.3744C81.5015 39.6621 81.5278 40.1942 81.7426 40.6566L81.7666 40.7079C81.6848 41.0313 81.7798 41.5114 81.7875 41.8997C81.8511 41.9671 81.8635 41.974 81.9069 42.0544C81.8325 42.1266 81.8166 42.1419 81.7561 42.2254C81.7592 42.2416 81.8209 42.5187 81.8236 42.4937C81.7918 42.8072 81.6348 43.6123 81.4367 43.84C80.2856 45.1614 78.2534 44.1658 76.8236 43.9909C75.555 43.8129 74.5084 43.61 73.2705 43.7866C73.1573 43.9217 72.7949 44.2322 72.7716 44.2831C72.4394 44.9998 72.8918 46.09 72.7879 46.8909C72.767 47.0515 72.6817 47.2943 72.636 47.4362C72.5166 47.5788 72.3631 47.8979 72.1608 47.86C71.3387 47.7148 70.5398 47.4619 69.7204 47.2856C68.4406 47.0104 67.1631 46.9532 65.8607 46.8384C62.6057 46.5517 59.3266 46.7116 56.1403 47.4621C55.6741 47.572 54.2215 48.0833 53.8364 47.6633C53.844 47.5598 53.77 47.0728 53.7563 47.1095C54.4094 45.3536 54.8745 43.5498 55.0474 41.6748C55.1908 40.1197 54.7633 38.4235 54.1806 36.9882C53.9933 36.5268 54.8852 36.3728 55.1659 36.238C56.9459 35.3835 58.9164 35.1222 60.848 34.8344C61.199 34.7828 61.6819 34.8417 62.0674 34.8065L62.1145 34.8018Z" fill="#D3E773"/>
<path d="M58.1024 49.8419C58.2303 49.7857 60.1388 49.9309 60.4083 49.9595C64.0657 50.3476 67.7393 49.6258 71.3572 50.4756C72.1292 50.657 72.6227 50.4607 72.532 51.4505C72.5075 51.9069 72.8025 52.5025 73.351 52.3631C75.049 51.9314 76.7955 51.7538 78.5436 51.7244C80.1479 51.6974 81.6715 52.1802 81.5781 54.0795C81.5359 54.9343 81.5231 56.0924 80.9835 56.8286C79.8362 57.7904 77.9296 57.3749 76.5924 57.1592C75.4614 56.9652 74.32 56.686 73.1699 56.6579C72.8727 56.6506 72.2207 56.8059 72.2289 57.175C72.2451 57.9339 72.4444 58.7092 72.4533 59.472C72.4556 59.6703 72.5451 59.7832 72.6405 59.953L72.6048 59.9873C72.0432 60.026 71.4851 59.781 70.9331 59.6877C70.7738 59.6607 70.5684 59.6567 70.4327 59.5936C70.0665 59.4613 70.0292 59.5437 69.7769 59.4782C68.5796 59.1675 67.3316 59.0087 66.1056 58.8454C65.9571 58.6194 65.8645 58.3446 65.7316 58.0892C65.6513 57.935 65.1366 57.162 65.2009 57.0399C65.3405 56.7752 65.6579 56.2265 65.6591 55.942C65.4757 55.9166 65.3409 56.4264 65.1885 56.5476C65.1509 56.5772 64.7478 57.2049 64.7498 57.2123C64.9188 57.8709 65.349 58.2073 65.2312 58.9438C64.5095 59.4694 63.8025 59.9034 63.0312 60.4437C62.5281 60.7963 62.6757 60.7624 61.9122 61.1641C61.1419 61.5692 59.9376 62.7598 59.0926 63.1148C57.7123 62.7586 56.287 62.4181 54.8377 62.2796C54.1154 62.2106 53.5908 62.0578 53.0401 61.5872C52.8268 60.2941 53.5942 59.0675 53.8758 57.803C53.9968 57.2597 54.1013 56.7328 54.1875 56.1812C54.2233 55.9521 54.3364 55.5557 54.2842 55.3544C54.2552 55.2691 54.2518 55.214 54.2648 55.1251C54.4829 53.6323 53.9199 52.33 53.6201 50.9129C53.5717 50.684 53.7115 50.5889 53.858 50.4107C54.4374 50.1824 54.9594 50.2165 55.5606 50.1063C56.4095 49.9507 57.2483 49.9206 58.1024 49.8419Z" fill="#D3E773"/>
<path d="M46.5173 79.4873C46.5433 79.5078 46.5915 79.5501 46.6236 79.5501C48.4617 79.5451 50.4142 80.8055 52.1704 79.8013C52.334 80.5892 52.5905 81.39 52.6785 82.1966C52.7283 82.6524 52.7842 85.7741 52.314 85.8024C52.0984 85.5435 51.1318 85.3207 50.7792 85.2346C48.9254 85.0381 47.0901 85.4726 45.2353 85.2772C44.9821 85.2505 44.653 85.1265 44.4094 85.0427C44.324 84.9381 44.0896 84.6354 44.0459 84.4381C43.7104 82.9234 43.7189 80.3962 45.2913 79.5385C45.3942 79.4823 46.2251 79.6013 46.5173 79.4873Z" fill="#D3E773"/>
<path d="M47.8061 66.373C48.7741 66.492 49.4969 66.7122 50.4319 66.9436C50.9332 67.0676 51.6947 66.9657 52.2059 67.0145C52.5373 67.0459 53.5724 66.675 53.6758 66.7242C53.7986 67.2703 53.8256 68.6502 53.5763 69.1796C53.5175 69.3044 53.5847 69.3932 53.6278 69.5126C53.5758 69.8789 53.3483 70.8293 53.1912 71.142C52.8624 71.1389 52.5485 71.087 52.2332 71.094C50.7077 71.0234 48.8479 72.0324 47.275 71.5742C46.7109 71.4099 45.9986 70.53 46.2094 69.849C46.265 69.6696 46.1372 69.4095 46.1751 69.2595C46.3383 68.613 46.4573 67.8959 46.7687 67.3056C47.0991 66.7265 47.2207 66.5459 47.8061 66.373Z" fill="#D3E773"/>
<path d="M52.6962 53.002L52.7361 53.0344C53.0057 54.4866 52.8277 56.389 52.3948 57.7959C51.4221 57.5107 49.9617 58.238 49.0065 58.4613C48.4333 58.5954 47.8491 58.6917 47.2729 58.8095C46.8524 58.6666 46.8683 58.6477 46.5429 58.3808C46.3319 58.2501 46.0665 57.6756 46.0572 57.4368C46.0428 57.0644 45.8729 56.9493 45.8201 56.7414C45.9698 56.4849 45.8556 56.4078 45.8653 56.161C45.8595 55.5162 46.2083 54.2199 46.8462 53.9283C47.593 53.587 49.0216 53.5177 49.8648 53.4225C50.8785 53.308 51.7319 53.4237 52.6962 53.002Z" fill="#D3E773"/>
<path d="M53.4004 39.5078C53.4349 39.5189 53.4279 39.5111 53.451 39.5451C53.8664 40.1551 53.3414 43.2409 53.1564 44.0211C53.0226 44.1246 52.9797 44.1807 52.8303 44.1751C51.9363 44.141 51.4041 44.4026 50.595 44.6121C49.9038 44.791 49.0961 44.9468 48.3972 45.112C48.0866 45.1699 47.7481 45.222 47.4324 45.228C47.2146 45.2321 47.0889 45.1897 46.8595 45.2303L46.8265 45.1764L46.6334 45.0244C46.0919 44.6017 46.1444 43.766 46.3743 43.1924C46.3881 43.158 46.3302 43.0455 46.3471 42.9992C46.5261 42.507 46.6673 41.9462 47.0088 41.5386C47.4673 41.2306 48.1705 41.0369 48.6948 40.9004C49.7416 40.6279 50.7426 40.3039 51.7761 40.0034C52.3651 39.8321 52.8658 39.8856 53.4004 39.5078Z" fill="#D3E773"/>
<path d="M55.6994 75.8779C56.048 75.9578 56.4208 75.8954 56.7855 75.9399C59.043 76.1423 61.2667 75.9268 63.5459 75.8868C65.9781 75.8442 68.3176 76.1438 70.7296 76.0388C71.323 76.0128 71.9676 75.8772 71.7358 76.7566C71.718 76.8241 70.7308 77.1535 70.5854 77.2027C70.3637 77.2148 70.0781 77.3144 69.8498 77.352C69.3517 77.4345 68.7335 77.6035 68.2432 77.6671C66.4327 77.9031 64.6005 77.9729 62.7847 77.762C62.6079 77.7651 62.6226 77.8151 62.4349 77.8039C60.2356 77.669 58.0515 77.4841 55.9096 76.9241C55.6504 76.8566 55.0583 76.7512 54.8462 76.6272C54.8798 76.5539 55.2121 76.0938 55.2862 75.9834C55.4089 75.9458 55.5717 75.9101 55.6994 75.8779Z" fill="#D3E773"/>
<path d="M63.3587 47.516C63.4021 47.5076 63.7951 47.5175 63.868 47.521C65.5397 47.6029 67.2916 47.8478 68.9168 48.2443C69.3994 48.362 70.5478 48.7841 70.9215 48.8288C71.0044 49.0027 71.161 49.3801 71.1114 49.5711C70.8467 49.5769 70.5486 49.507 70.2827 49.4807C69.5374 49.4068 68.8246 49.3105 68.073 49.3427C67.8161 49.3537 67.4912 49.2909 67.2219 49.2873C65.792 49.2682 64.1335 49.6135 62.735 49.3997C62.5131 49.4488 62.2054 49.4055 61.9796 49.3705C60.4068 49.1263 58.8281 49.0657 57.2387 49.1518C56.5124 49.1912 55.673 49.4445 54.9184 49.4258L54.8811 49.3814C54.9486 49.1641 55.1897 48.8268 55.4165 48.7631C58.0591 48.0207 60.6233 47.6428 63.3587 47.516Z" fill="#D3E773"/>
</g>
<defs>
<clipPath id="clip0_292_2927">
<rect width="79.38" height="79.38" fill="white" transform="translate(23.8125 23.8125)"/>
</clipPath>
</defs>
</svg>
