<svg width="127" height="127" viewBox="0 0 127 127" fill="none" xmlns="http://www.w3.org/2000/svg">
<rect width="127" height="127" rx="63.5" fill="#AFD300" fill-opacity="0.5"/>
<g clip-path="url(#clip0_292_2766)">
<path d="M61.7002 27.0436C63.8712 26.9138 66.5175 27.5231 68.3333 28.7389C70.908 30.4624 72.4121 33.3933 73.0144 36.3711C73.1946 37.2632 73.3489 38.1673 73.4594 39.0674C73.4636 39.1481 74.9903 39.1567 75.2934 39.1617C77.2688 39.1942 79.2722 39.4264 81.2325 39.6869C86.0803 40.3273 91.4769 41.4076 95.1065 44.9337C96.4072 46.197 97.3029 47.6297 97.7738 49.3956C97.8784 49.7888 97.8327 50.4385 98.0113 50.7029C97.9621 51.4797 98.0009 52.2462 97.8575 53.0255C97.8377 53.1317 97.7462 53.262 97.7323 53.3321C97.5187 54.3857 97.1033 55.3614 96.5324 56.2708C96.3638 56.5522 96.2308 56.8684 96.0409 57.1361C93.1709 61.1834 88.4976 63.5761 84.1777 65.7655C83.8149 65.9492 84.113 66.1844 84.1777 66.5666C84.3478 67.5762 84.4362 68.5075 84.142 69.502C83.6293 71.2725 82.4305 72.7646 80.8128 73.6471C80.9089 74.2366 81.1418 74.9083 81.3011 75.4928C81.6251 76.6818 81.9488 77.8845 82.2309 79.0844C82.2937 79.3526 82.2871 79.6348 82.3371 79.9057C82.3724 80.096 82.4394 80.2812 82.477 80.4727C82.6526 81.3703 82.8084 82.2811 82.9541 83.1838C83.1657 84.4918 83.3153 85.8154 83.4653 87.1312C83.5556 87.9226 83.5886 88.7113 83.6479 89.5047C83.7529 90.9162 83.8638 92.3212 83.9389 93.7355C83.9653 94.2312 83.8614 95.4117 84.0064 95.8148C84.1048 96.0888 88.8526 97.886 89.5285 98.8181C89.6173 98.9409 89.6607 99.0437 89.632 99.196C88.6061 100.118 87.6926 99.8378 86.4217 99.8231C85.1296 99.8083 83.8362 99.7339 82.5429 99.7107C79.7652 99.6835 76.9874 99.6944 74.2105 99.7428L69.684 99.8963L66.5505 100.012C65.7893 100.044 64.968 100.181 64.2471 99.9141C64.2115 99.8731 64.0208 99.6518 64.0165 99.6122C63.944 98.9344 63.8743 98.2278 63.8471 97.5461C63.8417 97.4158 63.7444 97.3271 63.734 97.238C63.6921 96.8473 63.6836 96.4481 63.6685 96.0559C63.6596 95.8303 63.5049 95.8415 63.501 95.6698C63.677 95.2892 63.4774 95.183 63.4356 94.7858C63.258 93.0983 63.0077 91.4189 62.7833 89.738C62.7697 89.6388 62.8057 89.6624 62.7445 89.5566C62.7635 89.4303 62.5687 87.8195 62.517 87.6746C62.4683 87.7219 62.4098 87.7963 62.4202 87.8691C62.4988 88.416 62.3867 88.9264 62.3385 89.4729C62.2653 90.3012 62.2294 91.1616 62.1028 91.984C62.085 92.0995 62.1035 92.0863 62.1456 92.1991C61.9395 93.2386 61.9728 94.3575 61.8212 95.4082C61.786 95.6524 61.7531 95.8958 61.7453 96.1423L61.68 98.0995C61.6698 98.4476 61.675 98.8386 61.6435 99.1789C61.5834 99.644 61.0082 99.9231 60.5966 99.9281C59.4511 99.942 58.2971 99.9107 57.1525 99.9397C54.0755 100.049 50.9977 100.134 47.9193 100.196C47.1907 100.215 46.4689 100.263 45.7407 100.274C43.2141 100.31 40.6871 100.291 38.1614 100.217C37.7011 100.207 35.8214 100.267 35.5178 100.031C35.3515 99.7262 35.4825 99.1762 35.7693 98.9774C36.976 98.1406 38.3803 97.56 39.7174 96.962C40.2744 96.7128 41.3107 96.4093 41.7976 96.0896C41.8055 96.0648 41.4729 91.7925 41.45 91.4364C41.2885 88.9323 41.1893 86.5936 41.3758 84.0795C41.4583 83.0535 41.5777 82.0307 41.7337 81.0134C41.78 80.7145 41.9676 80.2762 41.9564 80.0285C41.9385 79.6332 42.0858 79.2751 42.1702 78.8674C42.3718 77.893 42.5914 76.9194 42.8486 75.9575C42.9005 75.7633 43.2177 74.8517 43.1637 74.7455C43.1133 74.7358 42.9828 74.7048 42.9463 74.6789C41.7573 73.8309 40.5633 72.529 40.087 71.1539C39.5979 69.742 39.4853 67.9006 40.1159 66.5639C38.8582 65.8302 37.604 65.0798 36.4158 64.2365C35.7454 63.7605 35.1024 63.2365 34.4561 62.7284C31.7225 60.5777 29.3215 57.3561 28.9193 53.8238C28.4882 50.0376 30.4487 47.0515 33.3094 44.786C33.9719 44.2613 34.6699 43.7477 35.4045 43.328C37.7628 41.9808 40.3742 41.0784 43.0149 40.4776C44.1188 40.2264 45.2409 40.02 46.3583 39.8389C46.7397 39.777 49.2365 39.4766 49.375 39.3475C49.4022 39.3221 49.4408 38.874 49.45 38.8112C49.5864 37.8814 49.7616 37.0195 50.0414 36.1209C50.4629 34.7671 51.1849 33.3899 52.0663 32.2815C54.091 29.7355 56.7407 27.9204 59.9549 27.274C60.5322 27.1579 61.1159 27.1092 61.7002 27.0436Z" fill="black"/>
<path d="M61.5443 27.8611C62.0819 27.7425 63.686 28.0021 64.246 28.1634C68.6892 29.4424 70.2236 34.1112 70.7069 38.2305C70.7421 38.5306 70.8076 39.7801 70.9456 39.9107C71.2324 40.1824 72.6265 40.0795 73.0118 40.0813C73.5001 40.0854 73.9885 40.0929 74.4768 40.1038C76.0577 40.1393 77.4437 40.2594 79.0393 40.4544C84.0739 41.0697 89.9545 42.0986 93.2617 46.3603C93.7698 47.015 94.2934 47.9689 94.526 48.76C96.6068 55.8402 89.8495 60.5939 84.537 63.5371C84.0282 63.817 83.5123 64.0844 82.9906 64.3394C82.3166 64.6638 81.7411 64.8572 81.1698 65.3359C81.0384 65.6851 81.1849 66.0354 81.2814 66.3997C81.6957 67.9613 81.3241 70.2286 80.164 71.4176C79.8966 70.6328 79.5308 69.7701 79.1347 69.043C78.8409 68.5043 78.3324 68.0341 78.1529 67.3935C78.1037 67.2171 78.0444 66.9683 77.9828 66.8063C77.7006 66.0641 77.4805 65.3343 77.3778 64.5444C77.2832 63.8278 77.1189 63.0674 77.1235 62.3414L77.1243 62.2739C77.1263 61.9669 77.8049 61.1594 78.0289 60.8621C78.589 60.1176 79.1571 59.3795 79.7335 58.6478C80.5966 57.546 81.4721 56.454 82.36 55.372C82.8232 54.7976 83.2507 54.2179 83.7336 53.6564C83.6259 53.5232 83.5026 53.3833 83.3751 53.2693C82.7496 52.7111 75.8279 51.4145 74.7907 51.445C74.5652 51.5999 74.2423 51.8327 74.2218 52.1344C74.2078 52.3346 74.2679 52.5547 74.257 52.7562C74.2094 53.6249 74.2326 54.4963 74.2505 55.3656C74.2377 55.4239 74.3074 56.0584 74.3067 56.0596C74.1489 56.3091 74.3078 56.5093 74.3105 56.7885C74.3171 57.4575 74.326 58.1334 74.3993 58.7998C74.4202 58.8968 74.3508 59.0569 74.3609 59.1393C74.4078 59.5386 74.4462 59.944 74.4528 60.3468C74.4787 61.9431 74.5528 63.5457 74.8148 65.1235C74.95 65.9378 75.2411 66.7385 75.5019 67.5202C75.6039 67.7915 75.6837 68.1461 75.8453 68.3892C76.5061 69.3953 77.2724 70.3007 77.6661 71.463C78.58 74.1613 79.2924 76.9824 79.7617 79.7939C79.8269 80.1834 79.9482 80.6 80.0474 80.9802C80.0288 81.0213 79.9869 81.1093 79.9966 81.1574C80.2699 82.5081 80.4633 83.8874 80.5629 85.2621C80.5877 85.5583 80.728 85.7214 80.6807 86.0183C80.6311 86.3291 80.7776 86.8163 80.8132 87.143C80.7698 87.2512 80.7532 87.2768 80.7377 87.3934C81.0245 87.7632 80.7497 89.0236 80.9869 89.4793C80.9989 89.5022 80.9853 90.0467 80.9892 90.1239C81.0311 90.9839 81.1198 91.8385 81.1109 92.7008C81.1059 93.0431 81.245 93.4651 81.1566 93.7271C81.0632 94.0039 81.1787 94.4589 81.1818 94.7976C81.1872 95.3363 81.114 95.8049 81.1415 96.327C81.6252 96.768 82.817 97.1242 83.4685 97.449C84.2979 97.8625 85.2432 98.2668 86.0149 98.7822C85.3343 98.7067 84.3006 98.7016 83.5964 98.6892C82.0232 98.6567 80.4493 98.6586 78.8765 98.6943C76.6325 98.7272 74.4605 98.695 72.208 98.7819L68.8678 98.8869C68.25 98.9102 67.1741 98.985 66.6063 98.9365C66.4858 98.6431 66.2378 96.3983 66.1448 95.9049C65.9998 95.1387 65.849 94.1384 65.7072 93.3496C65.6595 93.0849 65.6463 92.7179 65.6037 92.4443C65.5921 92.3753 65.5056 92.2997 65.4956 92.2334C65.4153 91.6916 65.413 91.1498 65.2522 90.6215C65.2088 90.4595 65.2619 90.1991 65.2293 90.0467C65.139 89.6278 65.0592 89.2177 65.0095 88.7914C64.972 88.4654 64.8817 88.1255 64.8491 87.8004C64.5573 84.8928 64.0511 82.0151 63.66 79.1222C63.5949 78.6416 63.4841 78.1223 63.4531 77.6421C63.3496 77.163 63.4127 76.672 63.2345 76.2073C63.1298 75.934 63.1201 75.929 62.8655 75.7728C62.3949 75.7387 61.7676 75.6271 61.3705 75.9325C61.3136 75.9763 61.1698 76.1356 61.1626 76.2057C61.0379 77.4142 60.9965 78.6288 60.9391 79.8423C60.8736 81.8065 60.6346 83.7297 60.4354 85.6792C60.1489 88.4705 59.8306 91.2587 59.4807 94.0426C59.4012 94.6984 59.3181 95.389 59.2192 96.0398C59.0746 96.9924 59.0954 97.9466 59.006 98.8865C58.9155 98.9423 56.7911 98.9276 56.5122 98.9322L51.6976 99.0086C49.1569 99.0714 46.6137 99.1795 44.0719 99.1861C42.411 99.1904 40.6894 99.1299 39.0322 99.1849C39.2604 99.002 39.7848 98.7811 40.0766 98.6462C41.0633 98.1955 42.0584 97.7633 43.0616 97.3502C43.7179 97.0793 44.4218 96.9572 44.8789 96.3952C44.8892 95.7619 44.767 95.7755 44.6899 95.2933C44.5701 94.5441 44.5527 93.662 44.4615 92.8935C44.4615 92.6702 44.3557 92.3753 44.3646 92.1602C44.3982 91.3478 44.2867 90.5436 44.2269 89.734C44.1353 88.4647 44.0922 87.1927 44.0975 85.9199C44.102 84.694 44.1826 83.2786 44.3477 82.0527C44.4127 81.5705 44.4483 81.0771 44.5153 80.6124C44.9271 77.6231 45.6125 74.6775 46.563 71.813C46.831 71.0057 47.1825 69.9309 47.5634 69.1868C47.8991 68.531 48.2736 68.226 48.5721 67.4458C49.0427 66.216 49.4226 65.2157 49.5646 63.8921C49.734 62.3125 49.6587 60.7807 49.5964 59.1986C49.5706 56.8468 49.5138 54.5046 49.2443 52.168C49.2379 52.1121 49.0255 51.9002 48.9571 51.8751C48.497 51.6619 47.8247 51.728 47.3459 51.8879C46.0913 52.3067 44.8026 52.7917 43.5911 53.3253C42.9885 53.5906 41.8351 54.0116 41.5342 54.5776C41.4899 54.8766 42.6629 56.099 42.9104 56.4252C44.3401 58.3093 45.7354 60.231 46.9813 62.2455C47.2775 62.7244 46.6987 65.4234 46.4879 66.0172C46.2256 66.7652 45.7627 67.5989 45.4152 68.3209C44.8729 69.5658 44.2352 71.1212 43.8887 72.4234C42.4099 70.7502 42.2238 68.1927 42.9462 66.1594C43.1935 65.5444 41.872 65.0828 41.3966 64.7933C36.714 61.9398 31.5998 57.8888 31.9797 51.8105C31.9886 51.6672 32.2039 50.5308 32.2474 50.3982C34.2186 44.394 41.4497 41.9183 47.0506 40.8722C48.0042 40.6975 48.9614 40.5434 49.9216 40.4099C50.4015 40.3439 50.9091 40.3103 51.3807 40.2173C51.5942 40.1752 51.7584 39.9969 51.9072 39.8463C51.7374 39.3391 51.8822 38.3346 51.9615 37.7834C52.3071 35.2049 53.4165 32.7888 55.1467 30.846C56.8612 28.8849 59.0069 28.0302 61.5443 27.8611Z" fill="#D3E773"/>
<path d="M60.9423 47.881C60.6457 47.7639 59.8254 47.4539 59.6379 47.2074C59.3944 46.8871 60.3486 46.5752 60.5687 46.4615C60.8666 46.0553 60.4188 45.0587 61.0769 44.8868C61.3783 44.808 61.8505 44.8734 62.1459 44.9651C62.513 45.358 62.4867 45.7642 62.3954 46.2793C62.3757 46.3904 62.2513 46.6536 62.2598 46.7491C62.2789 46.9634 62.6788 47.0205 62.5537 47.322C62.4567 47.549 62.1452 47.7104 61.9404 47.8344C62.4163 48.243 62.3879 49.057 62.3315 49.6323C62.6451 49.7345 63.3668 49.9519 63.378 50.321C63.1932 50.7353 62.785 50.718 62.4867 50.9307C62.4516 50.9557 62.623 51.8022 62.6513 51.8908C63.0207 53.0538 61.9162 53.5132 61.228 54.1852L61.1921 54.2207C61.7015 54.5963 62.3913 54.8491 62.8246 55.2849C64.0214 56.4878 61.9174 57.9817 61.0784 58.7034C62.0193 59.3331 63.1932 59.6095 63.1525 60.9583C62.5618 61.9149 61.9247 62.1799 61.1956 62.9509C61.7534 63.3827 62.5053 63.6904 62.8486 64.3423C63.4265 65.4392 61.7292 66.191 61.4863 66.8991C61.5429 67.0794 62.0087 67.551 62.0642 67.6987C62.2274 68.132 62.3337 68.8742 62.367 69.3219C62.5222 71.4078 61.4703 72.2318 59.8696 73.2356C58.5132 74.0863 56.9121 75.0731 56.1634 76.5144C55.3793 78.0233 55.3065 79.3154 55.5079 80.9549C55.5589 81.37 55.6193 81.961 55.5003 82.3641C56.1434 82.852 56.7605 83.1935 57.2798 83.8593C57.8015 84.5283 58.1078 85.386 58.0027 86.2367L57.9712 86.7471C57.442 86.8874 57.101 86.8421 56.558 86.8223C56.4451 86.6879 56.3915 86.6704 56.3656 86.5239L56.4176 86.3952C56.3876 86.2693 56.3519 85.8449 56.3213 85.672C56.1491 84.7043 55.7896 84.2795 55.0722 83.6613C54.3815 85.3732 53.0176 87.2173 53.295 89.1156C53.4922 90.4651 54.5199 91.7139 54.5037 93.1413C54.4948 93.9258 54.2729 95.1067 53.8371 95.783C53.5851 96.1466 52.0463 96.09 52.2081 95.5032C52.3643 94.9366 52.6003 94.1924 52.665 93.5754C52.6978 91.3445 51.0876 90.5008 51.3809 88.0521C49.9259 88.8544 49.2409 89.8846 49.0572 91.5399C49.0229 91.8488 48.954 92.1038 48.9419 92.4317C48.5742 92.8743 48.3067 92.9061 47.7453 92.8902C46.898 92.858 47.1708 92.2794 47.205 91.7089C47.3027 90.0795 48.1861 88.5653 49.5263 87.6444C50.0381 87.2925 50.9179 86.8041 51.5473 86.7704C52.1463 85.4651 53.0655 84.1667 53.3646 82.7117C53.4944 82.08 53.4248 81.1386 53.3542 80.4875C53.1808 78.9523 53.5044 77.2908 54.2753 75.9529C55.1394 74.4529 56.6129 73.4871 58.0365 72.581C58.5114 72.2787 59.1446 71.9039 59.5533 71.5221C59.7499 71.3369 59.9151 71.1206 60.0425 70.8826C60.4539 70.1183 60.4488 68.72 60.0629 67.9371C59.9629 67.7344 59.3912 67.3836 59.3523 67.0925C59.2296 66.174 60.4462 65.5915 60.9244 64.8059L60.9516 64.7605C60.7468 64.5609 60.6299 64.4675 60.4096 64.302C60.0146 64.0047 59.2964 63.704 59.1729 63.2125C58.9344 62.2635 60.5643 61.5183 60.9957 60.8322C61.0238 60.7876 61.0726 60.6485 61.0462 60.6189C60.582 60.0976 59.2325 59.7288 59.061 59.0302C58.8619 58.2191 59.9424 57.5484 60.4373 57.0509C60.8114 56.675 60.875 56.6448 61.1462 56.1819C60.5803 55.3454 59.5514 55.3684 59.2518 54.361C59.0236 53.5937 60.9847 52.6431 60.839 52.2123C60.6758 51.7298 60.7963 51.256 60.7462 50.8472C60.4997 50.4967 59.5521 50.7971 59.4338 50.2431C59.2946 49.5911 60.5953 49.6605 60.6339 49.4879C60.7557 48.9424 60.4903 48.4116 60.9423 47.881Z" fill="black"/>
<path d="M56.4175 86.3958C56.5447 86.7222 57.0895 86.7295 57.3699 86.6497C57.7047 86.554 57.8064 86.5156 58.0027 86.2373L57.9711 86.7477C57.4419 86.888 57.1009 86.8427 56.5579 86.8229C56.445 86.6884 56.3914 86.671 56.3655 86.5245L56.4175 86.3958Z" fill="#19191A"/>
<path d="M59.8101 50.0706C59.8644 50.0333 59.9349 50.0287 59.9935 50.0588C60.0522 50.089 60.0896 50.1488 60.0909 50.2148C60.0922 50.2807 60.0572 50.342 59.9997 50.3744C59.9162 50.4215 59.8104 50.3946 59.7596 50.3132C59.7089 50.2319 59.7311 50.125 59.8101 50.0706Z" fill="#281203"/>
<path d="M76.5317 53.1689C77.9669 53.4634 79.5525 53.8957 80.9605 54.1449C80.2703 54.7298 79.2479 56.0384 78.5642 56.7574C78.2983 57.0407 77.1294 58.5456 76.9298 58.5856L76.8922 58.5271C76.9829 58.246 76.9228 57.9668 76.8806 57.6776C76.6724 56.245 76.7871 54.6355 76.541 53.2197L76.5317 53.1689Z" fill="#D3E773"/>
<path d="M46.9987 53.6934L47.0508 53.7191C47.052 55.2029 47.1203 56.7005 47.0833 58.1887C47.0821 58.2403 47.0953 58.3668 47.0971 58.427L47.0438 58.4361C46.6814 58.1013 46.432 57.6128 46.051 57.2631C45.8766 56.9177 44.4086 55.2019 44.0088 54.9396C44.5267 54.7781 45.0047 54.5301 45.5008 54.3151C45.9959 54.1005 46.4988 53.8969 46.9987 53.6934Z" fill="#D3E773"/>
</g>
<defs>
<clipPath id="clip0_292_2766">
<rect width="79.375" height="79.375" fill="white" transform="translate(23.8125 23.8125)"/>
</clipPath>
</defs>
</svg>
