<svg width="127" height="127" viewBox="0 0 127 127" fill="none" xmlns="http://www.w3.org/2000/svg">
<rect width="127" height="127" rx="63.5" fill="#AFD300" fill-opacity="0.5"/>
<g clip-path="url(#clip0_292_2988)">
<path d="M55.4074 31.9727C55.7415 31.9863 56.0747 31.9892 56.409 32C57.904 32.0577 59.3972 32.1552 60.887 32.2922C62.8063 32.4584 64.6272 32.6513 66.5261 32.9913C67.4637 33.1592 68.492 33.1463 69.4423 33.3498C70.0869 33.4109 70.973 33.7498 71.5586 33.8966C74.8706 34.7274 75.54 36.1301 74.9249 39.3933C74.8811 39.6258 75.0137 40.5055 75.2606 40.6948C75.5063 40.8833 75.7482 40.9958 76.0559 41.0657C78.9172 41.7967 81.7416 39.5846 84.5877 39.6034C86.6121 39.6167 89.2466 40.7965 89.166 43.1521C89.154 43.4988 89.1823 44.147 88.9486 44.3729C89.0017 44.4471 88.9707 44.4111 89.042 44.4801C89.0141 44.6471 89.0001 44.6175 88.878 44.7701L88.9765 44.88C88.9587 45.1347 88.8606 45.2326 88.8176 45.4322C88.7916 45.553 88.8556 45.9667 88.7959 46.1202C88.7676 46.1927 88.7397 46.1831 88.647 46.2359C88.9106 46.4632 88.6296 46.6195 88.5866 46.8739C88.6563 46.8506 88.6203 46.8562 88.6947 46.8571C88.6339 47.7325 88.5629 47.9766 88.7373 48.819C88.878 49.4995 88.8145 51.0468 88.5327 51.6921C88.2308 52.3836 87.3928 53.3024 86.7149 53.6454C86.2307 53.908 85.499 54.1252 84.9346 54.133C83.1486 54.1053 81.0586 53.2035 79.4869 52.4063C79.1218 52.2209 78.5885 51.7453 78.2303 51.6149C77.842 51.4733 77.5947 51.3019 77.2331 51.1376C76.0517 50.6011 75.4877 50.5516 74.2621 50.6089C74.1435 51.2506 74.0962 52.188 74.1598 52.8401C74.185 53.1016 74.2881 53.0229 74.142 53.3227C74.4517 53.5389 74.2362 53.7662 74.316 54.0884C74.5633 55.1077 74.7346 56.0984 74.8726 57.1234C75.0955 58.7788 74.5807 59.635 73.1854 60.6579L73.1269 60.7015C73.0962 60.7771 73.0668 60.8531 73.0389 60.9296C72.9799 61.0918 72.8889 62.0545 72.904 62.2296C72.9993 63.3196 74.2288 63.5207 74.9288 64.1262C75.2373 64.3924 75.5652 64.9006 75.7951 65.2611C76.0416 65.9293 76.271 66.8335 76.3253 67.5545C76.3761 67.8111 76.2862 68.1564 76.3218 68.4018C76.4234 68.9459 76.4145 69.9382 76.6579 70.4068C76.9207 70.9118 78.366 70.518 78.735 70.4239C79.68 70.1832 80.3699 69.7738 81.1982 69.3386C82.7265 68.5355 84.3528 67.8052 86.1176 67.9087C87.8327 67.9266 89.8711 68.5072 90.768 70.1018C91.0889 70.6719 91.4269 71.551 91.2711 72.2103L91.3904 72.3386C91.4215 72.4758 91.3362 72.7742 91.306 72.9394C91.3238 72.9634 91.4021 73.075 91.3994 73.0928C91.3354 73.5041 91.2145 74.025 91.2094 74.4324C91.2811 74.5549 91.3129 74.5851 91.3075 74.7277C91.0385 75.0642 91.3835 75.2863 91.2125 75.6712C91.1664 75.7754 91.159 75.7967 91.137 75.9049C91.4505 76.1556 91.0982 76.6797 91.3641 77.0336C91.5222 78.5491 92.654 80.0409 92.3928 81.6491C92.3346 82.0068 91.9331 82.8936 91.6075 83.0584C91.4804 83.5456 90.6094 83.9743 90.1649 84.2301C89.4571 84.6374 88.3559 84.6929 87.5633 84.5921C87.3195 84.5607 87.0133 84.6014 86.7893 84.544C86.5362 84.3983 85.8323 84.4289 85.4637 84.3088C84.3897 83.9584 83.404 83.5712 82.3893 83.0692C81.2877 82.5239 80.2323 81.7312 78.9947 81.5107C78.6338 81.4464 77.552 81.4413 77.2889 81.7006C77.0385 81.9475 77.1893 82.8278 77.2416 83.1444C77.5059 84.7425 78.4873 87.3917 78.311 88.9394C78.2404 89.5599 77.4036 90.2119 76.9362 90.5584C76.2117 91.0948 75.3637 91.5712 74.5133 91.8681C72.8268 92.4561 71.0807 92.7634 69.3276 93.0774C68.9993 93.1363 68.666 93.1658 68.3389 93.2297C65.8633 93.7123 63.3985 94.1913 60.9042 94.5778C59.9063 94.7324 58.9137 94.9274 57.9047 94.996C55.5318 95.158 52.6592 95.0902 50.3141 94.7196C49.8363 94.6444 49.3648 94.5068 48.8942 94.3956C47.0249 93.953 45.734 93.4809 44.5619 91.8658C44.223 91.3987 43.994 90.903 43.8957 90.332C43.6437 88.8665 43.8808 87.2545 44.0042 85.7828C44.1432 84.1243 44.2905 82.4619 44.3081 80.7964C44.3274 79.2305 44.1443 77.6688 43.7633 76.1502C43.6338 75.613 43.384 74.9444 43.2173 74.4022C42.8814 73.382 42.5994 72.3115 42.2309 71.3052C41.1705 68.4087 40.6254 66.044 43.5093 64.0033C43.2355 63.3828 43.353 62.6118 43.5338 61.9716C43.6146 61.6854 43.747 61.445 43.8159 61.1333C43.7366 61.0321 43.226 60.864 43.0638 60.7788C42.4146 60.4374 41.8281 60.0677 41.4204 59.4499C41.0594 58.8998 40.8493 58.2645 40.8112 57.6076C40.7167 55.8628 41.7521 52.5258 42.2206 50.7757C42.2884 50.5771 42.2742 50.2748 42.3276 50.0867C42.7295 48.6727 42.8486 47.2373 42.9305 45.7773C42.9405 45.5979 42.7813 45.5018 42.8581 45.2843C42.9645 44.9831 42.877 44.6615 42.8772 44.3525C42.8764 43.0697 42.6104 41.9078 42.4388 40.6513C42.511 40.5491 42.4981 40.5935 42.5145 40.4781C42.3262 40.2215 42.3335 39.671 42.3152 39.3366C42.2966 38.9965 42.2377 39.0665 42.1869 38.8135C42.2448 38.7017 42.2527 38.7031 42.2659 38.5807C42.2295 38.5033 42.1916 38.4207 42.1752 38.3364C42.1457 38.1843 42.1733 37.9789 42.173 37.8228C42.1707 36.7765 42.3467 35.4151 42.9799 34.5453C44.4433 32.5349 51.0371 32.2042 53.4586 32.0547C54.0779 32.0164 54.7686 32.0822 55.375 31.9787C55.3858 31.9768 55.3965 31.9747 55.4074 31.9727Z" fill="black"/>
<path d="M72.4875 64.414C72.9743 64.3531 73.6821 65.2911 73.8251 65.707C73.8437 65.7616 73.9697 66.0337 73.9631 66.0605C73.8995 66.3275 73.9177 66.4376 74.0429 66.6775C74.2375 67.0388 74.0972 67.426 74.1336 67.8078C74.1483 67.9612 74.2631 68.3167 74.3022 68.5171L74.1813 68.6566C74.1425 68.843 74.2801 68.7733 74.2894 69.0124C74.3278 70.0054 74.3162 71.1244 75.3526 71.6066C77.1677 72.4795 79.284 71.7438 80.9782 70.9291C83.1379 69.8899 85.3174 68.0632 87.8232 69.3264C88.2015 69.5167 88.617 69.8489 88.8468 70.1861C89.4604 71.0857 89.3891 72.2105 89.241 73.2399C89.1767 73.6892 89.2092 74.2729 89.1317 74.7337C89.0759 75.0682 89.1992 75.3973 89.0995 75.7031C88.9914 76.2345 89.2433 76.8423 89.1961 77.3907C89.1658 77.738 89.4895 78.4869 89.6236 78.8481C89.8216 79.3969 90.0154 79.9469 90.2054 80.4989C90.0658 80.7787 90.165 80.7384 90.3026 80.9981C90.1387 81.2175 90.1995 81.2403 90.2755 81.4969C90.1802 81.9442 89.7926 82.5586 89.4154 82.8252C88.0212 83.8109 86.4321 82.9838 85.0926 82.7706L85.0387 82.7624C84.9108 82.5872 84.8177 82.5737 84.5747 82.5159C84.0154 82.3838 83.6639 82.0353 83.146 81.8481C83.0596 81.8167 83.0732 81.8485 82.9712 81.7787C81.8836 81.0345 80.0022 80.5419 78.6968 80.5768C77.3724 80.6121 76.2592 81.033 75.3406 81.9989C75.3119 82.2388 75.3817 82.0109 75.4255 82.2279C74.8937 82.4376 75.1759 83.2997 75.1755 83.7609C75.1755 83.9144 75.2208 84.2562 75.3398 84.3516C75.4336 84.4272 75.3278 84.6993 75.3573 84.8214C75.4007 84.9698 75.5317 85.0822 75.5836 85.2466L75.5146 85.3435C75.5154 85.4718 75.5875 85.5144 75.6848 85.6349C75.6542 85.7167 75.6487 85.7202 75.5956 85.7876C75.6848 86.1427 75.6844 86.509 75.908 86.7345C75.9732 86.8004 75.9259 87.0997 75.9476 87.2803C76.0111 87.3167 76.0491 87.3396 76.108 87.3822C76.0569 87.4946 76.0294 87.5307 76.0379 87.6547C76.1433 87.6915 76.1441 87.688 76.2325 87.7532C76.0991 87.838 76.1406 87.7826 76.0801 87.9059C76.1096 88.1028 76.1949 88.1031 76.2561 88.2683C76.1894 88.3547 76.1743 88.3617 76.1414 88.4632C76.2173 88.676 76.3294 89.1338 76.1546 89.3256C74.7701 90.845 72.7596 91.2047 70.8456 91.5799C69.4336 91.8566 68.0456 92.0911 66.6243 92.3144C66.1658 92.3865 65.6774 92.4322 65.229 92.5342L65.1778 92.5458C65.1712 92.5485 65.1642 92.5512 65.1576 92.5539C61.6748 93.109 58.2226 93.5435 54.6886 93.4113C54.4433 93.3834 54.082 93.4598 53.8474 93.4303C52.9999 93.3241 52.1445 93.2935 51.3104 93.1113C51.274 93.1256 51.2376 93.1396 51.2013 93.1539C49.8301 92.9121 48.4024 92.5834 47.2098 91.8144C46.8435 91.5784 46.6059 91.2276 46.3219 91.0962C46.0627 90.6128 45.652 89.6675 45.6567 89.0644C45.753 88.8504 45.6963 88.8097 45.6591 88.5752C45.5738 88.038 45.7298 87.3132 45.7521 86.7749C45.777 86.1737 45.7161 85.6539 45.8247 85.0911C45.9109 84.6442 45.7928 84.3117 45.7927 83.8686C45.797 83.6752 45.9195 83.3152 45.9281 83.0954C45.9689 82.0535 45.9954 81.0698 45.9128 80.0245C45.9106 79.7252 45.9738 79.4237 45.9482 79.1221C45.8205 77.6179 45.5083 76.1349 45.2046 74.6585C45.1294 74.293 44.9826 74.2465 45.0482 73.888C45.0566 73.8419 44.7619 72.9523 44.7558 72.7861C44.7545 72.6961 44.4415 72.2644 44.4714 72.1175C44.4604 71.7392 44.2202 71.3837 44.103 71.0054C43.7165 69.7585 42.9644 68.4675 42.9118 67.162C42.8721 66.1768 43.2454 65.5845 43.8523 64.8919C44.5965 65.4814 45.417 65.726 46.3192 65.9737C49.1254 66.7442 51.7566 66.781 54.6266 66.674C57.3915 66.5969 60.1453 66.2907 62.86 65.7593C64.6045 65.4295 66.3817 64.8771 68.1553 64.7283C68.2503 64.7205 68.3309 64.8457 68.3751 64.9136C68.6662 64.8345 68.6925 64.9651 68.9495 65.0864C69.0406 65.0802 69.1166 65.0748 69.1774 65.0705C69.2348 65.1361 69.2731 65.1756 69.3359 65.2361C69.4635 65.2655 69.5038 65.2357 69.6262 65.1872L69.6689 65.1698C69.7073 65.1938 69.7704 65.2291 69.7809 65.2516C69.8363 65.3911 70.3007 65.1264 70.3266 65.1485C70.546 65.3376 70.7414 65.0143 70.9867 65.0097L70.929 65.114L70.9522 65.143L71.0135 65.1314C71.1677 64.9016 71.2231 64.9899 71.4654 64.914C71.8069 64.8074 71.9728 64.8392 72.1704 64.5248C72.3383 64.507 72.3627 64.5151 72.4875 64.414Z" fill="#D3E773"/>
<path d="M70.3529 67.4561C70.5722 67.4549 70.6428 67.5138 70.8385 67.6138C71.1025 68.3983 71.6098 70.4371 71.4719 71.3227C71.4498 71.4662 71.0835 71.7072 70.9265 71.7778L70.8579 71.7487C70.4009 71.832 70.2478 71.5317 70.0157 71.1995C70.0188 70.9014 69.9548 70.6072 69.9176 70.3158C69.8346 69.6724 69.7707 68.3235 69.9125 67.6979C70.075 67.5479 70.1436 67.515 70.3529 67.4561Z" fill="black"/>
<path d="M66.903 66.73L67.0119 66.7266C67.2069 66.8746 67.2146 66.7913 67.4297 66.8812C67.4696 66.9273 67.5495 67.0149 67.52 67.0851C67.1786 67.8932 65.8313 70.2816 64.9072 70.2653C64.8429 70.2824 64.81 70.2839 64.7429 70.2463C63.9832 69.8208 64.4557 69.2068 64.872 68.7157C65.3968 68.0975 65.9832 67.4363 66.5634 66.8611C66.6274 66.7975 66.8127 66.7533 66.903 66.73Z" fill="black"/>
<path d="M43.9752 35.4912C44.9145 35.8385 45.7619 36.305 46.7954 36.5971C47.9186 36.9146 48.8231 37.0383 49.9433 37.2313C53.9063 37.948 57.9377 38.2138 61.9605 38.0234C63.5703 37.9551 65.1722 37.6975 66.7657 37.5513C68.5831 37.3845 70.2517 37.0983 72.0219 36.6525C72.2432 36.5968 73.0998 36.32 73.2444 36.3823C73.3304 36.5275 73.3661 36.6969 73.3463 36.8644C73.2277 37.7985 73.0463 38.7974 73.025 39.7266C72.9889 41.3023 73.5196 41.681 74.8851 42.1272C77.5292 42.9911 79.9839 41.7566 82.461 40.9556C83.98 40.4049 85.62 40.2401 86.8254 41.5379C87.8986 42.6935 86.9463 44.5208 86.9014 45.904C86.8417 45.9648 86.8401 45.9678 86.7963 46.0413C86.7843 46.3053 86.7944 46.572 86.7816 46.8236C86.7672 47.1042 86.568 47.3741 86.6909 47.6595C86.7483 47.7919 86.6719 48.118 86.6793 48.2846C86.6386 48.3981 86.7723 48.6935 86.7653 48.7607C86.713 49.2626 86.7645 49.6195 86.8393 50.094C86.6715 50.3123 86.7545 50.5397 86.7196 50.7956C86.6986 50.9514 86.6219 51.1094 86.5537 51.2504C86.2378 51.9055 85.8002 52.4432 85.0882 52.6853C83.9044 53.0878 82.4928 52.3917 81.4285 51.8986C81.0401 51.7188 80.6242 51.5437 80.251 51.336C79.8548 51.1159 79.4967 50.8248 79.0874 50.6271C78.6986 50.4392 77.0261 49.7866 76.6843 49.9104C76.6645 49.9176 76.6451 49.9254 76.6258 49.9329C76.6374 49.8735 76.6327 49.9063 76.637 49.8344C76.5215 49.7814 76.5029 49.7882 76.3785 49.7933L76.3428 49.7952C76.268 49.7697 76.2176 49.7546 76.1339 49.7456C74.7932 49.6005 73.1746 49.6679 72.3781 50.9412C72.1668 51.2791 72.1017 51.9955 72.0513 52.4177C72.2509 52.6941 72.0583 53.1845 72.1009 53.5104C72.106 53.5485 72.2277 53.86 72.2599 53.984C72.213 54.077 72.2033 54.101 72.1723 54.2002C72.2044 54.2907 72.2366 54.3228 72.2998 54.3953C72.2959 54.6226 72.2653 55.1621 72.3975 55.319C72.456 55.3887 72.4606 55.3958 72.4947 55.4983C72.4413 55.6003 72.4316 55.5995 72.4261 55.7118C72.5009 55.8021 72.5684 55.8747 72.6482 55.9595C72.5823 56.0124 72.5827 56.013 72.5261 56.0727C72.5699 56.374 72.7056 56.6826 72.7746 57.0069L72.6882 57.1182C72.7141 57.2677 72.7699 57.2801 72.8544 57.395C72.9122 57.478 72.7257 57.525 72.7475 57.6099C72.9517 58.422 72.6533 59.3585 71.88 59.7842C71.7649 59.8475 71.7164 59.8851 71.6254 59.9692C71.5568 59.9631 71.4905 59.9534 71.423 59.9392L71.3471 60.0291C71.085 59.8189 71.018 59.977 70.7668 59.9454C69.4835 59.7844 68.6866 60.2083 67.5711 60.7597C67.5521 60.7885 67.4319 60.9617 67.4075 60.9673C65.4606 61.4107 63.4812 61.5601 61.4938 61.7093C59.0236 61.8948 56.5133 62.2082 54.0333 62.1303C52.4621 62.0554 51.1031 61.8223 49.5333 61.5691C47.5071 61.2421 45.317 60.7296 43.5356 59.6592C43.1112 59.3583 42.7332 58.705 42.6431 58.2065C42.5147 57.4969 42.6638 56.9939 42.8088 56.3539C43.4624 53.4704 44.3083 50.6467 44.7105 47.7076C44.685 47.6625 44.6595 47.6173 44.634 47.5722C44.9818 46.4144 44.7734 45.1613 44.8062 43.969C44.8064 43.96 44.6269 43.767 44.7526 43.572C44.8956 43.3501 44.5935 42.8487 44.6172 42.7077C44.7232 42.0763 44.4644 41.4583 44.4013 40.8297C44.2108 39.2065 43.6816 37.097 43.9752 35.4912Z" fill="#D3E773"/>
<path d="M68.2629 53.4023C69.0331 53.4646 69.2428 54.6316 69.4021 55.272C69.5792 55.9854 70.1067 57.3783 68.9482 57.3792L68.8982 57.3273C68.5858 57.2073 68.5556 57.1397 68.4556 56.8134C68.1777 55.9049 67.8451 54.9829 67.6602 54.0511C67.5839 53.6663 67.9951 53.5449 68.2032 53.4347L68.2629 53.4023Z" fill="black"/>
<path d="M63.0719 56.6502C63.7587 56.6088 64.7828 57.3194 65.3103 57.7213C65.6025 57.9438 65.882 58.2178 66.2072 58.3933C66.5258 58.9171 66.0789 59.1977 65.6172 59.3138C65.4436 59.3027 64.3952 58.6942 64.1734 58.5567C63.7634 58.3023 62.4792 57.6861 62.5106 57.1692C62.7665 56.9999 62.5586 57.0956 62.6335 56.8796C62.6738 56.764 62.93 56.7497 63.0719 56.6502Z" fill="black"/>
<path d="M54.8261 32.7432C55.1842 32.6669 56.5536 32.733 56.9483 32.7455C58.8862 32.8109 60.8212 32.9436 62.7498 33.1432C63.5874 33.2327 64.4316 33.3356 65.2579 33.4924C67.3525 33.8899 69.4831 34.0652 71.4971 34.8165C71.7723 34.9192 72.8537 35.2852 72.892 35.579C72.6188 35.7985 71.0591 35.9602 70.6564 36.0438C68.499 36.492 66.3184 36.774 64.1192 36.9153C63.6556 36.9451 62.8637 37.0657 62.4166 37.0314C59.9342 37.2268 57.3513 37.0148 54.8731 36.8436C53.2962 36.7346 51.9894 36.5799 50.4265 36.3024C48.7381 36.0026 47.109 35.8739 45.499 35.1721C45.1654 35.0267 44.8443 34.8674 44.5078 34.7298C46.5739 33.1755 50.9728 33.0524 53.4908 32.7844C53.9138 32.7394 54.3805 32.7941 54.8261 32.7432Z" fill="#D3E773"/>
<path d="M45.0028 61.4316C47.2257 62.1315 52.336 63.1785 54.5568 63.0804C55.857 63.0227 65.4947 62.388 66.0645 62.0931C66.2129 62.0844 66.3408 62.0742 66.4889 62.0568L66.5001 62.0867L66.2408 62.2887C66.2866 62.3678 66.2637 62.3436 66.3377 62.3974L66.3199 62.4396L66.4245 62.4728L66.4408 62.5294L66.3959 62.5693C66.297 62.6583 66.2187 62.7056 66.1908 62.8323L66.2389 62.937C66.3009 62.9544 66.3629 62.9727 66.4245 62.9913C66.3536 63.0432 66.3404 63.0637 66.2575 63.0905L66.2253 63.1595C66.3149 63.2009 66.3796 63.1595 66.5032 63.13C66.4544 63.2874 65.9726 63.4459 65.8152 63.4823C66.1253 63.549 66.3804 63.306 66.6315 63.442L66.6327 63.4885C66.4672 63.518 66.4904 63.4866 66.4025 63.5858C66.499 63.625 66.5211 63.6219 66.6261 63.6347L66.6315 63.6866C66.4513 63.7909 66.4838 63.6521 66.3315 63.7727C66.3846 63.8711 66.3517 63.8261 66.4645 63.8893L66.4462 63.9475C66.3071 64.0037 66.3075 63.9967 66.1641 63.9893L66.0963 63.9199C66.0773 63.9668 66.0726 64.0083 66.0307 64.0215C65.3497 64.2366 64.4071 64.3932 63.7199 64.551C62.3393 64.8684 61.0288 65.0273 59.6312 65.1835C58.5424 65.3052 57.5301 65.4467 56.4323 65.5083C52.945 65.7044 49.5596 65.4397 46.163 64.6025C45.7048 64.4893 45.1224 64.2308 44.9264 63.7916C44.609 63.0804 44.779 62.1223 45.0028 61.4316Z" fill="#D3E773"/>
<path d="M66.0646 62.0939C66.213 62.0852 66.3409 62.075 66.489 62.0576L66.5002 62.0875L66.2409 62.2896C66.2867 62.3686 66.2638 62.3444 66.3378 62.3982L66.32 62.4404L66.4246 62.4737L66.4409 62.5303L66.396 62.5701C66.2971 62.6591 66.2188 62.7064 66.1909 62.8332L66.239 62.9378C66.301 62.9553 66.363 62.9735 66.4246 62.9921C66.3537 63.044 66.3405 63.0646 66.2576 63.0913L66.2254 63.1603C66.315 63.2018 66.3797 63.1603 66.5033 63.1308C66.4545 63.2882 65.9727 63.4467 65.8153 63.4832C66.1254 63.5498 66.3805 63.3068 66.6316 63.4429L66.6328 63.4894C66.4673 63.5188 66.4905 63.4874 66.4026 63.5867C66.4991 63.6258 66.5212 63.6227 66.6262 63.6355L66.6316 63.6874C66.4514 63.7917 66.484 63.6529 66.3316 63.7735C66.3847 63.8719 66.3518 63.827 66.4646 63.8901L66.4464 63.9483C66.3072 64.0045 66.3076 63.9975 66.1642 63.9901L66.0964 63.9208C66.0537 63.8929 65.9983 63.8649 65.9526 63.8405C65.6995 63.8812 65.332 63.8568 65.177 63.6211C65.2022 63.4777 65.2134 63.5072 65.3363 63.3797L65.3339 63.3339C64.9681 63.2994 64.8983 63.2696 64.8103 62.9149L64.7634 62.9208L64.7161 62.975C64.6208 62.9231 64.6518 62.9618 64.6045 62.8731C64.7084 62.8591 64.7297 62.8607 64.8339 62.8591C64.9355 62.7293 64.9746 62.7273 64.982 62.5948L64.8626 62.5087L64.8983 62.4536C65.0886 62.3937 65.5491 62.3139 65.6828 62.4942C65.6068 62.5789 65.5944 62.5781 65.5622 62.6839C65.6665 62.727 65.713 62.6739 65.8142 62.6374C66.1405 62.5199 66.2312 62.367 66.0646 62.0939Z" fill="#D3E773"/>
<path d="M66.0645 62.0939C66.2129 62.0852 66.3408 62.075 66.4889 62.0576L66.5001 62.0875L66.2408 62.2896C66.2866 62.3686 66.2637 62.3444 66.3377 62.3982L66.3199 62.4404L66.4246 62.4737L66.4408 62.5303L66.3959 62.5701C66.297 62.6591 66.2187 62.7064 66.1908 62.8332L66.2389 62.9378C66.3009 62.9553 66.3629 62.9735 66.4246 62.9921C66.3536 63.044 66.3404 63.0646 66.2575 63.0913L66.2253 63.1603C66.3149 63.2018 66.3796 63.1603 66.5032 63.1308C66.4544 63.2882 65.9726 63.4467 65.8152 63.4832C65.8071 63.4595 65.8121 63.4793 65.8048 63.3983C65.8676 63.3816 65.9288 63.375 65.9935 63.3704L65.98 63.3142L65.9172 63.2762C65.8156 63.306 65.7916 63.3107 65.6866 63.3235C65.5784 63.2529 65.5997 63.2285 65.5416 63.0777C65.4804 63.0622 65.485 63.056 65.4292 63.0192C65.4339 62.8874 65.435 62.7506 65.4432 62.62L65.4804 62.5991L65.5621 62.6839C65.6664 62.727 65.7129 62.6739 65.8141 62.6374C66.1404 62.5199 66.2311 62.367 66.0645 62.0939Z" fill="#2E2927"/>
<path d="M65.5417 63.077C65.6402 63.1418 65.8228 63.2011 65.927 63.1398L65.9553 62.9534L66.0208 62.9111L66.0666 63.0321L66.1274 63.0511C66.2499 62.9844 66.2875 62.9937 66.4247 62.9914C66.3538 63.0433 66.3406 63.0638 66.2576 63.0906L66.2255 63.1596C66.315 63.2011 66.3797 63.1596 66.5034 63.1301C66.4545 63.2875 65.9728 63.446 65.8154 63.4825C65.8073 63.4588 65.8123 63.4786 65.8049 63.3976C65.8677 63.3809 65.929 63.3743 65.9937 63.3697L65.9801 63.3135L65.9173 63.2755C65.8158 63.3053 65.7917 63.31 65.6867 63.3228C65.5786 63.2522 65.5999 63.2278 65.5417 63.077Z" fill="#858382"/>
<path d="M77.0573 62.0792C77.5162 61.9523 82.5236 62.5082 80.8871 63.8085C80.3693 64.0624 79.065 63.5442 78.4987 63.3849C78.1112 63.276 76.8798 62.9248 76.6611 62.6729C76.6166 62.5005 76.6604 62.3354 76.7391 62.1805C76.8375 62.0897 76.922 62.0961 77.0573 62.0792Z" fill="black"/>
<path d="M77.1641 62.251L77.2331 62.2768C77.4153 62.4738 77.347 62.584 77.1939 62.748C77.056 62.7003 77.0118 62.6844 76.9622 62.5541C76.9955 62.4057 77.0591 62.3616 77.1641 62.251Z" fill="#2E2927"/>
<path d="M79.6006 57.1142C80.0231 56.9469 80.6037 57.6232 80.3557 57.8771C79.7363 58.5112 78.0847 59.2704 77.2347 59.5513C76.9537 59.6081 76.7049 59.684 76.5266 59.3051C76.5057 59.261 76.5351 59.1029 76.565 59.0678C77.177 58.3496 78.7026 57.3754 79.6006 57.1142Z" fill="black"/>
</g>
<defs>
<clipPath id="clip0_292_2988">
<rect width="79.38" height="79.38" fill="white" transform="translate(23.8125 23.8125)"/>
</clipPath>
</defs>
</svg>
