<svg width="127" height="127" viewBox="0 0 127 127" fill="none" xmlns="http://www.w3.org/2000/svg">
<rect width="127" height="127" rx="63.5" fill="#AFD300" fill-opacity="0.5"/>
<g clip-path="url(#clip0_292_2848)">
<path d="M55.6599 35.2649C55.332 34.5553 55.4386 34.1628 55.6991 33.4501C56.111 32.3232 57.4312 29.0127 58.5001 28.5054C58.8072 28.3596 59.1923 28.3286 59.5133 28.4455C59.5931 28.4745 59.671 28.5062 59.7445 28.5486C59.9698 28.6789 61.3675 28.465 61.7338 28.461C62.3381 28.4545 62.9544 28.4772 63.5535 28.5575C64.6 28.6977 68.4649 29.462 68.7629 30.5245C68.8366 30.7871 68.6761 31.2541 68.5846 31.5074L68.6141 31.5618C69.5547 31.7246 71.4434 30.8338 72.2174 31.7867C72.6766 32.352 71.8127 34.3466 71.1965 34.6698C70.0365 35.2782 68.7625 34.5922 67.5843 34.4685C67.4223 34.4538 67.0231 35.7354 66.546 35.7213C65.2693 35.8508 63.976 35.6116 62.692 35.6134C61.3498 35.6153 60.0146 35.7045 58.6726 35.7163C58.1906 35.7205 57.7565 35.6588 57.2843 35.6467C57.2343 35.6454 57.1263 36.2135 57.1285 36.3074C57.3133 36.3392 57.8022 36.2461 58.0588 36.2991C58.1799 36.3241 58.6896 36.1788 58.8633 36.2243C60.4879 36.1613 64.9767 35.978 66.4069 36.5337C66.7859 36.9964 66.7157 37.2291 66.7126 37.8153C66.7115 37.9729 66.7324 37.9785 66.8778 37.9879C67.1987 38.0086 67.52 37.9717 67.8397 37.953C68.9424 37.9309 69.3199 37.976 70.2911 38.3955C70.5822 38.7849 70.7 38.8581 70.6434 39.3312C70.8089 39.7049 70.5876 40.3538 70.4791 40.7504C70.4089 41.0057 70.1051 41.3048 69.8621 41.3987C68.9238 41.7448 67.799 41.3348 66.9111 41.0101C66.8099 40.9732 66.4968 40.8796 66.4801 40.9964C66.4177 41.4379 66.351 42.5854 65.7053 42.7165C64.1396 43.0344 61.9918 43.0951 60.3799 43.2203C59.0168 43.3262 57.8302 43.4416 56.4878 43.4666C56.3984 43.4682 56.3036 43.4523 56.2824 43.5249C56.2291 43.7072 56.3285 44.056 56.371 44.2474C58.4782 43.902 60.5271 43.6916 62.647 43.4985C63.5993 43.4118 64.5899 43.2452 65.543 43.1779C65.7782 43.1612 66.1972 43.1716 66.4014 43.3264C66.782 43.6148 66.7975 44.0847 67.0429 44.4169C67.0657 44.4477 67.4518 44.465 67.5669 44.4433C68.4296 44.2805 69.5652 44.1081 70.3678 44.571C70.7453 44.7888 70.9384 45.9613 71.067 46.3837C71.1186 46.5519 71.2442 46.7587 71.2608 46.9336C71.2759 47.0965 71.2201 47.258 71.1081 47.3772C70.4206 48.1197 68.3862 47.6355 67.5207 47.4497C67.6463 47.8311 67.7467 48.1518 67.8106 48.5485C67.6172 48.9798 67.5017 49.1756 67.0208 49.3404C66.1111 49.6521 65.1503 49.8331 64.2128 50.0221C62.1826 50.4313 59.9727 50.8484 57.9053 50.9028C58.0647 51.1656 58.1386 51.3324 58.2251 51.6324C59.9554 51.1757 61.8296 51.1308 63.59 50.7182C64.9558 50.3982 66.2941 50.0103 67.6374 49.6147C68.3048 49.4182 68.7149 49.9953 69.0474 50.4875C69.6873 50.228 70.3442 50.0811 71.0201 49.9464C71.4372 49.8632 71.8255 49.9779 72.2321 50.0212C72.3352 50.0964 72.5852 50.2702 72.6503 50.3679C75.6071 54.809 70.5175 52.9287 70.1473 53.244L70.2876 53.4631C70.3919 53.6257 70.3516 53.6382 70.4171 53.7931C70.5593 54.1304 70.812 54.4622 70.7302 54.8523C70.6783 55.098 70.3818 55.3396 70.1593 55.4445C68.0703 56.4316 65.6178 56.9108 63.3632 57.3699C62.5869 57.5279 61.7777 57.7017 61.0211 57.7278L61.241 58.2076C61.4794 58.1333 61.5459 58.1114 61.8044 58.0901C61.9074 58.0389 62.1079 58.0197 62.2286 58.0015C63.8539 57.6269 65.5608 57.4017 67.2409 56.9934C67.7816 56.8597 68.3176 56.7067 68.847 56.5345C70.2806 56.0567 71.1027 55.5504 71.7375 57.1574C71.7856 57.2791 72.3073 57.0863 72.398 57.0594C73.0588 56.8817 74.0285 56.8903 74.6505 57.1839C75.4121 57.5433 75.4985 58.5679 75.5505 59.2986C75.5923 59.8587 75.6745 60.2257 75.0315 60.4175C74.8083 60.4835 74.5761 60.5161 74.3432 60.5142C74.0672 60.5131 72.4561 60.2976 72.3639 60.3668C72.3929 60.6763 72.5061 60.7017 72.5185 61.0158C72.5352 61.4399 72.8266 61.902 72.4042 62.2975C72.153 62.5323 71.5558 62.6636 71.2066 62.7558C68.8226 63.3845 66.3615 63.4848 63.914 63.641C63.4679 63.6693 62.9478 63.5875 62.5026 63.6073C62.3627 63.6139 62.2955 63.6589 62.2294 63.7674C62.2557 63.9189 62.2201 63.8588 62.3397 63.955C62.7768 64.0488 63.6051 64.017 64.0752 64.022C65.8057 64.0476 67.5033 63.9957 69.2226 63.774C69.9264 63.6833 70.6969 63.4531 71.386 63.4399C72.4863 63.4186 72.4658 63.9778 72.3991 64.7801C73.2591 64.4503 74.087 64.0472 75.0102 64.4421C75.9028 64.8239 75.5346 65.9304 75.4861 66.6428C75.2982 69.4104 73.6343 68.7055 71.786 68.0725C71.6596 68.7349 71.4232 69.8186 70.8322 70.2158C69.4667 71.1336 62.5226 70.0988 60.7015 69.7434C60.6358 69.9391 60.6146 70.0038 60.512 70.1809C60.8741 70.2278 61.2356 70.274 61.5984 70.3147C63.826 70.5658 66.0115 70.9309 68.2618 70.9658C68.9117 70.9759 70.1702 70.7918 70.4492 71.5185C70.5341 71.7394 70.3566 72.0219 70.4202 72.1847C70.6512 72.1773 70.8833 72.077 71.119 71.9959C72.1251 71.6498 73.2564 71.1925 74.2351 71.8719C74.3664 71.9634 74.3688 72.3901 74.3385 72.5343C74.0665 73.8183 73.6696 76.0717 71.893 75.8027C71.2356 75.7031 70.0229 74.9675 69.5291 75.2109C69.3784 75.3671 69.3245 75.5748 69.259 75.769C68.8989 76.8364 68.7761 77.4569 67.4735 77.4177C65.7449 77.3658 63.9713 77.1201 62.2571 76.8832C60.9758 76.7065 59.4925 76.5953 58.2628 76.2019C58.1999 76.3879 58.1043 76.579 58.1269 76.7616C58.1849 76.8329 58.2206 76.8852 58.3352 76.8894C58.7986 76.9065 59.2833 76.9503 59.7416 77.0204C61.343 77.2681 62.9551 77.446 64.5628 77.6503C65.3906 77.7553 66.2293 77.7661 67.0514 77.8859C67.9347 78.0146 68.0436 78.201 68.2939 78.9835C69.3598 78.7967 71.0829 77.682 72.0743 78.2971C72.2158 78.3851 72.3235 78.5204 72.3352 78.699C72.3813 79.423 72.1654 80.2354 71.9181 80.9117C71.8391 81.1283 71.7209 81.3182 71.6453 81.5171C70.7384 82.1759 69.8508 81.9837 68.8141 81.8632C68.5238 81.8295 68.1866 81.7996 67.9017 81.8806C67.6913 81.9407 67.7033 83.2317 67.2219 83.5751C66.9103 83.7976 66.2638 83.7766 65.8844 83.8061C63.6772 83.977 61.4878 83.9375 59.2825 83.7565C58.7812 83.715 58.2508 83.7022 57.7558 83.6259C57.4311 83.5759 56.973 83.3356 56.6628 83.4507C56.5816 83.5658 56.552 83.8107 56.6052 83.9398C56.8847 84.1138 61.3523 84.2925 61.9961 84.339C62.3843 84.3673 63.6446 84.3374 64.1458 84.3467C64.9798 84.3619 66.1452 84.1084 66.9902 84.2499C67.2925 84.3006 67.5072 84.708 67.6227 84.9626C68.4187 84.5913 70.7698 83.4933 71.2558 84.7948C71.541 85.5587 71.8588 86.8834 71.555 87.6706L71.5387 87.7117C70.3578 88.3546 69.4063 87.8965 68.1075 87.8527C68.1986 88.3868 68.4815 89.2298 68.1459 89.6549C67.5331 90.432 65.5302 90.6134 64.6101 90.7591C62.4335 91.1041 60.2877 90.9855 58.1031 90.9793C57.7032 90.9781 57.1494 90.801 56.8102 90.8467L56.7767 90.8921C56.8092 91.02 56.9016 91.4684 56.9723 91.532C57.2342 91.5789 58.0905 91.5924 58.3911 91.592C60.7696 91.5916 63.0648 91.5614 65.4193 91.1704C66.2549 91.0312 67.0494 90.7347 67.8548 90.6684C68.4187 90.6464 68.6346 91.244 68.9513 91.5579C68.9943 91.6009 69.7016 91.2579 69.7861 91.2293C72.5883 90.2902 72.677 92.4497 73.1212 94.3485L72.9828 94.5492C72.8158 94.7922 72.5034 94.948 72.2189 95.0031C71.6352 95.1166 71.0298 94.8418 70.4547 94.7477C70.1462 94.6973 69.8993 94.6922 69.5873 94.6938C69.7753 95.1817 69.8981 95.5185 70.04 96.0259C69.7291 96.753 69.4179 96.8568 68.7017 97.1615C65.9627 98.3265 62.9245 98.8707 59.9585 98.4796C59.5401 98.4242 59.1529 98.3781 58.7566 98.2478C58.3385 98.5257 57.9564 98.6319 57.4595 98.5331L57.406 98.5218C56.5408 97.7827 55.5533 94.7275 55.2994 93.5648C55.2418 93.3012 55.132 92.995 55.078 92.7257C55.0385 92.5288 55.287 92.0916 55.2833 91.975C55.2711 91.5866 55.1297 91.1002 55.0672 90.7119C54.4355 90.2278 54.5029 89.3836 54.4383 88.6577C54.3226 87.3578 54.4991 86.0645 54.4627 84.7696C54.457 84.5665 54.8267 84.1944 54.8872 83.9937C54.9597 83.5817 54.906 83.5398 55.0456 83.1042C54.9641 82.9476 54.7313 82.5341 54.723 82.3891C54.6963 81.812 54.8929 81.2233 55.0342 80.6687C55.069 80.5322 55.0345 80.3571 55.0755 80.2183C55.393 79.1447 55.6672 78.046 56.0054 76.9798C56.3191 75.9911 56.6383 75.014 56.9721 74.0323C57.1268 73.5858 57.4175 73.0498 57.5815 72.5947C57.9676 71.5223 58.4023 70.4317 58.8588 69.3868C58.9329 69.2174 58.8376 69.1651 58.9017 69.0302C59.0014 68.8206 59.0951 68.6256 59.1797 68.407C59.7034 67.0862 60.0669 65.7072 60.2622 64.2999C60.3069 63.984 60.3658 63.6306 60.3869 63.3124C60.3995 63.1236 60.2959 62.8729 60.2947 62.6651C60.2718 59.1167 57.8373 56.1533 56.6195 52.9472C56.403 52.3772 56.183 51.7279 55.9471 51.18C55.129 49.2793 54.6777 47.2257 54.3891 45.1828C54.3524 44.9226 54.5433 44.4838 54.5454 44.2064C54.5772 43.8128 54.4153 43.7295 54.5212 43.3897C54.5357 43.3437 54.5515 43.2982 54.5687 43.2532C54.4917 43.1524 54.3217 42.9333 54.2776 42.823C54.0187 42.1762 54.1588 41.2744 54.2353 40.5842C54.3207 40.2663 54.2595 39.9178 54.3038 39.6031C54.3386 39.3569 54.4327 39.0308 54.4779 38.7914C54.6574 37.8404 54.6752 37.0297 55.3252 36.2515C55.3122 36.2671 55.5824 35.4248 55.6599 35.2649Z" fill="black"/>
<path d="M62.2627 58.7539C64.2206 58.45 66.1577 58.0235 68.0901 57.5878C68.4087 57.5159 70.0509 56.8646 70.2144 57.0395C70.6768 57.5956 70.4392 58.0728 71.3458 58.0601C72.0728 58.0499 73.0685 57.4757 73.7041 57.9019C73.9638 58.0761 74.1402 59.477 74.0061 59.6205C73.2701 59.7438 71.9403 59.2354 71.2748 59.9226C70.9543 60.2537 71.5953 61.6585 71.2589 61.7848C70.1187 62.2126 68.3905 62.4069 67.2026 62.565C66.6181 62.6428 62.7091 62.9424 62.36 62.7284C62.2279 62.4647 62.3128 61.6764 62.2741 61.3692C62.2102 60.8624 61.7426 59.2825 61.4885 58.9045L62.1652 58.7663L62.2627 58.7539Z" fill="#D3E773"/>
<path d="M61.8044 58.0905C61.9074 58.0394 62.1079 58.0202 62.2286 58.002L62.5072 58.3123L62.2627 58.7538L62.1651 58.7662C62.0283 58.6439 61.9364 58.6637 61.7651 58.493L61.7704 58.4313C61.8614 58.3584 61.9391 58.3133 61.9842 58.2081C61.9118 58.1027 61.9511 58.1502 61.8044 58.0905Z" fill="#1C0E02"/>
<path d="M67.1518 91.6083C67.2266 91.6033 67.2596 91.62 67.3367 91.6374C67.5665 91.8079 67.8576 92.461 68.0052 92.7397C68.5796 92.7978 68.7211 92.735 69.2091 92.4157C69.6241 92.144 70.2063 91.763 70.719 91.8924C71.174 92.5246 71.1477 92.8912 71.3845 93.5962C71.4376 93.7539 71.4469 93.778 71.3826 93.9105C71.1341 93.969 70.738 93.8163 70.4446 93.8066C69.766 93.7849 68.8288 93.7753 68.3742 94.3679C68.0607 94.7771 68.7843 95.9228 68.4944 96.1317C67.2972 96.9952 65.5779 97.2774 64.1454 97.5576C63.4745 97.6808 63.0951 97.6056 62.6327 97.687L62.594 97.694C62.3541 97.6184 61.5922 97.6944 61.3024 97.6785C60.7156 97.646 59.4926 97.5735 58.9813 97.3778C58.4691 96.5941 57.8419 94.919 57.5584 94.0066C57.4163 93.6008 57.3795 93.1579 57.2405 92.7598C57.1963 92.6331 57.1122 92.5567 57.1819 92.4199C57.5907 92.3823 58.0988 92.4668 58.5065 92.4606C59.0569 92.4521 59.6235 92.4234 60.1743 92.4191C61.8892 92.4064 63.5703 92.2781 65.2643 92.0052C65.8593 91.9095 66.5518 91.7374 67.1518 91.6083Z" fill="#D3E773"/>
<path d="M56.5189 84.8086C57.041 84.8167 57.6217 84.9152 58.1572 84.9427C60.8129 85.0803 63.4395 85.2958 66.0932 85.0039C66.2951 84.9818 66.4719 85.6558 66.6191 85.8543C66.8137 85.9434 66.8354 85.9577 67.0451 85.9876C67.5896 86.0647 69.3263 85.0322 69.7531 85.119C69.9992 85.4093 70.1255 86.6709 70.1038 87.0794C70.0976 87.1891 69.7581 87.1015 69.6852 87.0933C68.6927 86.986 67.9923 86.9151 67.0827 87.3887C66.4622 87.8902 67.009 88.5184 66.9761 89.1603C66.9579 89.5126 65.9386 89.6513 65.6583 89.7091C63.6131 90.1307 61.5623 90.2048 59.4807 90.1478C58.5555 90.1222 57.7656 90.1935 56.8507 89.9835C56.3725 89.5482 56.7089 89.5436 56.6043 89.0091C56.5304 88.6308 56.4834 88.244 56.4642 87.858C56.4642 87.858 56.5688 87.6968 56.5782 87.6821C56.5601 87.3298 56.3138 87.1387 56.5344 86.8561C56.5183 86.5837 56.4965 86.3263 56.4954 86.0531C56.4936 85.6299 56.5873 85.2202 56.5189 84.8086Z" fill="#D3E773"/>
<path d="M61.1255 36.9717C61.6645 36.9308 64.9673 36.9775 65.3941 37.1692C65.472 37.3323 65.2782 37.771 65.3627 38.0901C65.6607 39.2178 67.9094 38.5625 68.7648 38.8132C68.8876 38.8493 69.0314 38.9458 69.1322 39.0108C69.188 39.4751 69.2182 39.9495 69.0496 40.4063C68.7299 40.6941 66.7331 39.8441 65.9413 40.0555C64.3604 40.4776 65.7847 41.9145 64.4011 42.0581C63.7492 42.0669 62.8884 42.1853 62.2144 42.2253C61.1418 42.2888 60.0583 42.3537 58.986 42.4232C58.2919 42.4681 57.0247 42.6271 56.3621 42.5027C56.0575 42.2697 56.2464 41.831 56.2128 41.5163C56.188 41.1286 56.1692 40.5263 56.2746 40.1496C56.4146 39.6494 56.4119 39.2174 56.5013 38.711C56.5797 38.2666 56.7918 37.8254 56.8432 37.3864C56.8489 37.3372 56.824 37.3201 56.8445 37.2211C57.098 37.0644 60.5624 36.9889 61.1255 36.9717Z" fill="#D3E773"/>
<path d="M65.0585 44.0208C65.2007 43.9997 65.2345 43.9909 65.3821 44.0047C65.6379 44.1663 65.636 44.6845 65.8406 45.0173C66.8433 45.5519 67.9211 45.0425 68.9652 45.0328C69.2079 45.0305 69.6485 46.5407 69.6036 46.7818C69.2288 46.9856 67.3239 46.2988 66.4855 46.7997C66.3786 46.8636 66.2987 46.9537 66.2724 47.079C66.2115 47.3671 66.2185 48.1288 66.37 48.3663C66.4069 48.424 66.4026 48.4028 66.4158 48.4678C66.4235 48.5049 66.4266 48.5052 66.401 48.5339C66.1673 48.794 62.2195 49.5739 61.6873 49.6161C61.4494 49.6159 61.1676 49.693 60.9372 49.72C60.2149 49.8045 58.3691 50.19 57.7226 50.0402C57.368 49.8076 56.3624 45.3958 56.511 45.0414C56.723 44.9762 57.4567 44.9021 57.7132 44.8652C58.8216 44.7231 59.9317 44.5527 61.0467 44.4719C62.379 44.3754 63.7392 44.1321 65.0585 44.0208Z" fill="#D3E773"/>
<path d="M57.8528 77.6045C58.2709 77.67 58.8276 77.713 59.2623 77.7677L62.0259 78.1277C63.5376 78.3118 65.1894 78.5405 66.723 78.6354C67.023 78.8269 66.7013 79.7017 67.2195 79.8098C68.2082 80.0167 69.9903 79.2924 70.8964 78.9203C70.8185 79.5044 70.6844 80.3528 70.3941 80.8993C70.3736 80.9376 70.2015 81.0876 70.1585 81.1248C69.6744 81.0194 68.8299 80.9244 68.3156 80.9411C68.1563 80.9461 68.34 80.9733 68.1745 80.9399C67.2982 81.0771 66.6862 80.8934 66.4176 82.0372C66.3804 82.1957 66.2808 82.8495 66.1777 82.8821C64.9968 83.2545 57.3831 83.1235 56.7512 82.4352C56.9608 81.0144 57.3457 79.573 57.7063 78.1862C57.7624 77.9704 57.7705 77.8273 57.8528 77.6045Z" fill="#D3E773"/>
<path d="M61.6954 29.293C62.1037 29.3225 62.626 29.3099 63.033 29.3601C64.3949 29.5282 66.3417 29.8326 67.4176 30.6768C67.3525 30.8772 67.1502 31.4614 67.1715 31.6531C67.3257 33.0362 70.4767 31.9206 70.8445 32.2247C70.8189 32.5762 70.3631 33.6263 70.086 33.9318C69.5039 34.1671 67.6238 33.0644 66.3832 33.9272C66.1708 34.292 66.0502 34.5778 65.813 34.9481C64.7057 34.8812 63.6845 34.7988 62.5721 34.7795C61.1431 34.7547 58.8792 34.9853 57.5504 34.7451C57.5467 34.7283 57.4984 34.5379 57.4971 34.5437C57.8593 32.9262 58.7432 31.0417 59.5558 29.6337C59.7544 29.2896 61.3175 29.3471 61.6438 29.3007L61.6954 29.293Z" fill="#D3E773"/>
<path d="M60.2817 70.9551C62.5677 71.1361 64.822 71.5717 67.1133 71.7155C67.3799 71.7322 69.0318 71.7341 69.1481 71.8124C69.1845 71.988 68.9345 72.3124 68.9636 72.5151C69.1729 73.9727 71.9053 72.3523 72.7568 72.3612C73.0242 72.6647 72.2572 74.4347 71.9599 74.7564C71.3049 74.4564 70.9212 74.3254 70.1926 74.2529C70.0127 74.2115 69.224 74.2867 69.0217 74.3231C67.9702 74.5126 67.9993 75.7532 67.4985 76.5086C66.98 76.69 63.7492 76.2237 63.0422 76.1571C62.4545 76.1013 58.8717 75.6312 58.5551 75.3955C58.5364 75.1339 60.0697 71.4388 60.2817 70.9551Z" fill="#D3E773"/>
<path d="M67.3595 50.4759C67.6746 50.4611 67.8533 51.0439 68.1196 51.2408C68.7804 51.7294 69.8466 50.9412 70.5834 50.8537C70.8578 50.8212 71.1485 50.5681 71.3953 50.9001C71.6477 51.2392 72.0469 52.0734 72.0345 52.4734C71.4236 52.6543 70.2819 52.1229 69.4222 52.5472C68.0064 53.246 69.5873 54.0886 69.3606 54.7447C68.8296 55.2187 65.0632 56.1677 64.2268 56.3092C63.6768 56.4168 61.1453 57.066 60.7457 56.8557C60.5012 56.7271 58.7489 52.8531 58.4946 52.3611C59.8406 52.101 61.1888 51.9524 62.5328 51.7102C64.1117 51.4256 65.8542 51.0299 67.3595 50.4759Z" fill="#D3E773"/>
<path d="M71.001 64.2441L71.1154 64.2534C71.3278 64.455 70.9817 65.0697 71.127 65.3654C71.6076 66.3448 73.5121 64.9491 74.0346 65.2049C74.207 65.5382 73.7904 67.2009 73.733 67.6358C73.573 67.5823 73.4121 67.53 73.2509 67.48C72.5389 67.2571 71.101 66.8618 70.7092 67.6203C70.5119 68.0021 70.0883 69.0842 69.9577 69.5124C69.9449 69.5171 69.9317 69.5213 69.9189 69.526C68.7128 69.9748 66.7819 69.5989 65.4843 69.5853L65.4281 69.5849C65.1758 69.5903 61.1524 69.05 61.0695 69.0016C61.0487 68.9221 61.0613 68.8016 61.0933 68.726C61.4965 67.7773 61.7291 66.7645 62.0233 65.7785C62.0999 65.5216 62.0517 65.1158 62.1747 64.8716C62.2477 64.7263 62.6965 64.7662 62.8306 64.7709C63.9751 64.7906 65.1425 64.7991 66.2843 64.7674C67.8691 64.7364 69.448 64.5612 71.001 64.2441Z" fill="#D3E773"/>
</g>
<defs>
<clipPath id="clip0_292_2848">
<rect width="79.375" height="79.375" fill="white" transform="translate(23.8125 23.8125)"/>
</clipPath>
</defs>
</svg>
