<svg width="127" height="127" viewBox="0 0 127 127" fill="none" xmlns="http://www.w3.org/2000/svg">
<rect width="127" height="127" rx="63.5" fill="#AFD300" fill-opacity="0.5"/>
<g clip-path="url(#clip0_292_3023)">
<path d="M72.5515 31.8895C72.7143 31.8586 72.8763 31.9619 73.0604 31.9801C73.3468 32.0084 73.4243 31.9655 73.665 32.1259C74.7104 32.8221 74.7123 33.7169 74.4189 34.8158C74.2534 35.437 74.4313 35.5428 75.0065 35.7361C76.5282 36.2173 78.4034 36.174 78.9941 37.9732C79.0274 38.0739 79.1848 38.3254 79.1867 38.4238C79.1906 39.0389 79.0577 39.8391 78.6724 40.3403C77.5666 41.7789 76.2325 41.0851 74.8891 40.4795C74.1305 40.1376 73.7491 39.9191 73.1046 39.4335C72.7367 39.908 72.9077 40.8082 72.6701 41.4028C72.4759 41.888 72.1278 42.3214 71.6406 42.5406C71.4805 42.6127 71.4643 42.5925 71.3922 42.7169C71.4332 42.8525 71.6852 42.9263 71.8596 43.2028C72.2658 43.8464 72.2049 44.3953 72.7755 44.8744C73.2143 44.9382 73.8174 45.0536 74.2247 45.1053C75.5825 45.2775 75.9084 45.2076 77.0437 45.9198C77.3042 46.4605 77.3282 46.2035 77.3313 46.8399C77.6453 47.212 77.4604 47.0192 77.4794 47.3077C77.555 48.4441 77.2065 50.1272 75.9426 50.475C75.2515 50.6653 74.4596 50.4434 73.8115 50.2029C73.0553 49.9609 72.6332 49.539 71.9805 49.1204C71.8193 49.0171 71.729 48.9928 71.5491 49.0424C71.3391 49.2524 71.4305 49.3574 71.4092 49.6695C71.322 49.7479 71.3146 49.747 71.2557 49.8462C71.477 50.0065 71.3813 50.128 71.3573 50.3852C71.2441 51.5806 70.7329 51.8147 69.8972 52.4526C69.9487 52.5293 69.958 52.5439 70.0228 52.61C70.3332 52.9259 70.6987 53.4379 70.8507 53.8501C71.8259 54.0466 73.0236 53.4703 74.0038 53.3694C74.6728 53.3006 75.3236 53.486 75.8449 53.9143C76.5414 54.4864 76.6042 54.8538 76.8143 55.6804C76.8426 55.7919 76.9189 55.8788 76.9259 55.9935C76.9391 56.2119 76.9298 57.1466 76.9821 57.2688C77.0584 57.4455 76.8709 57.8464 76.8084 58.0265C76.5871 58.6658 76.2271 59.2965 75.586 59.5917C74.2499 60.2068 72.791 59.1411 71.6991 58.479C71.4018 58.2988 71.0929 58.0904 70.7646 57.9727C70.627 57.9235 70.5371 57.918 70.4053 57.9814C70.1666 58.354 70.3344 59.2193 70.2863 59.6532C70.2387 59.9445 70.0984 60.242 70.0642 60.5326C69.9918 61.1548 69.5491 61.503 69.1398 61.903C69.1383 61.9325 69.9685 62.8045 70.1484 63.0921L70.1743 63.1343C70.4057 63.1494 70.6728 63.1754 70.898 63.1394C72.1123 62.9452 73.1557 62.2131 74.4317 62.5742C75.129 62.7715 75.6984 63.2723 76.036 63.9045C76.5131 64.7991 76.7146 66.2894 76.4007 67.2619C76.1418 68.063 75.5468 68.4006 74.8581 68.7591C74.4991 68.7382 74.1177 68.834 73.853 68.7874C72.8561 68.6126 72.1476 68.0874 71.3049 67.596C71.0635 67.4553 70.3224 67.2886 70.0173 67.2146C69.9115 67.4863 69.9111 68.8836 69.9604 69.1777C70.0697 69.8332 69.0801 70.527 68.9987 70.7929L69.0402 70.8452C69.3759 70.8572 69.36 70.97 69.598 71.1402C70.1491 71.5343 70.0887 72.1301 70.3887 72.6855C71.1495 72.9444 72.8003 71.3367 74.0216 71.3266C74.665 71.3223 75.2832 71.5754 75.7395 72.0293C75.9317 72.2235 76.317 72.7611 76.3305 73.0634C76.3336 73.1336 76.3197 73.1371 76.3348 73.2661C76.3813 73.3177 76.4433 73.3797 76.4778 73.4405C76.6084 73.6708 76.9232 75.3309 76.8685 75.603C76.8096 75.8971 76.7375 76.1743 76.5933 76.4398C76.3526 76.8824 75.7767 77.4731 75.2829 77.608C75.2643 77.613 75.2457 77.6169 75.227 77.6216C74.8674 77.713 74.5391 77.7429 74.1697 77.6944C73.5139 77.6084 71.1627 76.6464 70.6863 76.953C70.6445 76.9797 70.5906 77.0235 70.5867 77.0766C70.5743 77.2479 70.8212 78.0088 70.8348 78.3673C70.8677 79.2514 70.2755 79.3483 70.2166 79.834C70.3642 79.9964 70.6778 80.0146 70.8643 80.146C71.2034 80.3848 71.517 80.8499 71.8003 81.1619C71.9142 81.2867 72.0662 81.4731 72.2425 81.4941C72.727 81.5522 74.3883 80.1014 75.7395 80.1747C75.9895 80.1882 76.8592 80.2731 77.0209 80.415C77.1298 80.5107 77.3278 80.7661 77.446 80.8177C77.5639 80.8692 77.6026 80.8379 77.6929 80.946C77.7926 81.0658 78.2561 81.6398 78.2879 81.7452C78.2976 81.7782 78.2778 81.8704 78.2743 81.9084C78.4185 82.0282 78.5104 82.0514 78.4274 82.2208C78.4329 82.2681 78.6224 82.4208 78.6286 82.4483C78.6988 82.7499 78.9736 83.053 79.0759 83.32C79.2472 83.7658 79.1588 84.4262 78.9612 84.8487C78.6895 85.4289 78.3054 85.7894 77.7143 86.0216C76.2701 86.6212 75.322 86.2762 73.8608 86.0673C73.7519 86.0518 73.7174 86.0708 73.6298 86.1208C73.5712 86.2309 73.6174 86.3669 73.6418 86.4972C75.5836 87.9658 77.829 88.384 79.5499 90.1821C80.4108 91.0817 80.8503 91.1778 81.2716 92.4832C81.7352 93.9197 80.7224 94.8356 79.465 95.203C79.26 95.1522 79.1116 95.0918 78.9158 95.0166C78.8732 95.0363 78.8298 95.0549 78.786 95.0716C77.8604 95.4204 76.4875 93.5708 75.7224 93.1041C74.855 92.5743 73.7073 92.1848 72.7007 92.1371C70.7065 92.0421 68.7146 92.1728 66.7181 92.1666C65.5406 92.1778 63.7464 93.7255 62.5848 94.1011C61.7553 94.3697 60.9674 94.7592 60.0709 94.334C58.4185 93.5274 58.3957 92.2332 58.5554 90.5898C58.5851 90.284 58.4552 89.4383 58.3641 89.1165C57.976 87.7468 57.2852 86.5278 56.7644 85.1925C56.792 85.1034 56.8201 85.0146 56.8487 84.9258C57.0758 84.2006 57.7555 83.6906 57.8996 83.2297C57.695 83.0793 57.0919 83.1018 56.5622 82.6227C55.7427 81.9216 55.7254 80.7285 55.6085 79.7398C55.5724 79.434 55.7206 79.3413 55.705 79.1057C55.5968 78.9627 55.5525 78.9053 55.625 78.7146C55.7686 78.3367 55.5089 77.8828 55.5912 77.5002C55.5925 77.494 55.6527 77.3282 55.6615 77.2956C55.3139 76.5386 54.3047 74.9526 53.7785 74.2506C53.349 73.8188 52.7191 73.4642 52.233 73.1378C51.4848 72.6359 51.2278 72.0037 50.957 71.1909C50.7926 70.6975 51.1357 69.4138 51.295 68.9452C51.0775 68.701 50.8551 68.1518 50.6559 68.0076C49.664 67.2894 48.6726 67.3084 47.7843 66.3026C46.8624 65.3336 46.374 64.0642 46.7213 62.7374C46.9678 61.7955 46.7028 61.8054 46.1732 61.1392C45.5168 60.3137 45.0869 59.2659 44.9489 58.2227C44.9671 57.9199 44.8814 57.2486 44.9444 56.9892C45.0341 56.6198 45.1045 55.8994 45.2094 55.5718C45.6483 54.2007 46.4555 52.736 47.7661 52.0338C48.1362 51.8356 48.8779 51.7592 49.2728 51.6226C49.7592 51.0103 50.3041 49.9821 51.0295 49.5505C51.7036 49.1493 52.3705 49.2663 52.9145 48.6622C54.0006 47.4879 53.0501 47.0267 52.9526 45.8286C52.87 44.8134 53.6376 43.9657 54.2871 43.3091C54.8728 42.7192 55.4892 42.1606 56.1339 41.6358C56.7083 41.1592 57.4174 40.6302 57.8996 40.0796C58.2625 39.6653 58.3943 38.5252 58.5936 37.9696C58.9073 37.0954 59.3197 36.2325 59.5 35.3203C59.6376 34.6242 59.5881 33.7844 59.96 33.1472C60.2313 32.6957 60.4379 32.5276 60.9088 32.3154C62.4055 31.641 63.6022 32.8439 64.9883 33.1545C66.3449 33.4585 67.8588 33.6541 69.2499 33.5307C70.3813 33.5059 70.5701 32.6087 71.4736 32.1275C72.0856 31.8016 72.0871 32.03 72.5515 31.8895Z" fill="black"/>
<path d="M58.8643 40.6729L58.914 40.6884C59.0148 40.8243 59.1634 41.013 59.284 41.131C59.4628 41.306 59.681 41.3062 59.7937 41.5653C59.7647 41.6463 59.7428 41.7665 59.6624 41.8107L59.4704 41.808C59.2576 41.9427 58.9454 42.1741 58.7762 42.3396C57.2498 43.8326 58.3847 44.8141 58.3528 46.197C58.4048 46.2496 58.4259 46.2721 58.4705 46.3309C58.2018 47.2811 57.8393 47.4171 57.3925 48.1877L57.3615 48.2421C57.2659 48.2857 57.2191 48.291 57.1719 48.3809C57.1796 48.4996 57.1831 48.511 57.1638 48.6268C57.0906 48.6608 57.0488 48.6833 56.9791 48.7243C56.9474 48.8187 56.9611 48.8538 56.9765 48.9515L56.9822 48.9861C56.9264 49.0095 56.8833 49.0291 56.8291 49.0561C56.7025 49.4966 56.7096 50.2062 56.7093 50.6719L56.8294 50.7267C56.6029 51.2376 57.439 51.2931 57.1349 52.089C57.1409 52.1141 57.829 52.8854 57.7667 52.8528C58.8091 53.3964 60.1607 54.2639 59.2793 55.5899C58.8562 56.2264 59.3112 56.9616 59.5787 57.5355C59.8084 58.0285 60.7454 58.4356 61.2167 58.6326C61.5213 59.0585 61.8705 59.5656 61.6851 60.1112C61.6109 60.3297 61.4629 60.4188 61.3533 60.601L61.4069 60.7242C61.252 60.8451 61.151 60.7348 60.9675 60.867C60.9619 60.9671 60.9561 60.9181 60.985 61.014C60.815 61.0329 60.4379 61.0391 60.3447 61.1785C60.4468 61.2256 60.4164 61.203 60.4983 61.2777L60.4444 61.3391L60.1297 61.2821C59.8211 61.5181 59.294 61.8332 59.116 62.173C59.0473 62.3042 59.0367 62.3768 58.8847 62.3806C58.7826 62.4601 58.7147 62.6711 58.6433 62.8091L58.5409 62.823C58.58 62.98 58.6754 63.032 58.7341 63.213C58.6184 63.2223 58.5296 63.2296 58.4138 63.249C58.352 63.3262 58.3182 63.3851 58.2282 63.4234L58.1459 63.3657L58.091 63.3843C58.0109 63.6262 58.1559 63.4188 58.1731 63.5614C58.1815 63.6304 57.9375 63.8696 57.9198 63.899C57.8666 63.9874 57.8516 64.2889 57.8511 64.4083C57.8503 64.6583 57.7304 64.8603 57.7152 65.1103C57.7151 65.1114 57.833 65.2103 57.833 65.2103C57.8579 65.5002 57.8514 65.7215 57.9763 65.9944C58.0668 66.0188 58.0681 66.0157 58.1462 66.0653L58.1569 66.1374L58.0639 66.2273C58.0036 66.4672 58.1971 66.363 58.2591 66.5021C58.0026 66.7265 58.1728 66.6707 58.2138 66.9855C58.1092 67.0455 58.0238 67.0754 57.9759 67.1812C57.9934 67.2052 58.0109 67.2293 58.0284 67.2537C58.071 67.3017 58.0176 67.3618 57.994 67.4091C57.7262 67.9475 57.2102 68.2211 56.7219 68.5269C56.3349 68.7696 55.9236 69.0552 55.6487 69.4304C55.4912 69.6452 55.467 69.932 55.3621 70.1684C55.2388 70.4459 55.2802 70.7773 55.249 71.0766C55.28 71.1134 55.3109 71.1502 55.3419 71.1874C55.3617 71.363 55.3708 71.6537 55.4617 71.8099C55.7337 72.2773 56.3717 72.47 56.3957 73.0909C56.4012 73.2324 56.3709 73.3599 56.3101 73.4905C56.2448 73.6308 56.1162 73.7266 56.0307 73.8583C55.882 74.0878 55.8049 74.3037 55.6256 74.5118L55.5633 74.499L55.4873 74.3382L55.4929 74.27C55.4328 74.2308 55.4384 74.2463 55.4079 74.1909C54.9509 73.3169 53.7618 72.7254 53.0082 72.1983C52.0323 71.5153 51.8031 70.6161 52.4661 69.6471C52.5286 69.5556 52.3981 69.4653 52.4511 69.4122C52.7308 69.1328 52.593 68.83 52.58 68.4773C52.5584 68.2114 52.29 67.4603 52.1289 67.2161C51.867 66.9056 51.3351 66.7742 51.0355 66.5746C50.4124 66.1599 49.7427 65.8789 49.154 65.4227C48.9366 65.2541 48.8416 65.2409 48.8063 64.9785C48.5307 64.6812 48.4418 64.5037 48.3467 64.1091C48.1511 63.299 48.7496 62.8835 48.7616 62.1232C48.7742 61.3262 48.2122 61.1016 47.7453 60.6171C47.1922 60.043 46.7742 59.3503 46.6553 58.5565C46.6326 58.4056 46.5425 58.2172 46.5525 58.0456C46.5789 57.5962 46.5634 57.0366 46.6384 56.6011C46.8823 55.185 47.6749 53.6987 49.0556 53.1123C49.3887 52.9314 50.4277 52.7399 50.6695 52.4714C51.2615 51.8139 51.5388 50.9857 52.351 50.4648C53.0513 50.0157 53.86 50.1016 54.4022 49.4238C54.6677 49.0919 54.7705 48.7951 54.8476 48.3815C54.8991 48.1645 55.032 48.0863 54.9988 47.7737C54.5712 47.0404 53.6516 46.3758 53.8552 45.4643C54.1002 44.3676 55.1055 43.581 55.9134 42.8779C56.5859 42.2928 57.2668 41.718 58.0009 41.2103C58.2832 41.0141 58.579 40.8606 58.8643 40.6729Z" fill="#D3E773"/>
<path d="M53.743 54.7514C56.5589 53.3643 59.1689 55.814 57.495 58.6002C57.3546 58.8338 57.2526 58.9234 57.0114 59.0518C56.8188 58.9535 56.6698 58.8769 56.5984 58.6616C56.4686 58.2704 58.1358 56.3799 56.1739 55.3234C55.6214 55.0258 55.0412 55.045 54.4559 55.2289C54.3353 55.2676 54.2155 55.3084 54.0964 55.3513L53.7863 55.4916C53.5784 55.5312 53.3608 55.526 53.2352 55.3315C53.181 55.027 53.3771 54.946 53.6093 54.8218L53.743 54.7514Z" fill="black"/>
<path d="M53.7863 55.4921C53.5784 55.5317 53.3608 55.5265 53.2352 55.332C53.181 55.0275 53.3771 54.9465 53.6093 54.8223C53.7263 55.0886 53.5365 55.0496 53.7863 55.4921Z" fill="black"/>
<path d="M53.6094 54.8223L53.743 54.752C53.9304 55.0478 54.0979 54.9915 54.0964 55.3519L53.7863 55.4921C53.5365 55.0496 53.7263 55.0886 53.6094 54.8223Z" fill="#160802"/>
<path d="M48.7561 54.8026C48.921 54.7868 49.0123 54.8762 49.1646 54.9738C49.1895 55.0187 49.2491 55.0985 49.2044 55.1493C48.4823 55.9706 47.5345 57.5895 48.7148 58.4491C49.0483 58.6919 49.4173 58.1548 49.7472 58.4334C49.8106 58.593 49.8098 58.5996 49.8034 58.7741C49.741 58.9133 49.6014 59.0143 49.4841 59.1182C48.8938 59.3871 48.3982 59.4443 47.894 58.9646C47.4651 58.5533 47.2112 57.9926 47.185 57.399C47.1558 56.5629 47.804 54.8129 48.7561 54.8026Z" fill="black"/>
<path d="M51.7368 61.1758C51.8624 61.1802 51.9827 61.1873 52.1017 61.2313C52.5277 61.3889 51.8783 62.6403 52.2718 63.3791C52.7106 64.2027 53.712 64.1364 54.4726 64.3938C54.5355 64.4151 54.6489 64.4636 54.6715 64.5291C54.6975 64.6047 54.6925 64.9113 54.6473 64.969C54.5627 65.0771 54.3775 65.1043 54.2496 65.1217C53.9322 65.2415 53.7355 65.1147 53.4363 65.0473C52.2418 64.7791 51.0441 63.9926 51.1429 62.6112C51.1828 62.0541 51.3057 61.5601 51.7368 61.1758Z" fill="black"/>
<path d="M49.3709 63.4404C49.6705 63.5606 49.9253 64.3075 50.2872 64.6269C50.6577 64.954 51.3885 65.1528 51.6214 65.4222C51.68 65.759 51.5939 65.7893 51.316 65.8935C50.6875 65.7435 50.023 65.4811 49.6158 64.9598C49.2969 64.5521 48.8353 63.8424 49.3709 63.4404Z" fill="black"/>
<path d="M55.8494 66.0811C57.0321 66.3187 55.1164 68.2977 54.2267 68.3737C53.9938 68.3132 53.8158 68.176 53.824 67.9206C53.8912 67.8299 54.5004 67.4873 54.6974 67.3218C55.0843 66.9973 55.5118 66.3128 55.8494 66.0811Z" fill="black"/>
<path d="M69.8518 80.9639C70.2201 81.0933 70.6096 82.2864 71.1534 82.4964C72.7538 83.1143 74.1739 80.9158 75.7627 81.1681C76.1333 81.227 76.5352 81.7127 76.7131 82.0329C76.9364 82.5112 77.791 83.7883 77.6972 84.2681C77.5902 84.8139 76.7864 85.3383 76.2755 85.2883C75.0968 85.1697 73.4507 84.4317 72.3092 85.0174C71.5751 85.3937 71.8201 86.6639 72.2108 87.2143C72.5681 87.7181 72.5856 87.8038 73.1565 87.9635C73.3398 87.8902 73.4294 87.8356 73.598 87.7375C74.8809 88.415 76.5406 89.1123 77.6429 90.0736C78.2774 90.6267 79.9449 92.1705 79.9352 93.1344C79.9294 93.7085 79.2147 94.6666 78.6073 93.8484C78.3096 93.4472 77.584 92.8794 77.1654 92.5558C75.6968 91.4228 74.1332 91.1713 72.3468 91.1011L72.2716 91.0984C71.8286 91.1333 71.241 91.0891 70.7774 91.1131C70.2464 91.1402 69.7069 91.2185 69.1774 91.1247L69.1631 91.0782C69.7654 90.6817 71.1139 90.6166 71.5057 90.3375C71.5976 90.2724 71.6573 90.186 71.6809 90.0755C71.7073 89.9538 71.6836 89.8023 71.6018 89.7057C71.4673 89.5464 71.1941 89.5251 71.0018 89.5278C69.986 89.5433 68.5921 90.0263 67.6139 90.3344C67.4526 90.3848 67.1472 90.4154 67.0321 90.5387C66.9867 90.5875 65.2995 91.3422 65.0514 91.4685C64.2999 91.8503 63.5844 92.3116 62.8464 92.7201C62.4145 92.9589 61.2854 93.603 60.8092 93.4515C60.5259 93.3616 60.3184 93.1294 60.1677 92.8833C59.4778 91.7561 60.0059 90.9573 59.957 89.8263C59.9253 89.0926 59.6986 88.293 59.4678 87.5957C59.3014 87.0926 59.0486 86.548 58.7263 86.1267C58.4432 85.7569 58.1443 85.4422 57.9272 85.0243C58.6652 83.8976 58.9349 84.548 59.9172 84.441C62.0404 84.2092 64.2042 83.5383 66.2515 82.9782C67.7038 82.5805 68.8201 82.0581 69.8518 80.9639Z" fill="#D3E773"/>
<path d="M68.0285 71.7715C68.8568 71.7366 68.5297 72.1788 68.7618 72.7106C68.8142 72.8304 68.8308 72.8955 68.8712 73.006C69.2518 74.0544 70.8448 73.5436 71.5619 73.1757C73.2185 72.297 74.5847 71.2738 75.1902 73.8564C75.3309 74.4567 75.7026 75.0436 75.5599 75.6784C75.5227 75.844 75.5599 76.0199 75.4216 76.216C75.3374 76.3354 75.0696 76.5808 74.9332 76.6784C74.0134 76.7009 73.1138 76.4583 72.2126 76.3033C71.2316 76.1335 70.7429 75.949 69.825 76.1323C69.4677 76.2033 69.1956 76.6273 69.0494 76.8943C69.0107 77.6521 69.5634 78.6866 69.1921 79.4211C68.9812 79.8381 68.3444 79.5071 67.9367 79.5009C66.7886 79.4827 65.8076 79.6095 64.6956 79.8955C64.0622 80.0591 63.1882 80.4079 62.5596 80.63C62.1266 80.7831 61.5418 81.006 61.1232 81.1839C60.3603 81.5087 59.6008 81.9614 58.8005 82.2017C58.5542 82.2757 58.4453 82.2513 58.1999 82.1971C57.8923 82.1292 57.7578 81.9998 57.5975 81.7319C57.4739 81.5257 57.4666 81.3002 57.3902 81.0738C57.3521 80.9614 57.1502 80.6052 57.1434 80.5288C57.0765 79.7742 57.1198 79.0602 57.1686 78.3075C57.2116 78.0947 57.1413 77.7145 57.1754 77.5203C57.315 76.7223 57.09 76.0288 56.9274 75.256C56.8909 75.0827 56.798 74.5626 56.8774 74.406C57.002 74.1606 57.4036 73.8548 57.6909 73.8168C58.0448 73.7505 58.3173 73.7707 58.657 73.7626L60.3797 73.7207C60.7972 73.7091 61.191 73.6416 61.6042 73.618C62.9374 73.5424 64.3033 73.3525 65.6111 73.087C66.5258 72.9009 67.1929 72.1211 68.0285 71.7715Z" fill="#D3E773"/>
<path d="M60.4881 42.8631C61.1303 42.8094 62.0091 43.0517 62.658 43.1611C63.2545 43.2618 63.8542 43.3192 64.4483 43.43C65.379 43.6037 66.3929 43.8294 67.3263 43.9519C67.7228 44.004 68.8898 44.0076 69.2701 43.943C69.9294 43.8308 69.9991 43.6732 70.7507 43.7097C70.8084 43.8829 70.9949 44.4581 71.0631 44.6062C71.579 45.7285 73.772 45.7033 74.8472 45.985C75.241 46.0882 75.429 46.1485 75.8073 46.2904C76.146 46.6722 76.21 47.0378 76.1798 47.578L76.1488 48.1802C75.9115 48.5075 76.0561 48.4047 75.9871 48.7067C75.6298 50.2698 73.5084 49.0994 72.8081 48.4725C72.5278 48.2217 71.7422 47.8898 71.4061 47.8243L71.341 47.812C71.1228 47.7223 70.8456 47.8678 70.6468 47.9337C69.4925 48.3163 69.8902 49.8137 69.6511 50.7114C69.5356 51.1449 69.3553 51.3689 69.0658 51.694C68.2999 51.2756 67.0701 50.7592 66.2251 50.6539C63.9445 50.3696 61.5159 50.55 59.2442 50.8368C59.0909 50.8562 58.8847 50.74 58.7828 50.6155C57.6794 49.1822 59.664 48.2393 59.8408 46.7744C59.973 45.6789 59.4243 44.6333 59.436 43.6897C59.8007 43.1596 59.859 43.04 60.4881 42.8631Z" fill="#D3E773"/>
<path d="M72.2927 32.8906C72.4826 32.9361 72.7485 32.9896 72.897 33.1182C73.414 33.566 72.7338 34.662 72.8509 35.279C72.9175 35.6323 73.1175 35.8601 73.4171 36.0312C74.3443 36.5604 76.3509 36.867 77.1485 37.4719C77.452 37.7067 77.6474 38.0544 77.6904 38.4356C77.7792 39.2265 77.6683 39.1039 77.3245 39.6445C76.9726 40.1976 76.9396 40.0078 76.3389 40.096C75.8532 39.8179 75.2691 39.7504 74.7652 39.4162C73.8493 38.8085 73.1419 37.6088 71.9133 38.47C70.9698 39.1316 71.3257 40.5383 70.976 41.4724C70.9458 41.5526 70.7222 41.792 70.6505 41.8705C70.3916 41.7502 69.7633 41.3744 69.5435 41.297C68.8768 41.0618 67.8842 40.7548 67.1714 40.6813C67.0799 40.6719 67.1152 40.7051 66.9842 40.6497C66.0501 40.4215 64.1291 40.5257 63.1574 40.6128C62.3449 40.6856 61.3627 40.8538 60.5594 40.7092C60.2665 40.65 60.0567 40.39 59.9011 40.1612C59.5821 39.692 59.8141 39.4316 59.9491 38.9556C60.2275 37.9733 60.6943 37.0676 60.9412 36.0738C61.1267 35.3253 60.9825 34.5774 61.1581 33.8171C61.2438 33.4459 61.5704 32.9624 62.0178 33.0611C62.4061 33.1468 62.847 33.4464 63.2276 33.6029C63.6958 33.7952 64.1714 33.9874 64.6605 34.1282C65.9032 34.4186 68.3055 34.6318 69.5512 34.4541C69.9129 34.4048 70.264 34.2962 70.59 34.1328C71.0613 33.8929 71.3264 33.5519 71.7315 33.2276C71.8838 33.1058 72.1179 32.9837 72.2927 32.8906Z" fill="#D3E773"/>
<path d="M68.3086 62.6846C68.6528 62.9412 68.7749 63.314 69.235 63.5791C70.4819 64.2977 71.8939 63.616 73.1842 63.3842C74.2455 63.1939 74.8129 64.0706 74.9889 64.9613C74.8931 65.1706 74.9745 65.2656 75.0455 65.471C75.2924 66.1846 75.0226 67.4699 74.2296 67.7373C73.7842 67.8877 72.3555 66.9578 71.8966 66.8117C71.2501 66.6059 70.6765 66.4745 70.0051 66.4032C67.9358 66.2741 68.4082 67.802 68.4063 69.1772C68.4055 69.7288 68.1082 69.8749 67.7276 70.1826C67.0582 70.0082 65.1578 69.6807 64.5125 69.902C63.247 69.7408 58.8076 71.2563 57.4904 71.6854C57.2987 71.5865 57.1784 71.5082 57.0011 71.3916C56.9261 70.8931 56.8588 70.8877 56.9761 70.3388C57.1608 69.4753 57.8238 69.3605 58.4618 68.9167C59.3424 68.304 59.6476 67.5024 59.855 66.5257C59.6911 66.1481 59.7157 65.7776 59.5978 65.3927C59.5407 65.2063 59.4288 64.6885 59.5668 64.5609C59.8344 64.314 60.0247 64.109 60.2133 63.7842C62.4203 63.9478 66.4013 63.7512 68.3086 62.6846Z" fill="#D3E773"/>
<path d="M69.0854 53.1533C69.1067 53.1735 69.4556 53.7946 69.5653 53.9274C70.7226 55.3265 72.7211 54.1948 74.2215 54.3183C74.7002 54.3577 75.1393 54.8548 75.2292 55.331C75.2467 55.6114 75.375 55.7385 75.4036 55.8847C75.175 56.1881 75.5098 56.4651 75.4684 56.6928C75.3552 57.3088 75.3858 58.2386 74.7145 58.5353C74.6234 58.5756 74.3773 58.6552 74.2831 58.6281C73.1102 58.2916 72.0672 57.6416 70.9753 57.1218C70.6951 56.9883 70.0583 56.9555 69.7602 57.0396C69.4881 57.1086 69.337 57.26 69.1478 57.4443C68.2656 58.2905 68.9525 59.8905 68.4346 60.904C68.1901 61.3825 67.728 61.131 67.4129 60.9374C67.1447 60.9016 66.885 60.8076 66.6063 60.7814C65.7734 60.7031 64.9164 60.6584 64.08 60.6828C63.7749 60.6917 63.4625 60.7872 63.1629 60.7336C63.109 60.724 63.2218 60.2899 63.2331 60.2176C63.2994 59.796 63.2652 59.3747 63.0889 58.9828C62.6459 58.0348 62.0889 57.7592 61.1737 57.3986C60.8076 56.9469 60.6868 56.8628 60.4636 56.3097C60.4675 56.3033 60.5033 56.2446 60.507 56.2353C60.808 55.4838 61.1207 54.8029 60.7038 54.0128C60.5974 53.8113 60.278 53.4923 60.2231 53.3055C62.6032 53.2477 65.3811 54.3794 67.8331 53.7037C68.2463 53.5899 68.6982 53.3451 69.0854 53.1533Z" fill="#D3E773"/>
<path d="M66.6839 80.299C67.0072 80.2532 68.6867 80.197 68.6719 80.5625C68.056 81.5412 65.6576 82.0164 64.6227 82.3439C63.6665 82.6466 62.7134 82.9195 61.7333 83.1327C61.4446 83.1955 61.0042 83.2707 60.7496 83.3765C60.6943 83.3699 60.6125 83.3583 60.5598 83.3749C60.1647 83.4982 59.7316 83.3362 59.3938 83.5067C59.2091 83.4653 58.7776 83.4234 58.7815 83.199C58.9719 83.0067 59.8069 82.6373 60.0933 82.4893C61.8904 81.5602 63.7227 80.8315 65.7022 80.3908C65.7843 80.3722 66.4859 80.3269 66.6839 80.299Z" fill="#D3E773"/>
<path d="M64.1545 70.7251C64.7444 70.6092 66.4859 70.8212 67.0541 71.0491L67.0518 71.1266C66.858 71.2569 65.4797 72.0259 65.3777 72.0627C64.8138 72.2654 60.8191 72.8042 60.5885 72.6863C59.7994 72.7925 58.9275 72.8294 58.1297 72.8666C57.8646 72.8786 57.3463 72.9604 57.6229 72.4871C58.5684 72.1859 59.4625 71.7968 60.4436 71.4964C61.7768 71.0887 62.7855 70.9138 64.1545 70.7251Z" fill="#D3E773"/>
<path d="M62.0091 51.335C62.2268 51.4049 63.0888 51.3707 63.3528 51.3575C65.0389 51.2733 66.9722 51.5171 68.4551 52.4066C67.6102 52.6877 67.123 53.1121 66.1412 52.9271C66.0908 52.9176 65.3315 52.8697 65.316 52.8721C65.1683 52.8355 65.1586 52.8392 65.0098 52.8352C64.2594 52.8148 63.2966 52.6318 62.556 52.5216C61.7251 52.3928 60.884 52.342 60.0436 52.37C59.7114 52.3778 59.2681 52.343 59.0436 52.0272C58.9992 51.9649 59.096 51.9203 58.9241 51.7558C59.1713 51.4201 61.54 51.5117 62.0091 51.335Z" fill="#D3E773"/>
<path d="M63.8754 41.3494C64.2153 41.2552 65.2773 41.3898 65.6742 41.3626C66.2634 41.3221 70.1773 42.046 69.977 42.8138C69.3971 43.3145 67.9614 43.0026 67.2785 42.9622L67.2041 42.9584C66.7719 42.8089 63.8436 42.3395 63.7812 42.285C63.7641 42.2701 63.7525 42.2482 63.7328 42.2378C63.6432 42.1916 63.099 42.1782 62.9645 42.1598C62.235 42.0546 61.5101 41.92 60.7916 41.756L60.772 41.7172C61.1814 41.464 63.2835 41.4042 63.8754 41.3494Z" fill="#D3E773"/>
<path d="M64.0068 61.4647C64.4312 61.4053 66.2002 61.554 66.6715 61.6645C66.9161 61.722 67.3234 61.9022 67.5579 62.0121C66.7455 62.6218 65.7343 62.6388 64.7448 62.7458C64.5304 62.769 64.3258 62.6954 64.1393 62.7892C64.1289 62.7919 64.1184 62.7946 64.1079 62.7977C63.5959 62.7962 61.1362 63.0167 60.7839 62.7942C60.881 62.5032 62.2461 62.2528 62.6261 61.6528C63.1626 61.5216 63.4591 61.5073 64.0068 61.4647Z" fill="#D3E773"/>
</g>
<defs>
<clipPath id="clip0_292_3023">
<rect width="79.38" height="79.38" fill="white" transform="translate(23.8125 23.8125)"/>
</clipPath>
</defs>
</svg>
