<svg width="127" height="127" viewBox="0 0 127 127" fill="none" xmlns="http://www.w3.org/2000/svg">
<rect width="127" height="127" rx="63.5" fill="#AFD300" fill-opacity="0.5"/>
<g clip-path="url(#clip0_292_2904)">
<path d="M62.8617 27.7017C63.0066 27.7303 63.2628 27.6976 63.4268 27.7015C68.8214 27.8317 70.3705 34.4233 69.7694 38.8497C69.8837 38.9063 70.5907 39.0025 70.7488 39.0281C76.0675 39.8893 76.9899 44.5509 77.26 49.0794C77.3767 51.0345 77.4961 52.9557 77.5178 54.9317C77.5782 58.3134 77.467 61.6961 77.1852 65.0664C77.167 65.2722 77.1189 65.4412 77.0945 65.6397C77.0678 65.8644 77.0937 66.1113 77.0635 66.3338C76.9624 67.0772 76.8802 67.8248 76.7694 68.5662C76.7608 68.6224 76.6984 68.6809 76.6678 68.7271C76.6039 68.824 76.6573 68.8821 76.6973 68.9782C76.1543 71.1242 75.3842 73.5996 72.9653 74.2128C72.7886 74.2577 72.6456 74.3019 72.4739 74.3639C72.3902 75.4394 72.4378 76.694 72.3921 77.7959L71.9712 87.7778C71.9452 88.3797 71.8743 88.9999 71.8499 89.5835L71.7243 92.7275C71.7007 93.3198 71.677 93.9806 71.6654 94.5755C71.6646 94.6243 71.71 94.8724 71.7305 94.8852C72.8161 95.5588 76.0376 96.9501 76.8732 97.6288C76.9019 97.7691 77.005 98.34 76.9383 98.4543C76.8562 98.5946 76.6042 98.6218 76.4387 98.6299C75.4962 98.678 74.523 98.6543 73.5792 98.6423C72.1072 98.6206 70.6352 98.6183 69.1632 98.6349C68.4772 98.6469 67.7567 98.6481 67.0754 98.7051C66.9618 98.7206 66.482 98.6733 66.3099 98.6853C65.4863 98.7419 64.6705 98.7342 63.8469 98.7508C63.6357 98.7551 63.476 98.6764 63.3229 98.6822C62.9144 98.6969 62.4858 98.7745 62.0782 98.7671C58.3283 98.6977 54.5812 98.645 50.8306 98.6504C50.6338 98.6508 50.1969 98.6117 50.0587 98.4749C50.0162 98.2512 49.9803 97.904 50.1692 97.6916C51.7438 96.5281 53.6671 95.6874 55.3081 94.6797C55.5025 94.5604 55.1576 89.8835 55.1275 89.2983L54.8266 82.0658C54.7162 79.5524 54.5832 77.1448 54.6079 74.6124C54.3565 74.5635 54.1048 74.4697 53.8695 74.3694C50.5708 72.9629 50.1346 68.6678 49.8656 65.5691C49.6912 63.5937 49.5887 61.6128 49.5582 59.6301C49.4576 56.7046 49.4769 53.7763 49.616 50.8524C49.7226 48.8418 49.8972 46.9103 50.3266 44.9493C50.876 42.4399 52.1495 40.4541 54.5957 39.4662C55.4083 39.1381 56.0729 39.0276 56.9195 38.8659C56.9991 38.7907 57.0105 38.8107 57.0096 38.6929C57.0068 38.2966 56.9782 37.8953 56.9752 37.4985C56.9717 36.7844 57.0128 36.0707 57.0985 35.3617C57.4407 32.352 58.8642 28.8122 62.0275 27.8975C62.2976 27.8194 62.5861 27.7605 62.8617 27.7017Z" fill="black"/>
<path d="M63.4133 28.208C63.5552 28.2074 63.8133 28.2443 63.9462 28.276C67.9526 29.2345 68.7905 34.9882 68.313 38.4281C68.2773 38.6856 68.139 39.0888 68.2812 39.2857C68.5448 39.6507 69.1083 39.5187 69.4986 39.5423C72.4945 39.5264 74.5863 41.9362 75.2211 44.6932C75.573 46.2227 75.6862 47.5692 75.8149 49.1124C76.1521 53.3817 76.1993 57.6689 75.9563 61.9446C75.8521 63.9505 75.6928 66.3391 75.3509 68.3158C74.9669 70.5381 74.4262 72.2252 72.5329 73.5596C72.4879 72.788 72.5205 72.026 72.5294 71.2543L72.5786 67.6739C72.6061 65.7337 72.5073 63.7901 72.5872 61.8492C72.5945 61.6686 72.5511 61.4707 72.5511 61.287L72.5434 57.6674C72.5414 57.3271 72.5813 56.9525 72.5639 56.6186C72.4414 54.2895 72.5693 51.9531 72.4321 49.6252C72.4286 49.5664 72.4724 49.4614 72.4984 49.4091C72.3 48.4635 72.5573 47.2585 72.3139 46.317C72.2639 46.1227 71.4213 46.0106 71.2163 46.1492C71.0497 46.5441 71.1338 47.9212 71.131 48.4262L71.1055 52.3872L71.0923 61.5703L70.9508 72.0419C70.9446 73.579 70.9194 75.1161 70.8756 76.6528C70.8659 77.1358 70.8547 77.6167 70.8745 78.1004C70.8799 78.226 70.8501 78.2663 70.7772 78.3345C70.8481 79.0767 70.7966 79.7569 70.7656 80.5026L70.6276 83.4726L70.2722 91.5411C70.2482 92.0558 69.9621 95.4137 70.2571 95.5877C71.3756 96.2482 72.7468 96.9074 73.913 97.5279C74.2084 97.6853 74.5173 97.7446 74.7886 97.9783L74.7475 98.0337C73.9944 97.9322 72.7589 97.9787 71.967 97.9639C70.4222 97.9302 68.8785 97.8705 67.3355 97.7853C66.6158 97.7446 65.9209 97.7543 65.2051 97.624C64.9345 97.5744 64.6035 97.7961 64.3338 97.5899C64.183 97.2927 64.2144 95.8757 64.1985 95.4377C64.054 91.9248 64.0005 88.4083 64.0381 84.8923C64.0551 82.0389 64.1179 79.1852 64.0629 76.3315C64.0516 75.7541 64.076 75.1607 64.0609 74.5941C64.1187 74.2387 64.059 73.8061 64.0671 73.441C64.0919 72.493 64.1036 71.5446 64.102 70.5959C64.0993 70.073 64.071 69.5653 64.083 69.0405C63.8524 68.808 63.3466 68.675 63.0451 68.9227C62.9312 69.0165 63.0056 69.3812 63.0021 69.5544C62.985 70.9055 62.999 72.257 63.0443 73.6073C63.1311 79.0655 63.1052 84.5248 62.9672 89.9823C62.9153 91.8872 62.8943 93.7929 62.9044 95.6986C62.9067 96.2664 62.894 96.8361 62.9048 97.4012C62.9075 97.5407 62.9676 97.5613 62.844 97.6686C61.6458 97.6333 60.4103 97.7295 59.2131 97.7822C57.6162 97.8504 56.0186 97.8996 54.4206 97.9291C54.0044 97.9364 52.5024 98.0128 52.2082 97.9787L52.1815 97.9291C52.2927 97.8178 52.7893 97.6066 52.9632 97.5035C53.6094 97.1187 56.4256 95.7691 56.8028 95.385C56.8823 94.9517 56.7924 94.2463 56.7748 93.7898C56.7248 92.4937 56.6174 91.1954 56.544 89.9009L56.1693 82.5029C56.0543 80.3619 55.9096 78.2462 55.8303 76.0971C55.5851 69.0994 55.4692 62.0983 55.4828 55.0967L55.475 49.0755C55.4703 48.5676 55.4783 47.0373 55.3974 46.6089C55.3225 46.496 55.3265 46.5051 55.1994 46.4541C55.0457 46.4702 55.0524 46.4715 54.9131 46.5435C54.7734 46.965 54.7593 49.967 54.7383 50.6189C54.5577 56.0606 54.4756 61.5052 54.4918 66.95C54.4826 68.2886 54.4976 69.6273 54.5367 70.9652C54.5564 71.7156 54.6222 72.9023 54.5746 73.6243L54.5692 73.6999C51.6468 72.0283 51.3626 67.97 51.1176 64.9663C50.9864 63.5323 50.8962 62.0951 50.8471 60.6561C50.7367 58.3629 50.6788 56.0674 50.6733 53.7716C50.6786 50.882 50.8842 45.2488 52.2737 42.771C52.9475 41.5697 53.8828 40.7534 55.1209 40.1625C55.5226 39.9711 55.9411 39.8172 56.3711 39.7026C56.8504 39.5736 58.0934 39.4735 58.3773 39.1903C58.3979 38.9523 58.289 38.1857 58.2746 37.8586C58.1559 35.1654 58.5393 31.6504 60.3772 29.5645C61.2593 28.5633 62.1472 28.2744 63.4133 28.208Z" fill="#D3E773"/>
<path d="M63.1881 41.5244C63.3187 41.5521 63.3823 41.55 63.4695 41.6489C63.5055 41.7377 63.5346 41.8614 63.5156 41.9551C63.3083 42.9717 63.2513 44.0061 63.1947 45.0448C63.0912 47.216 63.0881 49.3908 63.1854 51.5622C63.2164 52.279 63.2513 52.9957 63.2893 53.7121C63.3098 54.071 63.3734 54.6319 63.3373 54.9667C64.919 56.7759 65.4349 56.0293 63.4315 58.0182C63.4989 58.8511 63.523 59.738 63.5668 60.5772L63.7466 63.7131C63.7644 64.0678 63.8664 65.1537 63.6586 65.384C63.5272 65.446 63.4951 65.4297 63.3524 65.408C63.0466 65.1363 63.0769 64.1061 63.023 63.6833C62.8633 62.4219 62.8265 61.1444 62.7327 59.8802C62.687 59.2609 62.6885 58.2979 62.569 57.7202C62.9873 57.2747 63.4261 56.8493 63.8846 56.4455C63.5854 56.0788 62.8955 55.5921 62.5131 55.1456C62.382 53.7671 62.3759 52.0643 62.3525 50.6834C62.3118 48.2766 62.409 45.8077 62.7219 43.4205C62.7827 42.9581 62.9377 41.8843 63.1881 41.5244Z" fill="black"/>
</g>
<defs>
<clipPath id="clip0_292_2904">
<rect width="79.375" height="79.375" fill="white" transform="translate(23.8125 23.8125)"/>
</clipPath>
</defs>
</svg>
