<svg width="127" height="127" viewBox="0 0 127 127" fill="none" xmlns="http://www.w3.org/2000/svg">
<rect width="127" height="127" rx="63.5" fill="#AFD300" fill-opacity="0.5"/>
<g clip-path="url(#clip0_292_2735)">
<path d="M56.0934 27.94C56.2143 27.9233 57.4546 27.949 57.7093 27.9648C60.0406 28.1287 62.8329 28.1049 64.8956 29.3157C65.0463 29.4373 65.2204 29.6235 65.3215 29.7826C65.994 30.8425 65.4533 31.1551 66.9838 30.9309C68.3027 30.7376 69.8929 30.3728 71.1975 30.9296C72.9327 31.6703 73.8943 33.541 73.0943 35.3394C72.8629 35.8559 72.4932 36.2985 72.0261 36.6183C69.8367 38.1338 66.6141 36.1153 65.937 36.3731C65.8657 36.6443 65.9944 37.1003 65.8568 37.5346C65.6482 38.1937 65.3502 38.4383 64.7967 38.7769C65.1173 39.2772 65.1944 39.6675 64.9274 40.222C66.3873 40.8513 66.0742 41.8482 66.6885 42.1322C67.9927 41.8358 68.9907 41.1255 70.3952 40.9848C71.7552 40.8754 72.8067 41.0021 73.9129 41.8398C77.3006 44.4057 76.2069 49.3213 71.5304 48.4296C70.3418 48.2029 69.4329 47.5603 68.0996 47.7006C68.7202 49.0046 68.5845 49.6184 67.7822 50.4923C67.6942 50.5877 68.207 51.0347 68.3136 51.3068C68.5066 51.801 68.5616 52.0544 68.3756 52.6139C69.5341 52.9257 70.2115 53.425 70.7037 54.5935C70.7979 54.8177 70.8615 55.1801 71.0452 55.3334C71.5587 55.3664 73.0129 54.2021 73.8241 53.9496C75.3159 53.4853 76.5026 53.5504 77.9118 54.252C79.5327 55.059 80.3311 56.5669 80.8896 58.1912C81.1314 59.1784 81.3295 59.8966 80.9357 60.8931C80.6101 61.7168 80.1086 62.2861 79.2939 62.642C77.4878 63.4303 75.7124 62.5025 74.0439 61.8258C73.6226 61.655 72.5583 61.3368 72.1265 61.5308C72.0916 61.597 72.068 61.6492 72.0847 61.7268C72.3711 63.0718 72.5145 64.6876 71.2917 65.6949C68.6988 67.8312 64.3131 68.0835 61.0816 68.0316C58.9531 67.9975 55.8616 67.5506 54.2986 66.0088C53.2554 64.9364 53.6601 63.6342 53.9604 62.3573C54.2309 61.1875 53.9557 59.9668 53.4274 58.9077C52.7173 57.4839 52.5182 56.3681 53.8415 55.2105C53.2644 54.5633 53.0023 53.7533 53.4457 52.9504C53.3004 52.9149 53.1565 52.8737 53.0144 52.827C52.1407 52.5347 51.4536 52.0327 51.0552 51.1933C50.3748 49.7598 50.8525 48.3842 50.5556 46.8242C50.3639 45.8172 49.7601 44.8197 49.6405 43.958C49.5855 43.5761 49.6248 43.1866 49.7551 42.8235C50.0101 42.1084 50.6349 41.5308 51.3106 41.2119C51.1722 41.0118 51.0668 40.7908 50.9987 40.5572C50.8354 39.9963 50.961 39.6097 51.2165 39.1225C50.9185 38.9831 50.6001 38.8185 50.3491 38.6027C48.7539 37.2307 49.6925 35.5852 49.9803 33.887C50.0919 33.2285 50.0257 32.5559 49.9546 31.9118C49.8666 31.1148 49.976 30.3632 50.5171 29.7391C51.4349 28.6805 52.9828 28.2035 54.3299 28.0474C54.9168 27.9793 55.5177 27.9914 56.0934 27.94Z" fill="black"/>
<path d="M63.7231 41.5067C64.151 41.3878 64.5297 42.6795 64.9351 43.0066C66.8171 44.5244 68.7534 42.4928 70.7095 42.3907C71.3258 42.3565 71.93 42.5724 72.3854 42.9895C74.2651 44.6994 74.345 47.9044 71.0211 46.614C69.6398 46.1776 66.1439 45.65 66.0683 47.8774C66.0489 48.4377 66.8225 49.0039 66.0896 49.5471C65.4075 49.5336 62.9794 49.6863 62.3694 49.8979C61.9252 49.9051 60.954 50.1078 60.5046 50.2007C59.5633 50.3913 58.6265 50.6037 57.695 50.8375C56.9098 51.0321 56.1411 51.2377 55.3427 51.3972C54.7157 51.537 54.0191 51.5703 53.4688 51.1706C52.8535 50.7238 52.7207 49.9011 52.6951 49.1963C52.6715 48.5475 52.6988 47.9076 52.6609 47.2642C52.6174 46.7487 52.4539 46.2287 52.3532 45.7286C52.1569 44.7532 51.2101 43.6529 51.9566 42.7161C52.4596 42.0847 53.5015 42.416 54.2162 42.4489C56.5862 42.558 58.9285 42.2175 61.2632 41.853C62.0592 41.7303 62.9286 41.5544 63.7231 41.5067Z" fill="#D3E773"/>
<path d="M55.6317 29.2978C57.0245 29.1952 62.2844 29.6833 63.3496 30.3646C64.2364 30.9318 63.6294 32.0621 65.6638 32.3334C66.1731 32.4013 66.6928 32.3659 67.2013 32.3055C68.116 32.1969 69.4857 31.7816 70.3224 32.2566C70.7468 32.4978 71.0464 32.9537 71.1581 33.4237C71.2995 34.0203 71.1953 34.5612 70.8678 35.0791C70.1101 36.2785 68.2392 35.2917 67.2052 35.0712C66.4111 34.9019 65.715 34.8481 64.9193 35.0155C63.3527 35.7352 64.26 36.8245 63.6449 37.5254C63.5054 37.6848 62.1554 37.4332 61.7277 37.4023C59.1584 37.2168 56.5478 37.1443 53.992 37.5741C52.9087 37.7507 52.1079 38.1055 51.4966 36.9841C51.5142 35.8208 51.9267 34.8298 52.0455 33.6699C52.1432 32.9349 52.019 32.2361 51.95 31.5034C51.7528 29.4112 54.1682 29.3427 55.6317 29.2978Z" fill="#D3E773"/>
<path d="M67.2187 54.002C67.6997 54.074 67.7218 54.0954 68.114 54.3898C66.8381 55.0056 65.9071 56.0146 65.2568 57.2558C63.5961 60.4271 65.444 63.5003 68.3803 65.0022C65.861 65.6669 63.2751 66.0459 60.671 66.1323C60.2165 66.1444 59.4648 66.173 59.0418 66.0544C58.6848 66.1568 57.41 65.7641 56.9934 65.6258C54.6913 64.8626 56.3785 62.6391 56.1325 60.9431C55.9699 59.8224 55.7071 58.9813 55.1623 57.9561C54.894 57.4512 54.8256 56.9796 55.0284 56.438L55.4083 56.2158C58.8615 56.7689 64.0441 55.3144 67.2187 54.002Z" fill="#D3E773"/>
<path d="M74.9869 55.2296C77.172 55.0315 78.3607 57.3605 78.7452 59.1857C78.8681 59.7696 78.7332 60.9653 78.0623 61.1346C76.8744 61.4344 75.4958 60.4382 74.3517 60.1807C73.5812 59.9811 72.856 59.885 72.0642 59.9848C70.3279 60.2035 69.7268 61.2848 70.0283 62.9667L70.1015 63.1337C70.0519 63.3764 70.1736 63.5822 69.9961 63.6926C69.6097 63.6864 68.7791 62.9442 68.4524 62.6756C67.5346 61.9208 66.9824 61.0215 66.9079 59.8187C66.8006 58.0842 67.6664 56.9542 68.7214 55.7216C69.1563 56.4476 69.3318 56.7207 70.2229 56.8453C72.101 57.108 73.2072 55.5171 74.9869 55.2296Z" fill="#D3E773"/>
<path d="M64.2518 51.1593C64.7328 51.0942 65.3029 51.1241 65.7816 51.191C66.2195 51.5828 66.2703 51.6883 66.3765 52.2631L66.2746 52.574C64.4952 53.7783 59.2913 54.8427 57.0954 54.8701C55.8447 54.9327 55.0113 54.4647 55.2227 53.0862C55.9549 52.8212 56.8405 52.5897 57.6025 52.3947C59.7467 51.8459 62.0459 51.302 64.2518 51.1593Z" fill="#D3E773"/>
<path d="M57.7173 38.6759C58.4293 38.6314 62.4011 38.8043 62.866 39.1012C63.0106 39.1936 63.0838 39.3908 63.1137 39.5516C63.1388 39.6885 63.1311 39.8107 63.0435 39.925C62.9536 40.0427 62.7989 40.1163 62.661 40.1603C62.1682 40.3176 61.5606 40.3506 61.0475 40.4259C60.126 40.5612 59.2035 40.7232 58.277 40.818C56.8526 40.9896 55.3625 41.1304 53.9253 41.0324C52.9227 40.964 52.6891 40.0331 53.1299 39.2252C54.0828 38.7774 56.6337 38.6875 57.7173 38.6759Z" fill="#D3E773"/>
<path d="M54.615 69.3303C55.0952 69.2128 56.6394 69.7112 57.1963 69.8492C57.6424 69.9573 58.0913 70.0539 58.5424 70.1387C60.5932 70.5166 62.6679 70.7507 64.7515 70.8391C65.4332 70.8596 66.1153 70.8282 66.7921 70.7445C67.6587 70.643 68.971 70.3643 69.7802 70.5453C69.9109 70.5744 70.0391 70.6151 70.1628 70.6662C70.7003 70.8941 71.1224 71.3301 71.3329 71.8747C71.6406 72.6599 71.3375 73.8606 71.0182 74.6167C72.0421 74.9404 73.0076 74.6226 74.0203 74.4156C75.314 74.1517 76.8093 74.0947 77.9995 74.7629C78.8758 75.2551 79.4382 76.1481 79.7006 77.0972C80.0281 78.2816 79.9688 79.7858 79.3498 80.8675C78.9572 81.5528 78.3933 82.0876 77.6747 82.4209C74.6028 83.8456 71.7968 80.5241 70.1744 80.9652C70.014 81.2485 70.138 81.9062 69.8841 82.4434C69.3826 83.505 68.6869 83.8751 67.6777 84.289C67.8904 84.8665 67.9858 85.1591 67.6711 85.7265C67.6808 85.7304 67.6901 85.7347 67.6998 85.7389L67.747 85.7606C68.347 86.0312 68.9326 86.5986 69.0764 87.264C69.1322 87.5222 69.128 88.1062 69.2551 88.2845C69.9333 88.3508 71.3333 87.6311 72.0809 87.4404C72.9312 87.2233 73.4901 87.0865 74.392 87.1323C75.9632 87.2121 77.1069 87.5888 78.1611 88.7957C78.8514 89.586 79.5138 90.8964 79.5975 91.9459C79.6258 92.2994 79.5835 92.635 79.5653 92.9877C79.0607 94.4508 78.4673 95.2597 76.9209 95.7341C74.8396 96.3724 73.0498 95.6007 71.0895 95.0078C70.731 94.8992 70.2112 94.7644 69.838 94.8113C69.819 94.8299 69.8 94.8488 69.781 94.8675C70.0434 96.5069 69.0117 97.3603 67.4986 98.0014C66.5688 98.3951 64.7809 98.4618 63.4384 98.5785C61.0875 98.8036 58.7301 98.9544 56.3697 99.0308C55.1306 99.0629 53.7584 99.0873 52.5121 98.9707C50.705 98.8017 48.2071 98.1192 47.4521 96.2736C46.6755 94.3752 47.807 92.7467 47.9355 90.9068C48.0387 89.4298 47.014 87.9946 47.7402 86.5184C48.1232 85.6835 48.8368 85.1808 49.6701 84.858C49.2276 83.6895 49.4327 82.7926 50.3995 81.9896C49.7047 81.5795 49.051 80.7187 48.9694 79.9064C48.7847 78.0696 50.6125 76.5938 51.0865 74.9578C51.5083 73.5021 50.8971 71.9258 52.0624 70.6709C52.7609 69.8639 53.5583 69.4442 54.615 69.3303Z" fill="black"/>
<path d="M50.6887 86.0674C50.9269 86.0736 52.0286 86.5464 52.3403 86.6549C52.7523 86.7995 53.1725 86.9197 53.5986 87.0146C56.9006 87.744 60.9872 87.9863 64.377 87.527C64.9777 87.4456 65.8579 87.1724 66.466 86.9995C67.1551 87.5936 66.9199 87.9556 67.0067 88.9149C67.0253 88.9408 67.0443 88.9664 67.064 88.9916C67.8206 89.964 69.2469 89.9823 70.2941 89.647C72.2885 89.0079 74.538 87.5874 76.1255 89.7854C76.9305 90.9 77.7475 92.8782 76.3759 93.9429C75.5329 94.5979 74.4725 94.1913 73.5757 94.0246C73.4594 94.0235 72.1587 93.5944 71.9169 93.5247C70.8479 93.2166 69.4228 93.0464 68.4023 93.5882C67.5272 94.0526 67.7493 94.8641 67.5846 95.6183C67.5338 95.8501 67.3067 96.1059 67.083 96.2055C66.7203 96.3668 66.2784 96.5454 65.8769 96.5989C64.9398 96.7245 63.96 96.6962 63.0143 96.7838C59.8027 97.0811 56.5328 97.3655 53.3068 97.2442C52.583 97.2171 51.7039 97.0593 51.0215 96.8326C50.4825 96.6532 49.8019 96.1838 49.5872 95.6443C49.1393 94.5188 49.6575 93.139 49.9007 92.0213C50.0223 91.4624 50.0655 91.0264 50.0757 90.4644C50.0964 89.3304 49.3322 87.9556 49.7553 86.9018C49.9516 86.4131 50.2517 86.265 50.6887 86.0674Z" fill="#D3E773"/>
<path d="M54.6908 70.8271C55.3473 70.7872 56.3043 71.1659 56.992 71.3407C57.6985 71.5194 58.4094 71.6806 59.1241 71.8232C59.623 71.9236 60.0856 71.9922 60.5885 72.0643C63.045 72.4162 65.5615 72.7243 68.0272 72.2786C68.3218 72.2255 68.9004 72.1023 69.1764 72.1736C69.5969 72.7604 68.5466 74.1979 68.976 75.1122C69.1752 75.5362 69.581 75.7931 70.0054 75.9532C72.3456 76.8361 74.7311 75.3149 76.2593 75.928C76.6879 76.0997 76.9701 76.4512 77.1488 76.8675C77.5414 77.7818 77.5778 79.027 77.198 79.9495C77.0224 80.3758 76.736 80.8013 76.2907 80.9742C75.3031 81.3571 73.6625 80.349 72.7517 79.9452C71.5142 79.351 69.1756 79.0925 68.1381 80.2227C67.4761 80.944 67.9602 82.4288 66.9645 82.7795C66.1025 83.0834 64.6274 82.7687 63.7236 82.7206C62.1846 82.64 60.6685 82.4105 59.138 82.2454C56.8257 81.9989 54.5008 81.6664 52.2633 81.0188C51.8492 80.8568 51.4088 80.589 51.2365 80.1595C50.9081 79.3414 51.4684 78.5251 51.8676 77.8387C52.3775 76.962 52.9354 76.1505 53.2353 75.1684C53.688 73.6855 52.7959 71.4969 54.6908 70.8271Z" fill="#D3E773"/>
<path d="M52.2756 82.6738C53.4122 82.9734 54.8727 83.2036 56.0474 83.3815C57.7634 83.6362 59.4834 83.8629 61.2069 84.061C61.8231 84.1311 65.049 84.3722 65.4366 84.5388C65.6505 84.7725 65.6203 85.0776 65.4502 85.3353C65.2506 85.6368 64.8339 85.7171 64.4994 85.7829C62.2055 86.3379 58.784 86.2287 56.4169 85.9546C55.1118 85.7415 53.6982 85.5372 52.4655 85.0392C51.3467 84.5877 51.3108 83.3443 52.2756 82.6738Z" fill="#D3E773"/>
</g>
<defs>
<clipPath id="clip0_292_2735">
<rect width="79.375" height="79.375" fill="white" transform="translate(23.8125 23.8125)"/>
</clipPath>
</defs>
</svg>
